<svg width="392" height="102" viewBox="0 0 392 102" fill="none" xmlns="http://www.w3.org/2000/svg">
<path d="M102.221 101.462C102.221 101.165 102.127 100.98 102.012 101.049C101.897 101.118 101.659 100.84 101.483 100.43C101.298 99.9973 101.013 99.6844 100.803 99.6844C100.518 99.6844 100.495 99.6225 100.693 99.389C100.886 99.1622 100.88 99.0725 100.666 99.0022C100.446 98.9302 100.456 98.8287 100.711 98.5264C100.957 98.2336 100.97 98.121 100.765 98.0535C100.616 98.0048 100.495 97.8725 100.495 97.7595C100.495 97.6465 100.591 97.612 100.708 97.6827C100.83 97.7565 100.867 97.672 100.793 97.4846C100.722 97.3049 100.775 97.1579 100.911 97.1579C101.09 97.1579 101.095 97.0436 100.926 96.7368C100.741 96.3986 100.762 96.3157 101.035 96.3157C101.31 96.3157 101.323 96.2616 101.105 96.0335C100.825 95.7417 100.283 96.0026 100.354 96.3947C100.372 96.496 100.273 96.6198 100.134 96.6699C99.9679 96.7297 99.9241 96.6013 100.006 96.2948C100.075 96.0385 100.043 95.8791 99.9354 95.9406C99.8277 96.0021 99.5453 95.9828 99.308 95.8976C98.9657 95.7748 99.0663 95.711 99.7935 95.5896C100.365 95.4941 100.711 95.3246 100.711 95.1392C100.711 94.9757 100.899 94.8419 101.13 94.8419C101.361 94.8419 101.682 94.6569 101.844 94.4307C102.135 94.0253 103.235 93.472 103.591 93.5515C103.692 93.574 104.323 93.4573 104.993 93.2921C105.664 93.127 106.82 92.9251 107.562 92.8435C108.304 92.7618 108.965 92.6096 109.031 92.5052C109.098 92.4008 109.364 92.3133 109.624 92.3107C109.884 92.308 110.68 92.026 111.392 91.6838C112.104 91.3416 112.851 91.0595 113.052 91.0569C113.252 91.0542 113.476 90.9574 113.55 90.8416C113.623 90.7258 113.574 90.6311 113.44 90.6311C113.141 90.6311 113.248 89.6894 113.55 89.669C113.668 89.6609 114.191 89.5354 114.712 89.3901C115.232 89.2447 115.895 89.1838 116.184 89.2548C116.474 89.3257 117.019 89.2909 117.396 89.1775C117.773 89.0641 118.623 88.8678 119.285 88.7414C121.103 88.3943 122.073 88.1045 122.073 87.9086C122.073 87.7057 111.004 87.8473 108.263 88.0853C106.819 88.2107 106.268 88.1764 105.674 87.9242C105.258 87.748 104.87 87.5901 104.81 87.5733C104.751 87.5566 104.419 87.4286 104.072 87.2888C103.725 87.149 103.288 87.0929 103.101 87.164C102.914 87.2351 100.042 87.3273 96.7185 87.3689C93.3954 87.4105 90.2396 87.5388 89.7055 87.6541C89.1715 87.7695 87.571 87.9738 86.1488 88.1082C84.7268 88.2427 83.3774 88.4497 83.1504 88.5683C82.9233 88.6868 82.2632 88.7394 81.6836 88.6851C81.1039 88.6307 80.5773 88.6689 80.5133 88.7699C80.4493 88.8709 80.3065 88.8991 80.1961 88.8325C80.0856 88.7658 79.9952 88.8116 79.9952 88.9343C79.9952 89.0569 79.9224 89.1385 79.8334 89.1155C79.4744 89.0228 77.6216 89.4059 77.6216 89.5727C77.6216 89.7782 75.9915 90.1198 75.3752 90.0435C75.1485 90.0154 74.7806 90.1835 74.5576 90.417C74.3346 90.6505 73.986 90.8528 73.783 90.8665C73.5799 90.8801 72.8311 90.9118 72.119 90.9368C71.4069 90.9617 70.4359 91.0915 69.9612 91.2252C69.4865 91.3589 68.7312 91.5216 68.2829 91.5867C67.8345 91.6518 67.5203 91.7882 67.5847 91.8898C67.7855 92.2069 67.306 92.2899 63.557 92.5874C63.3578 92.6032 63.2121 92.7059 63.2333 92.8156C63.2545 92.9253 63.0776 93.0708 62.8403 93.1389C62.6029 93.2071 62.1635 93.4256 61.8639 93.6244C61.4719 93.8846 60.6547 94.024 58.9508 94.1215C57.6482 94.196 56.358 94.247 56.0837 94.2349C55.8094 94.2228 55.2867 94.3633 54.9222 94.5472C54.5458 94.7372 54.202 94.7982 54.1263 94.6885C53.9405 94.4192 53.1808 94.1605 53.3473 94.4232C53.5226 94.7001 53.3127 94.686 52.7381 94.3821C51.5785 93.7688 46.0887 94.235 45.516 94.9954C45.3387 95.2308 45.3193 95.3896 45.4621 95.436C45.5849 95.4759 45.6853 95.5925 45.6853 95.695C45.6853 95.7975 45.5495 95.8305 45.3835 95.7684C45.2175 95.7062 45.0176 95.7566 44.9392 95.8803C44.73 96.2106 46.0231 96.1627 46.721 95.8142C47.0415 95.6542 47.7407 95.4536 48.2748 95.3683C48.8088 95.2831 49.4157 95.1826 49.6234 95.145C49.8311 95.1074 50.0011 95.2007 50.0011 95.3524C50.0011 95.5475 50.2694 95.6077 50.9181 95.5581C51.627 95.504 51.7485 95.5371 51.4531 95.7043C51.2429 95.8232 51.1195 95.9972 51.1789 96.091C51.307 96.2932 50.1005 96.4965 47.7649 96.6664C46.4534 96.7618 46.0254 96.724 45.88 96.5001C45.7436 96.29 45.6911 96.2827 45.6887 96.4736C45.6838 96.8612 44.3868 96.7986 43.9221 96.3884C43.7051 96.1967 43.5275 96.1295 43.5275 96.2391C43.5275 96.3599 42.8271 96.3813 41.7473 96.2935C40.7682 96.2139 39.2388 96.0966 38.3487 96.0328C37.4585 95.969 36.4113 95.8066 36.0215 95.672C35.6316 95.5374 35.071 95.4723 34.7755 95.5274C34.4801 95.5825 34.1772 95.5309 34.1024 95.4128C34.0187 95.2807 34.0751 95.2635 34.2487 95.3683C34.4245 95.4742 34.4788 95.4559 34.3926 95.3198C34.2301 95.0633 33.201 94.8309 31.983 94.7757C31.2645 94.7432 31.1159 94.6608 31.0964 94.2843C31.0755 93.8799 31.2243 93.8148 32.499 93.6706C33.2833 93.5819 34.1678 93.5298 34.4645 93.5549L35.004 93.6004L34.4314 93.2968C33.4386 92.7702 32.4704 92.548 30.5804 92.4129C29.5716 92.3408 28.115 92.1271 27.3436 91.938C25.5693 91.503 19.4128 91.4697 19.1443 91.8936C19.0519 92.0395 18.862 92.0899 18.7224 92.0058C18.3619 91.7884 14.3909 91.7152 14.526 91.9284C14.6523 92.1279 14.6202 92.1312 11.7974 92.2148C9.80502 92.2738 8.96406 92.3458 5.98088 92.7124C4.62062 92.8795 3.82532 92.7838 3.04787 92.3593C2.72229 92.1815 2.79246 92.0804 3.57656 91.5974C4.20899 91.2079 4.98162 90.9788 6.14786 90.8349C8.1381 90.5894 10.037 90.2802 11.4052 89.9788C12.2235 89.7985 12.3867 89.687 12.301 89.3671C12.2394 89.1374 12.0712 89.0226 11.8937 89.0891C11.7274 89.1514 11.5913 89.0975 11.5913 88.9693C11.5913 88.8411 11.7612 88.7347 11.9689 88.733C12.2916 88.7303 12.2995 88.7001 12.0229 88.5257C11.8182 88.3966 11.7958 88.3204 11.9622 88.3183C12.1072 88.3164 12.1692 88.173 12.1005 87.9982C12.0137 87.7776 12.229 87.5714 12.8085 87.3201L13.6413 86.959L11.5329 86.8321C10.3733 86.7623 8.84393 86.7148 8.13429 86.7265C7.42464 86.7382 6.84403 86.736 6.84403 86.7215C6.84403 86.707 7.03823 86.4767 7.27559 86.2097C7.51296 85.9426 7.70717 85.7882 7.70717 85.8665C7.70717 85.9448 7.92583 85.8692 8.19309 85.6982C8.46034 85.5273 9.39887 85.2786 10.2787 85.1454C11.1585 85.0122 12.263 84.7708 12.733 84.609C13.203 84.4472 13.9396 84.3114 14.3697 84.3073C15.5714 84.2958 18.5985 83.5278 17.7232 83.4565C17.6144 83.4477 17.3312 83.3968 17.0938 83.3435C16.8565 83.2902 16.5437 83.2213 16.3988 83.1903C15.9051 83.0847 15.8735 82.8797 16.3293 82.7386C16.5794 82.6611 17.0379 82.3683 17.3481 82.0878C17.6583 81.8072 18.1288 81.5777 18.3936 81.5777C18.6585 81.5777 18.9859 81.4475 19.1213 81.2883C19.3236 81.0505 19.1457 80.9743 18.1228 80.8606C17.4382 80.7845 16.5867 80.6763 16.2307 80.6203C15.3836 80.4868 12.013 80.5061 11.7815 80.6457C11.4692 80.8341 9.00188 80.9229 9.00188 80.7458C9.00188 80.6527 9.14753 80.4586 9.32555 80.3145C9.50358 80.1703 9.64923 79.9535 9.64923 79.8325C9.64923 79.7116 9.58534 79.675 9.50725 79.7512C9.42915 79.8274 9.23495 79.7842 9.07568 79.6553C8.91533 79.5254 8.78609 79.5106 8.78609 79.622C8.78609 79.7327 8.64044 79.8232 8.46241 79.8232C7.94418 79.8232 8.08634 79.5978 8.79848 79.2902C9.59935 78.9443 9.48467 78.7992 8.19356 78.5249C7.01576 78.2746 6.79124 77.8824 7.63568 77.5503C8.50959 77.2066 12.6154 76.7606 14.9625 76.7543C16.0627 76.7512 17.2204 76.6859 17.5352 76.6088L18.1077 76.4686L17.4929 75.9779C17.1547 75.708 16.7138 75.4838 16.5131 75.4796C16.0017 75.469 15.8462 75.1341 16.1206 74.6339C16.4103 74.1058 18.2873 73.1561 19.0414 73.1561C19.3594 73.1561 19.5433 73.0652 19.4675 72.9455C19.3941 72.8297 19.156 72.735 18.9383 72.735C18.5728 72.735 18.1663 72.2093 18.2464 71.8402C18.3278 71.4649 14.9041 71.8846 14.6176 72.285C14.3988 72.5908 8.88857 73.39 8.34688 73.1945L7.83104 73.0083L8.33283 72.7463C8.6088 72.6022 10.4016 72.2294 12.3169 71.9179C15.8215 71.3478 16.6745 70.9454 14.378 70.9454C13.6723 70.9454 13.0232 70.8251 12.8121 70.6553C12.5124 70.4141 12.0974 70.4074 10.3491 70.6157C7.13452 70.9988 5.2663 71.2619 4.82818 71.3932C4.53791 71.4802 4.45061 71.4179 4.5045 71.1618C4.58303 70.7887 5.25063 70.3509 6.29725 69.9862C7.19813 69.6723 6.63814 69.3955 5.48627 69.5854C4.98687 69.6677 4.14131 69.8018 3.60725 69.8834L2.63621 70.0317L3.44541 69.2751C3.89047 68.8589 4.2546 68.4846 4.2546 68.4432C4.2546 68.4018 3.65246 68.3015 2.91651 68.2203C1.17645 68.0282 0.245386 67.5522 0.25744 66.861C0.263772 66.4964 1.65975 66.0074 2.95867 65.9146C3.49341 65.8764 4.70775 65.6947 5.6572 65.5107C6.60666 65.3267 8.06333 65.1336 8.89425 65.0815C9.72517 65.0293 10.9875 64.8869 11.6995 64.7649C16.121 64.0074 17.1162 63.8209 17.3068 63.7143C17.4239 63.6488 17.084 63.4917 16.5515 63.3652C16.0156 63.2379 15.5833 63.0117 15.5833 62.8587C15.5833 62.5044 17.7582 61.7348 19.7321 61.3906C20.6923 61.2232 21.4027 60.9741 21.6353 60.7233C21.8435 60.4988 22.5658 60.2158 23.2805 60.0786C24.902 59.7673 24.8582 59.4721 23.0964 58.8369C22.7186 58.7007 22.4533 58.4797 22.5068 58.3458C22.6286 58.041 23.6287 57.5759 24.1626 57.5759C24.3833 57.5759 24.5039 57.4812 24.4305 57.3654C24.3572 57.2496 23.5746 57.1549 22.6915 57.1549C21.2365 57.1549 20.6522 56.9396 21.3556 56.6627C21.9841 56.4152 18.8349 56.5492 17.2795 56.8361C15.3425 57.1933 14.2886 57.0438 14.2886 56.4117C14.2886 56.1203 14.8523 55.7377 16.4067 54.974C17.871 54.2546 18.4371 53.8782 18.2408 53.7545C17.8681 53.5196 18.236 53.2795 19.6832 52.8131C21.726 52.1547 23.3466 51.0512 23.1339 50.4634C22.9885 50.0619 23.7847 49.8429 27.0742 49.3796C28.7093 49.1494 30.3468 48.8151 30.713 48.6368C31.0793 48.4585 31.8547 48.257 32.4362 48.189C34.0396 48.0015 37.1076 47.2442 37.5875 46.9175C37.8216 46.7582 38.3071 46.6211 38.6664 46.6129C39.0257 46.6048 39.5139 46.5167 39.7513 46.4172C40.0949 46.2731 40.007 46.2299 39.3197 46.2052C37.4804 46.1392 36.5045 45.9622 36.2606 45.6507C36.0941 45.438 35.8341 45.3726 35.5054 45.4607C35.0739 45.5764 35.0572 45.5626 35.3855 45.362C35.5953 45.2337 35.9352 45.1558 36.1408 45.1887C36.3463 45.2217 36.6451 45.1689 36.8048 45.0712C36.9766 44.9662 37.3124 45.0072 37.6273 45.1716C38.0421 45.3882 38.2496 45.3947 38.5678 45.2008C38.8261 45.0434 39.024 45.0278 39.1066 45.1583C39.1785 45.2717 39.7899 45.3679 40.4653 45.372C41.1407 45.3761 41.9361 45.5148 42.2328 45.6803C42.8792 46.0409 43.0959 46.0673 43.0959 45.7856C43.0959 45.6698 42.9445 45.5751 42.7595 45.5751C42.5745 45.5751 42.4763 45.4911 42.5413 45.3885C42.6063 45.2858 42.4562 45.15 42.2076 45.0866C41.9591 45.0231 41.7979 44.8466 41.8495 44.6942C41.9447 44.4129 42.9112 44.2482 45.9011 44.0035C48.6023 43.7824 49.3537 43.6634 49.3537 43.4567C49.3537 43.348 49.208 43.2591 49.03 43.2591C48.8502 43.2591 48.7063 43.072 48.7063 42.838C48.7063 42.5292 48.8502 42.4169 49.2458 42.4169C49.8665 42.4169 49.9724 42.0927 49.3994 41.9465C49.1872 41.8923 48.0947 41.8986 46.9718 41.9604C43.7013 42.1405 42.393 42.0806 41.7088 41.7194C41.3613 41.5359 41.0147 41.4233 40.9387 41.4691C40.8626 41.515 40.8405 41.2858 40.8895 40.9598C40.9965 40.2485 40.693 40.1376 38.4774 40.0781C37.1514 40.0425 37.0485 40.0105 37.5093 39.7775C38.2675 39.3941 41.0485 38.844 42.7068 38.7492C43.5544 38.7008 44.355 38.5279 44.643 38.3311C45.256 37.9122 45.6254 37.907 46.0399 38.3113C46.2263 38.4932 46.7458 38.6252 47.2652 38.6226C48.8645 38.6146 54.8317 38.0224 55.6419 37.7914C56.3984 37.5756 56.4214 37.5408 56.2618 36.8502C56.1612 36.4151 56.1838 36.0475 56.3193 35.9153C56.4732 35.7651 56.4666 35.608 56.298 35.4098C55.7825 34.8037 56.4383 34.6782 59.5873 34.7804C62.0342 34.8597 62.7975 34.8163 63.294 34.5692C63.8193 34.3079 66.1876 33.9473 67.8033 33.8828C68.0407 33.8733 68.7204 33.7808 69.3138 33.6773L70.3928 33.4891L69.4217 33.336C68.8877 33.2517 67.2855 33.2311 65.8613 33.2902C64.4371 33.3492 62.3979 33.3849 61.3298 33.3695C60.2617 33.3541 58.1739 33.4958 56.6904 33.6845C53.755 34.0577 50.7279 34.3187 49.4247 34.3111C48.9703 34.3084 48.5375 34.3889 48.4629 34.4901C48.3884 34.5912 48.0242 34.686 47.6537 34.7008C47.2832 34.7156 46.9801 34.8061 46.9801 34.902C46.9801 34.9979 46.7616 35.0163 46.4946 34.943C46.1145 34.8387 46.0793 34.8578 46.3327 35.0309C46.6117 35.2215 46.6043 35.2525 46.2788 35.2552C46.0711 35.2571 45.9011 35.3641 45.9011 35.4932C45.9011 35.6374 45.6959 35.5968 45.3693 35.388C44.7786 35.0103 44.5196 34.951 44.6992 35.2345C44.7642 35.3372 44.6243 35.4704 44.3882 35.5306C44.1426 35.5933 43.9591 35.536 43.959 35.3967C43.959 35.2557 43.6183 35.1532 43.1498 35.1532C42.6355 35.1532 42.3591 35.2454 42.3912 35.4063C42.426 35.5805 42.1934 35.6284 41.6453 35.5599C40.747 35.4477 39.8608 34.9571 39.8559 34.5694C39.8535 34.4036 39.7776 34.4242 39.6434 34.6268C39.481 34.872 39.4335 34.8099 39.4309 34.3498C39.4267 33.5904 39.7822 32.9425 40.2032 32.9425C40.384 32.9425 40.472 32.8478 40.3986 32.732C40.3253 32.6162 40.4409 32.5142 40.6556 32.5053C41.3667 32.4759 41.8183 32.3484 42.2991 32.041C42.7302 31.7654 43.7433 31.8715 43.7433 32.1922C43.7433 32.2502 43.6132 32.2489 43.4542 32.1892C43.2952 32.1296 43.0281 32.2456 42.8608 32.4467C42.5985 32.762 42.5988 32.7877 42.8631 32.6323C43.0988 32.4937 43.1345 32.5413 43.0176 32.8383C42.9268 33.0693 42.9771 33.2933 43.1428 33.3959C43.5557 33.6515 43.9033 33.6034 43.5278 33.3427C43.2842 33.1736 43.4092 33.1458 44.0328 33.2305C44.4912 33.2928 45.0379 33.2357 45.2561 33.1027C45.5547 32.9207 45.7274 32.9245 45.9666 33.1182C46.2214 33.3246 46.315 33.3017 46.4499 33.0003C46.542 32.7947 46.6018 32.5554 46.583 32.4686C46.5642 32.3817 46.6863 32.3106 46.8544 32.3106C47.0226 32.3106 47.1972 32.2023 47.2424 32.0699C47.2876 31.9374 47.6095 31.7994 47.9577 31.7632C48.3059 31.727 48.6992 31.5526 48.8318 31.3756C48.9645 31.1987 49.1516 31.1235 49.2478 31.2086C49.344 31.2936 49.3617 31.1974 49.2872 30.9948C49.1204 30.5412 49.5331 30.4988 49.7111 30.9512C49.8241 31.2388 49.8854 31.235 50.2438 30.9186C50.6263 30.5808 50.6488 30.5832 50.652 30.9621C50.6547 31.2981 50.6892 31.312 50.8644 31.0474C51.1763 30.5766 51.1318 30.474 50.5542 30.3326C50.1879 30.2429 50.0386 30.0692 50.0625 29.7605C50.1005 29.2688 50.8521 28.9011 51.7182 28.9508C52.5254 28.9971 53.2381 28.7261 53.2381 28.3729C53.2381 28.1456 53.4525 28.0788 54.0473 28.1212C54.917 28.1831 56.3801 27.9462 56.9064 27.6581C57.1678 27.5151 57.147 27.4778 56.7985 27.4646C56.5612 27.4557 55.8815 27.4038 55.288 27.3495C53.4531 27.1817 51.0124 27.187 50.1319 27.3607C49.5275 27.4799 49.3338 27.4599 49.4419 27.2892C49.5347 27.1427 49.4763 27.0953 49.2892 27.1654C49.1117 27.2318 48.8253 27.0391 48.5975 26.7C48.3195 26.286 48.283 26.0971 48.4691 26.0365C48.644 25.9797 48.6017 25.8541 48.3404 25.6541C47.9858 25.3827 48.0086 25.366 48.5987 25.4661C48.9547 25.5264 49.1247 25.52 48.9763 25.4517C48.4298 25.2004 48.7308 24.9417 49.5697 24.9417C50.1146 24.9417 50.434 25.0387 50.4361 25.2048C50.4385 25.3985 50.4884 25.3926 50.6249 25.1824C50.7415 25.0029 50.8609 24.9764 50.9462 25.111C51.091 25.3397 51.3657 25.3219 52.0401 25.0402C52.2714 24.9436 52.7798 24.8582 53.1699 24.8505C54.0643 24.8328 54.3546 24.3101 53.4701 24.3101C53.1203 24.3101 52.7988 24.1731 52.7284 23.9942C52.6446 23.7811 52.7389 23.6784 53.0183 23.6784C53.246 23.6784 53.51 23.56 53.6049 23.4152C53.8524 23.0378 54.7318 22.5908 54.9582 22.7273C55.0638 22.791 55.2113 22.7469 55.2858 22.6291C55.3604 22.5115 55.6893 22.4152 56.0168 22.4152C56.3443 22.4152 57.1397 22.2613 57.7843 22.0733C58.8018 21.7764 58.8932 21.7082 58.4775 21.5561C58.2142 21.4598 56.4124 21.3937 54.4736 21.4094C52.5348 21.4253 50.8216 21.3615 50.6665 21.268C50.5059 21.1712 50.321 21.1983 50.2369 21.3311C50.0635 21.6048 43.3556 21.8123 43.1889 21.5491C43.1302 21.4566 42.9316 21.4373 42.7474 21.5062C42.5206 21.5911 42.4908 21.6788 42.6549 21.7778C42.7882 21.8581 42.6022 21.9239 42.2415 21.9239C41.8808 21.9239 41.5856 21.8334 41.5856 21.7227C41.5856 21.612 41.4376 21.6413 41.2567 21.7878C41.0758 21.9342 40.8588 21.9867 40.7744 21.9044C40.6901 21.8221 40.8623 21.5755 41.1573 21.3565L41.6935 20.9582L41.1541 21.0594C40.6813 21.148 40.668 21.1358 41.0462 20.9605C41.6685 20.672 42.6912 20.7019 43.2908 21.026C43.8751 21.342 44.6066 21.2379 44.6066 20.8388C44.6066 20.6549 45.0327 20.5723 46.0092 20.5669C46.8892 20.5621 47.4118 20.6454 47.4118 20.7905C47.4118 20.9178 47.5332 20.8666 47.6815 20.6769C47.8764 20.4277 48.4606 20.2943 49.7855 20.1967C50.7943 20.1224 52.2326 19.928 52.9817 19.7646C53.7308 19.6013 54.6533 19.4585 55.0316 19.4474C55.41 19.4362 56.2051 19.2978 56.7985 19.1397C57.8102 18.8701 57.696 18.8594 54.9643 18.9671C53.3621 19.0302 51.9055 19.0835 51.7275 19.0854C51.5495 19.0873 49.3161 19.3109 46.7645 19.5823C44.2128 19.8538 41.4309 20.1048 40.5825 20.1402C39.7341 20.1756 39.0844 20.2755 39.1387 20.3624C39.193 20.4492 38.819 20.5207 38.3076 20.5211C37.7962 20.5211 36.5039 20.6593 35.4357 20.827C33.6041 21.1147 29.2955 21.4113 29.8806 21.2094C30.0297 21.158 30.0968 21.0293 30.0297 20.9234C29.9626 20.8175 30.1805 20.7263 30.5139 20.7207C30.8473 20.7153 31.4599 20.5308 31.8753 20.3111C32.2907 20.0914 32.8247 19.8232 33.0621 19.7152C33.8423 19.3603 46.5691 17.306 49.5697 17.0507C50.4598 16.975 53.033 16.7253 55.288 16.4959C57.5429 16.2666 60.5192 15.987 61.9019 15.8746C63.2846 15.7622 64.8831 15.5331 65.4542 15.3654C66.2043 15.1452 66.5337 15.1257 66.6412 15.2954C66.7775 15.5106 69.0477 15.4517 71.7955 15.1617C72.2109 15.1178 73.5218 15.0228 74.7086 14.9504C76.8382 14.8206 80.0828 14.3839 81.8988 13.9826C82.4116 13.8693 82.9221 13.8314 83.0332 13.8984C83.1443 13.9654 84.6477 13.8114 86.3741 13.5562C88.9285 13.1786 89.605 13.1403 90.0069 13.3501C90.4109 13.5611 90.9284 13.5257 92.8544 13.1554C96.0606 12.5389 100.244 11.7374 102.329 11.3403C103.279 11.1595 104.658 10.8771 105.394 10.7129C106.131 10.5487 107.053 10.4148 107.444 10.4153C107.835 10.4153 108.592 10.2799 109.126 10.1132C110.026 9.8321 111.869 9.5201 116.787 8.81622C119.313 8.45462 119.822 8.37116 122.397 7.89619C123.584 7.6773 125.526 7.34185 126.713 7.15072C127.9 6.95959 129.162 6.75622 129.518 6.69879C132.038 6.29252 132.517 6.30007 133.019 6.75392C133.289 6.99881 133.51 7.30673 133.51 7.43819C133.51 7.56966 133.583 7.66599 133.672 7.65229C133.761 7.63871 134.056 7.63871 134.327 7.65229C134.739 7.67311 134.785 7.74163 134.604 8.07061C134.34 8.55223 134.551 8.812 134.947 8.49179C135.392 8.1315 135.29 8.45557 134.779 9.02998C134.51 9.33129 133.971 9.60144 133.474 9.68325C132.75 9.8027 132.667 9.86854 132.899 10.1413C133.247 10.5507 132.953 10.5761 146.781 8.94363C147.73 8.83153 149.43 8.69439 150.557 8.63886C151.685 8.58333 153.724 8.43816 155.089 8.31627C156.453 8.1944 158.25 8.05714 159.081 8.01126C159.911 7.96539 160.975 7.8297 161.444 7.70972C161.914 7.58977 163.776 7.48577 165.582 7.47866C167.388 7.47156 168.995 7.42349 169.152 7.37188C169.541 7.24453 174.597 6.98607 175.8 7.03208C176.332 7.05248 176.916 7.20017 177.098 7.36043C177.504 7.71951 178.54 7.75551 183.356 7.57799C185.571 7.49636 187.604 7.31078 188.271 7.12937C189.143 6.89266 190.588 6.82786 194.421 6.85359C197.177 6.8722 201.763 6.81573 204.611 6.72837C210.384 6.5513 210.075 6.54929 216.048 6.80228C219.915 6.96607 222.146 6.97287 225.542 6.83123C226.136 6.80648 226.451 6.74289 226.244 6.68993C226.036 6.63699 225.866 6.4946 225.866 6.37356C225.866 6.22838 226.472 6.19522 227.646 6.27613C228.626 6.34359 231.563 6.4948 234.174 6.61215C236.785 6.72952 240.135 6.92273 241.618 7.04152C247.579 7.51877 249.852 7.68698 252.947 7.87978C260.689 8.36203 264.77 8.55418 269.023 8.63673C270.981 8.67475 273.409 8.77041 274.418 8.84929C275.427 8.92818 276.932 8.98423 277.762 8.97384C278.593 8.96362 280.244 9.04813 281.431 9.16203C282.618 9.27594 286.461 9.41084 289.972 9.46184C293.483 9.51285 296.785 9.64692 297.309 9.75978C297.833 9.87264 299.025 10.0163 299.957 10.079C300.89 10.1417 301.958 10.2418 302.331 10.3014C303.607 10.5051 305.599 10.6436 308.512 10.7311C311.077 10.8082 313.569 10.9932 317.251 11.3798C317.845 11.4421 318.67 11.5195 319.085 11.5518C319.501 11.5842 320.569 11.6714 321.459 11.7457C322.349 11.8201 323.854 11.9388 324.803 12.0097C325.753 12.0805 326.578 12.1676 326.638 12.2033C326.697 12.239 327.298 12.3254 327.973 12.3954C328.648 12.4654 329.342 12.576 329.516 12.6411C329.69 12.7062 330.691 12.7876 331.742 12.8221C334.626 12.9169 334.622 12.9163 334.622 13.2566C334.622 13.4303 334.725 13.5724 334.85 13.5724C334.976 13.5724 335.009 13.4616 334.923 13.3261C334.817 13.1581 334.887 13.1246 335.144 13.2208C335.351 13.2984 335.734 13.3619 335.996 13.3619C336.317 13.3619 336.483 13.4987 336.505 13.783C336.543 14.2863 336.426 14.3104 335.994 13.8882C335.542 13.4475 335.037 13.4806 335.188 13.9409C335.263 14.1676 335.24 14.2188 335.128 14.074C335.004 13.9137 334.396 13.8836 333.219 13.9795C331.194 14.1447 329.666 14.0992 326.854 13.7902C325.726 13.6663 324.27 13.514 323.617 13.4518C322.964 13.3895 322.317 13.3024 322.178 13.2582C322.04 13.2141 321.87 13.3216 321.801 13.4972C321.708 13.7337 321.503 13.7796 321.011 13.6741C320.238 13.5084 319.741 13.4455 317.683 13.2522C316.852 13.1741 316.114 13.0755 316.043 13.0329C315.892 12.9421 313.006 12.9272 309.051 12.9968C306.542 13.0409 304.773 12.9203 303.453 12.6154C302.71 12.4436 297.507 12.3692 297.507 12.5305C297.507 12.6134 298.162 12.7496 298.963 12.8333C299.764 12.917 300.614 13.0228 300.852 13.0685C302.517 13.3889 306.976 13.748 310.562 13.8505C311.393 13.8743 312.175 13.9578 312.301 14.0362C312.509 14.1666 319.117 14.6693 319.471 14.5818C319.556 14.561 320.353 14.6102 321.243 14.6912C322.619 14.8164 326.134 15.0685 327.015 15.1052C327.334 15.1184 327.372 15.3902 327.079 15.5666C326.869 15.6932 325.243 15.7225 323.771 15.6261C323.321 15.5966 322.875 15.4479 322.778 15.2954C322.648 15.0893 322.277 15.0548 321.33 15.161C320.629 15.2395 319.991 15.3413 319.912 15.3874C319.833 15.4335 319.62 15.3275 319.44 15.1518C319.26 14.9762 319.061 14.9136 318.999 15.0127C318.877 15.2051 314.521 15.1232 313.259 14.9047C312.844 14.8329 312.112 14.7545 311.632 14.7306C311.153 14.7068 310.546 14.5752 310.283 14.4382C309.902 14.2391 309.807 14.2456 309.807 14.4704C309.807 14.6358 309.518 14.7742 309.105 14.8067C307.399 14.941 305.011 14.9283 303.117 14.7748C301.755 14.6644 301.174 14.6782 301.385 14.816C302.235 15.3717 300.639 15.6458 298.154 15.3708C295.951 15.127 295.557 15.1142 294.605 15.2551C294.114 15.3279 293.425 15.3124 293.074 15.2206C292.15 14.9791 287.346 14.5512 285.207 14.52C284.198 14.5053 282.742 14.4284 281.97 14.3492C281.199 14.2701 279.645 14.1567 278.518 14.0972C277.39 14.0378 274.72 13.8499 272.584 13.6796C270.447 13.5094 267.27 13.3064 265.523 13.2286C262.675 13.1018 262.331 13.1235 262.208 13.4378C262.09 13.7367 261.715 13.7871 259.666 13.7794C258.344 13.7746 256.826 13.8473 256.292 13.9412L255.321 14.112L256.939 14.3468C257.829 14.4759 258.897 14.579 259.313 14.5758C259.728 14.5724 261.428 14.7167 263.089 14.8961C264.751 15.0754 267.907 15.3279 270.102 15.4571C272.298 15.5864 274.31 15.7375 274.574 15.793C274.838 15.8484 277.023 15.986 279.429 16.0987C283.754 16.3013 286.784 16.4666 289.091 16.6259C289.744 16.671 291.983 16.8038 294.067 16.9211C296.151 17.0383 297.996 17.1765 298.167 17.228C298.338 17.2796 298.672 17.3935 298.909 17.481C299.147 17.5686 299.714 17.6665 300.171 17.6987C300.627 17.7309 301.113 17.9074 301.25 18.091C301.449 18.3561 302.011 18.436 303.981 18.4793C305.346 18.5092 306.559 18.592 306.678 18.6631C306.796 18.7343 307.622 18.8482 308.512 18.9161C312.767 19.241 317.021 19.5048 318.977 19.5653C320.164 19.602 322.689 19.7974 324.588 19.9996C326.487 20.2018 328.914 20.3987 329.983 20.4372C337.375 20.7032 343.28 21.0382 346.382 21.3677C347.45 21.4811 349.323 21.6349 350.543 21.7093C351.763 21.7838 352.812 21.9257 352.875 22.0247C352.938 22.1237 352.668 22.2124 352.275 22.2218C351.882 22.2313 351.287 22.2583 350.952 22.2821C350.617 22.3058 350.3 22.2586 350.249 22.1771C350.197 22.0956 349.796 22.1257 349.358 22.2438C348.913 22.3637 347.936 22.3972 347.148 22.3196C346.371 22.2431 342.239 22.1435 337.967 22.0982C333.694 22.0529 328.596 21.9546 326.638 21.8798C323.147 21.7466 322.158 21.8281 324.448 22.0603C325.083 22.1247 325.65 22.2233 325.707 22.2793C325.861 22.4294 325.072 22.8009 324.418 22.8865C323.655 22.9861 323.414 23.2528 324.066 23.2757C324.353 23.2857 325.85 23.3822 327.393 23.4902C328.936 23.5981 331.97 23.7424 334.136 23.8108C337.697 23.9233 338.074 23.9706 338.074 24.3042C338.074 24.7673 338.943 24.8768 344.178 25.0737C346.29 25.1531 348.067 25.298 348.129 25.3957C348.191 25.4934 348.667 25.5734 349.187 25.5734C350.96 25.5734 350.463 26.1547 348.286 26.6284C347.671 26.7621 346.846 26.854 346.451 26.8327C343.823 26.6906 344.513 27.1051 347.461 27.4398C348.648 27.5746 350.299 27.7307 351.129 27.7868C351.96 27.8429 353.465 27.9832 354.474 28.0986C355.483 28.214 357.522 28.371 359.006 28.4473C360.832 28.5414 361.773 28.6752 361.919 28.862C362.038 29.0149 362.808 29.1991 363.645 29.275C364.476 29.3504 365.253 29.5278 365.371 29.6692C365.49 29.8106 366.296 29.9902 367.163 30.0683C368.03 30.1464 368.957 30.3495 369.223 30.5195C369.528 30.7144 370.461 30.863 371.747 30.9214C374.519 31.0473 376.691 31.2846 376.812 31.4746C376.938 31.6744 375.049 31.9598 374.759 31.7847C374.64 31.7129 374.542 31.744 374.542 31.8538C374.542 31.9635 374.882 32.1155 375.297 32.1916C376.118 32.3417 376.273 32.6036 375.675 32.8296C374.97 33.0963 375.957 33.5187 378.175 33.8998C380.038 34.2199 381.216 34.6155 380.358 34.6331C379.551 34.6496 380.796 35.0207 382.093 35.1501C382.862 35.227 383.605 35.3812 383.743 35.4929C383.881 35.6046 384.608 35.7925 385.358 35.9105C387.444 36.2382 387.421 36.5015 385.294 36.6646C384.499 36.7256 383.772 36.9062 383.554 37.0971C383.247 37.3649 382.872 37.3969 381.504 37.2722C378.721 37.0187 378.17 37.068 377.753 37.6082C377.548 37.8725 377.423 38.1551 377.474 38.2361C377.526 38.3171 378.222 38.4497 379.022 38.5308C379.822 38.6118 380.573 38.7525 380.692 38.8434C380.811 38.9343 381.369 39.0756 381.933 39.1575C383.48 39.3823 383.162 39.6797 381.375 39.6797C380.505 39.6797 379.719 39.7507 379.63 39.8376C379.54 39.9244 378.635 39.9955 377.618 39.9955C376.333 39.9955 375.742 40.0756 375.678 40.2587C375.614 40.439 375.845 40.5222 376.412 40.523C376.867 40.5234 377.579 40.6111 377.995 40.7173C378.41 40.8236 379.572 40.9704 380.576 41.0437C381.581 41.1169 382.513 41.2655 382.646 41.3739C382.78 41.4823 382.946 41.5157 383.015 41.4483C383.084 41.3808 383.367 41.4043 383.643 41.5005C384.03 41.6355 383.8 41.706 382.634 41.8095C381.258 41.9317 379.688 42.239 378.858 42.5487C378.331 42.7453 379.15 42.9613 381.609 43.2741C382.826 43.4288 383.821 43.6116 383.821 43.6803C383.821 43.749 384.452 43.766 385.224 43.7181C386.351 43.648 386.626 43.6913 386.626 43.9387C386.626 44.3203 385.943 44.9444 385.53 44.94C385.276 44.9374 385.279 44.9015 385.547 44.7327C385.822 44.559 385.813 44.5281 385.486 44.5254C385.275 44.5235 385.044 44.6692 384.973 44.8489C384.864 45.1273 384.474 45.1593 382.337 45.0655C379.659 44.948 379.001 45.0873 379.494 45.6673C380.32 46.6387 383.69 47.6803 386.006 47.6803C387.406 47.6803 388.136 47.9357 388.136 48.4246C388.136 48.6694 387.791 48.732 386.464 48.728C385.544 48.7253 384.403 48.6232 383.929 48.5012C383.454 48.3793 381.217 48.2365 378.958 48.1841C374.963 48.0913 374.85 48.1003 374.818 48.512C374.787 48.9169 375.05 49.2085 375.513 49.2816C375.632 49.3003 376.563 49.4689 377.582 49.6563C380.917 50.2695 383.878 50.643 386.909 50.8328C389.717 51.0087 390.675 51.2498 390.385 51.7079C390.319 51.8125 390.172 51.8421 390.058 51.7737C389.945 51.7053 389.879 51.7748 389.911 51.9281C389.944 52.0823 389.803 52.1941 389.595 52.1781C389.389 52.1622 389.267 52.2229 389.324 52.3129C389.381 52.4029 389.098 52.5369 388.695 52.6107C387.824 52.7701 387.618 53.1496 388.064 53.7709C388.301 54.102 388.327 54.2994 388.157 54.4987C387.879 54.8256 388.061 55.0493 388.604 55.0493C388.822 55.0493 389 55.0889 389 55.1373C389 55.1858 389.064 55.3893 389.143 55.5896C389.274 55.9242 389.13 55.9424 387.363 55.8142C386.305 55.7374 385.075 55.6182 384.63 55.5494C383.986 55.4498 383.821 55.4913 383.821 55.7527C383.821 55.9333 383.664 56.1665 383.473 56.271C382.979 56.5407 383.276 57.7538 383.895 57.9976C384.338 58.172 384.34 58.1821 383.929 58.2089C383.497 58.237 383.497 58.237 383.929 58.418C384.35 58.5945 383.762 58.6699 381.555 58.7225C380.635 58.7444 379.937 59.0278 379.937 59.3796C379.937 59.5676 379.713 59.6823 379.343 59.6841C379.017 59.686 378.529 59.7447 378.259 59.8152C377.799 59.9355 377.792 59.961 378.151 60.2267C378.362 60.3825 378.8 60.513 379.124 60.5167C379.449 60.5205 380.355 60.855 381.138 61.2603C381.928 61.6691 382.876 61.9972 383.268 61.9972C384.575 61.9972 386.615 62.2652 386.514 62.4239C386.46 62.5104 386.58 62.5683 386.782 62.5524C386.984 62.5365 387.184 62.6868 387.226 62.8863C387.324 63.3496 386.05 64.1483 385.393 64.0354C385.13 63.9902 384.879 64.0566 384.836 64.1829C384.735 64.4808 382.216 64.565 381.209 64.3042C380.781 64.1935 378.572 64.0772 376.3 64.0458C372.458 63.9928 371.325 64.1003 372.762 64.3816C373.088 64.4455 373.792 64.5942 374.326 64.7121C374.86 64.83 375.71 64.9305 376.214 64.9356C376.719 64.9407 377.131 65.0395 377.131 65.1553C377.131 65.2711 377.283 65.3659 377.469 65.3659C377.655 65.3659 378.007 65.4699 378.25 65.5972C378.688 65.826 378.687 65.8312 378.182 66.0771C377.297 66.5077 377.571 66.9139 379.059 67.3755C379.822 67.6123 380.492 67.9439 380.548 68.1124C380.603 68.2809 380.735 68.4737 380.839 68.5408C381.169 68.7521 380.774 69.4017 380.401 69.2618C380.212 69.1912 380.117 69.1915 380.19 69.2626C380.263 69.3336 380.078 69.6306 379.778 69.9225C379.385 70.3064 378.979 70.4628 378.311 70.4881C377.803 70.5072 377.427 70.5849 377.475 70.6606C377.523 70.7363 376.633 70.7519 375.497 70.6951C373.846 70.6126 373.359 70.6559 373.07 70.9111C372.668 71.2655 370.549 71.4116 369.443 71.1611C369.021 71.0655 368.713 71.095 368.621 71.2399C368.541 71.3674 368.245 71.4717 367.965 71.4717C367.316 71.4717 366.774 71.6736 366.774 71.9153C366.774 72.0187 366.915 72.1033 367.087 72.1033C367.259 72.1033 367.482 72.247 367.583 72.4225C367.696 72.6206 368.54 72.8887 369.805 73.1289C372.298 73.6022 374.134 74.3258 373.96 74.767C373.893 74.9364 373.701 75.0234 373.532 74.9601C373.363 74.8969 373.279 74.9308 373.345 75.0355C373.412 75.1401 373.211 75.521 372.9 75.8817C372.484 76.3646 372.22 76.5023 371.901 76.4034C371.66 76.3289 371.521 76.3545 371.588 76.4608C371.655 76.5662 371.372 76.6619 370.959 76.6733C370.547 76.6847 369.527 76.857 368.694 77.0562L367.18 77.4183L367.662 77.919C367.927 78.1943 368.233 78.4196 368.343 78.4196C368.453 78.4196 368.876 78.5739 369.283 78.7624C369.993 79.0912 370.01 79.1254 369.696 79.5936C369.489 79.9013 369.448 80.1303 369.585 80.2127C369.704 80.2847 369.739 80.4419 369.663 80.562C369.574 80.703 369.458 80.6791 369.336 80.4948C369.214 80.3095 369.09 80.2846 368.986 80.424C368.896 80.5422 368.532 80.7759 368.176 80.9434L367.529 81.2481L368.212 81.3196C368.951 81.3971 369.347 81.9374 368.811 82.138C368.63 82.2058 368.428 82.209 368.362 82.145C368.296 82.081 367.92 82.2058 367.525 82.4223C367.13 82.6388 366.437 82.8835 365.986 82.966C365.535 83.0486 365.035 83.2437 364.876 83.3996C364.497 83.7689 364.349 83.7608 362.344 83.2605C360.544 82.8114 360.037 82.8533 359.299 83.5117C358.882 83.8831 358.714 83.9014 357.587 83.6981C356.108 83.4313 353.322 83.3971 353.48 83.6477C353.542 83.744 354.3 83.9407 355.166 84.0847C357.371 84.4517 357.62 84.5305 357.257 84.749C356.629 85.1276 359.441 86.0213 362.189 86.3166C362.931 86.3964 363.585 86.5359 363.642 86.6267C363.7 86.7175 363.543 87.0444 363.294 87.3531C362.876 87.8717 362.868 87.9431 363.189 88.2892C363.38 88.4954 363.537 88.7158 363.537 88.7792C363.537 89.0394 359.883 88.6649 358.682 88.2817C356.954 87.7305 353.457 87.3283 353.134 87.6436C352.963 87.8104 352.961 87.9536 353.128 88.15C353.354 88.4153 353.7 88.5288 356.578 89.2812C357.475 89.5158 357.926 89.7399 357.926 89.9509C357.926 90.2176 357.672 90.2455 356.325 90.1264C355.3 90.0358 354.675 90.0631 354.586 90.2027C354.51 90.3225 354.567 90.4205 354.713 90.4205C354.858 90.4205 354.927 90.4695 354.866 90.5294C354.721 90.6706 351.665 90.0448 351.361 89.8118C351.122 89.6286 347.971 89.1551 347.299 89.2014C347.091 89.2157 346.921 89.346 346.921 89.4909C346.921 89.6358 346.871 89.8821 346.81 90.0382C346.704 90.3078 349.339 90.853 353.88 91.5008C354.562 91.5981 355.472 91.8212 355.902 91.9965C356.333 92.1719 356.988 92.3159 357.359 92.3165C358.337 92.3184 359.74 92.7352 359.514 92.9565C359.409 93.0589 358.094 93.1698 356.593 93.2028C355.092 93.2358 353.88 93.2789 353.9 93.2985C353.919 93.3181 354.416 93.5181 355.002 93.7429C356.023 94.1343 356.048 94.1623 355.581 94.406C355.216 94.5969 354.825 94.6042 354.018 94.4353C352.705 94.1605 352.532 94.1569 352.532 94.404C352.532 94.5106 352.822 94.66 353.177 94.736C354.356 94.9888 354.101 95.2629 352.686 95.2629C351.862 95.2629 351.029 95.3964 350.624 95.5934C350.215 95.7926 349.756 95.8651 349.468 95.776C348.852 95.5853 338.721 95.5126 338.839 95.6997C339.09 96.096 336.26 96.0939 333.844 95.6959C328.953 94.8902 324.791 94.4323 322.106 94.4042C320.623 94.3888 318.389 94.2459 317.143 94.0868C315.897 93.9276 313.677 93.6998 312.21 93.5804C310.742 93.461 309.48 93.3269 309.404 93.2823C309.329 93.2378 308.539 93.1409 307.648 93.0669C306.758 92.993 305.69 92.8925 305.275 92.8435C304.41 92.7415 300.473 92.5273 297.614 92.4267C295.547 92.354 292.404 92.1603 290.278 91.9746C289.566 91.9124 286.798 91.8211 284.128 91.7717C281.458 91.7223 278.302 91.6042 277.115 91.5093C275.928 91.4144 272.646 91.3462 269.821 91.3577C265.549 91.3751 264.65 91.4309 264.48 91.689C264.307 91.9522 264.246 91.9548 264.082 91.7055C263.953 91.5098 263.675 91.4533 263.25 91.5362C262.898 91.6048 262.506 91.5573 262.376 91.4302C262.246 91.3035 261.819 91.1798 261.428 91.1553C261.036 91.1309 260.521 91.0548 260.284 90.9863C258.99 90.6126 257.643 90.504 257.1 90.7296C256.665 90.9107 255.577 90.6967 255.727 90.4595C255.783 90.3721 254.743 90.2751 253.416 90.244C249.845 90.1602 249.474 90.1219 249.07 89.7946C248.742 89.5285 248.709 89.5407 248.774 89.9052C248.823 90.1829 248.743 90.2908 248.523 90.2401C248.345 90.199 247.981 90.1635 247.714 90.1612C247.447 90.1589 247.229 90.0843 247.229 89.9953C247.229 89.9064 247.072 89.775 246.881 89.7034C246.628 89.6089 246.569 89.6634 246.663 89.9024C246.752 90.1292 246.709 90.18 246.525 90.0658C246.378 89.9747 245.335 89.8704 244.208 89.834C241.837 89.7576 242.189 89.7586 231.045 89.7969C226.357 89.813 221.921 89.7578 221.187 89.6742C220.453 89.5905 219.69 89.5832 219.49 89.6579C219.123 89.7954 212.074 90.0669 209.908 90.027C208.214 89.9957 206.293 90.9673 207.362 91.3148C207.521 91.3666 207.411 91.5155 207.092 91.6796C206.796 91.8322 206.499 92.0369 206.433 92.1347C206.195 92.488 204.363 92.6851 203.843 92.4134C203.515 92.2422 202.646 92.1807 201.28 92.232C200.143 92.2747 196.409 92.3596 192.982 92.4207C189.555 92.4818 186.515 92.5895 186.227 92.6601C185.938 92.7307 184.713 92.8029 183.504 92.8206C182.295 92.8384 181.112 92.9594 180.875 93.0895C180.45 93.3224 178.449 93.7047 178.114 93.6169C177.701 93.5088 176.934 93.536 176.235 93.6836C175.82 93.7713 175.286 93.8271 175.048 93.8077C174.811 93.7883 174.423 93.7558 174.185 93.7353C173.948 93.7149 172.831 93.8094 171.704 93.9454C170.576 94.0814 169.234 94.1907 168.721 94.1883C168.208 94.186 167.674 94.2736 167.534 94.3831C167.395 94.4927 166.965 94.6482 166.579 94.7287C166.005 94.8484 165.878 94.8103 165.878 94.5187C165.878 94.203 165.699 94.1794 164.313 94.3114C163.453 94.3934 161.195 94.4822 159.296 94.5089C157.397 94.5356 155.321 94.6687 154.681 94.8048C154.042 94.9408 153.472 95.0521 153.414 95.0521C153.356 95.0521 153.43 95.1942 153.578 95.3679C153.726 95.5416 154.174 95.6837 154.575 95.6837C154.976 95.6837 155.304 95.7233 155.304 95.7718C155.304 95.8202 155.363 96.0097 155.435 96.1928C155.615 96.6496 155.007 96.6271 154.528 96.1593C154.256 95.8942 154.127 95.8654 154.062 96.0553C154.013 96.1997 153.884 96.2644 153.775 96.1989C153.667 96.1335 153.578 96.1566 153.578 96.2503C153.578 96.344 153.359 96.4322 153.092 96.4464C152.825 96.4606 151.345 96.5795 149.802 96.7105C148.259 96.8416 145.151 96.9868 142.897 97.0332C140.642 97.0795 138.554 97.1694 138.257 97.2329C137.252 97.4481 131.725 97.9469 128.763 98.0898C123.274 98.3547 119.113 99.1206 118.255 100.024C117.987 100.306 117.514 100.535 117.174 100.545C114.382 100.634 110.504 100.918 108.802 101.158C108.09 101.258 106.841 101.399 106.026 101.47C105.212 101.541 104.058 101.689 103.462 101.799C102.866 101.91 102.343 102 102.299 102C102.256 102 102.221 101.758 102.221 101.461L102.221 101.462ZM102.221 99.5459C102.221 99.3156 102.126 99.2984 101.798 99.4696C101.544 99.6018 101.424 99.8188 101.499 100.009C101.595 100.254 101.693 100.271 101.923 100.085C102.087 99.9521 102.221 99.7095 102.221 99.5459ZM138.581 96.4145C139.425 96.119 139.404 96.1147 137.61 96.2173C133.502 96.4524 132.215 96.5714 132.215 96.7166C132.215 96.9913 137.673 96.7322 138.581 96.4145ZM38.3487 93.8719C38.3487 93.8264 38.203 93.7892 38.025 93.7892C37.847 93.7892 37.7013 93.881 37.7013 93.9931C37.7013 94.1053 37.847 94.1425 38.025 94.0759C38.203 94.0092 38.3487 93.9174 38.3487 93.8719ZM53.9931 93.1576C54.0684 93.0387 53.8917 92.947 53.587 92.947C53.2903 92.947 52.9875 93.0418 52.9142 93.1576C52.8388 93.2765 53.0156 93.3681 53.3203 93.3681C53.617 93.3681 53.9197 93.2734 53.9931 93.1576ZM43.7433 92.0803C43.7433 91.8631 43.4849 91.8427 43.0057 92.0221C42.4642 92.2248 42.6096 92.4778 43.2038 92.3669C43.5005 92.3116 43.7433 92.1826 43.7433 92.0803ZM165.842 92.046C166.579 91.8459 166.68 91.769 166.317 91.6851C165.741 91.552 158.876 91.8334 155.196 92.1409C154.197 92.2245 161.918 92.4286 163.504 92.3605C164.275 92.3274 165.328 92.1859 165.842 92.046ZM173.322 91.3981C173.56 91.3433 173.123 91.3062 172.351 91.3156C170.51 91.3381 169.781 91.5315 170.949 91.6878C171.423 91.7514 172.055 91.7346 172.351 91.6505C172.648 91.5665 173.085 91.4529 173.322 91.3981V91.3981ZM35.6151 91.4599C36.0594 91.4473 36.0565 91.4363 35.5575 91.2418C34.9692 91.0124 34.4645 91.1267 34.4645 91.4892C34.4645 91.6212 34.6178 91.6715 34.8059 91.6011C34.9936 91.5308 35.3577 91.4673 35.6151 91.4599ZM176.564 91.2229C176.622 91.1666 176.238 91.1046 175.71 91.0852C175.183 91.0657 174.685 91.1557 174.603 91.2852C174.498 91.4506 174.752 91.4915 175.456 91.4229C176.008 91.3692 176.506 91.2792 176.564 91.2229ZM345.303 88.7362C345.386 88.6058 345.041 88.5352 344.399 88.5506C343.477 88.5727 343.434 88.5935 344.008 88.7362C344.953 88.9706 345.155 88.9706 345.303 88.7362ZM12.7107 85.6448C12.5549 85.584 12.3688 85.5915 12.2971 85.6614C12.2254 85.7314 12.3528 85.7812 12.5803 85.772C12.8317 85.7619 12.8828 85.712 12.7107 85.6448V85.6448ZM15.2597 85.3675C15.6933 85.232 15.7145 85.1978 15.3675 85.1928C15.1302 85.1894 14.7418 85.268 14.5044 85.3675C13.9545 85.5981 14.5218 85.5981 15.2597 85.3675ZM18.1551 85.4503C18.3428 85.38 18.4964 85.1522 18.4964 84.944C18.4964 84.6215 18.3607 84.582 17.5793 84.6773C16.5878 84.7982 15.9408 85.157 16.7143 85.157C16.9684 85.157 17.2363 85.2517 17.3096 85.3675C17.4631 85.6099 17.6738 85.6305 18.1551 85.4503ZM368.716 81.7883C368.716 81.6725 368.546 81.5792 368.338 81.581C368.015 81.5837 368.008 81.6139 368.284 81.7883C368.691 82.0451 368.716 82.0451 368.716 81.7883ZM23.4999 73.2228C23.3442 73.162 23.1581 73.1695 23.0864 73.2394C23.0147 73.3094 23.1421 73.3592 23.3696 73.35C23.621 73.3399 23.6721 73.29 23.4999 73.2228V73.2228ZM21.7332 72.6085C21.7332 72.2654 21.1331 72.2268 20.3447 72.5193C19.4864 72.8377 19.6901 73.0617 20.7622 72.9785C21.4136 72.928 21.7332 72.8062 21.7332 72.6085ZM25.7413 72.7604C25.5259 72.4203 24.7542 72.3335 24.7542 72.6495C24.7542 72.8268 24.9757 72.9456 25.3064 72.9456C25.6101 72.9456 25.8058 72.8622 25.7413 72.7604ZM24.1068 72.5245C24.3476 72.3727 24.2232 72.3195 23.6213 72.3171C23.1763 72.3152 22.8121 72.4087 22.8121 72.5245C22.8121 72.7926 23.6816 72.7926 24.1068 72.5245ZM383.821 47.891C383.821 47.7752 383.724 47.6805 383.605 47.6805C383.486 47.6805 383.389 47.7752 383.389 47.891C383.389 48.0068 383.486 48.1016 383.605 48.1016C383.724 48.1016 383.821 48.0068 383.821 47.891ZM385.385 43.9618C385.237 43.9034 384.994 43.9034 384.846 43.9618C384.697 44.0202 384.819 44.068 385.115 44.068C385.412 44.068 385.534 44.0202 385.385 43.9618ZM382.148 41.4262C381.881 41.376 381.444 41.376 381.177 41.4262C380.91 41.4764 381.129 41.5174 381.663 41.5174C382.197 41.5174 382.415 41.4764 382.148 41.4262ZM372.168 39.7265C372.168 39.6364 371.367 39.4503 370.388 39.313C369.409 39.1756 368.374 38.9976 368.089 38.9173C367.766 38.8267 367.619 38.8503 367.701 38.9797C367.774 39.0943 368.687 39.3085 369.731 39.4559C370.775 39.6032 371.726 39.7537 371.845 39.7904C371.963 39.8272 372.085 39.8647 372.114 39.8738C372.144 39.8829 372.168 39.8167 372.168 39.7265ZM57.4457 37.785C57.831 37.6234 57.815 37.6025 57.2966 37.5893C56.9772 37.5811 56.6559 37.6692 56.5825 37.785C56.4233 38.0364 56.8462 38.0364 57.4457 37.785ZM370.658 36.5515C370.658 36.452 369.683 36.2625 368.492 36.1304C365.809 35.8327 365.328 35.8267 365.602 36.0944C365.717 36.2067 366.878 36.3829 368.181 36.486C369.484 36.5891 370.574 36.6867 370.604 36.7029C370.634 36.7191 370.658 36.6509 370.658 36.5515V36.5515ZM45.3395 34.0303C45.4006 33.9338 45.3092 33.8549 45.1364 33.8549C44.9636 33.8549 44.8222 33.9338 44.8222 34.0303C44.8222 34.1268 44.9136 34.2058 45.0253 34.2058C45.1369 34.2058 45.2783 34.1268 45.3395 34.0303ZM74.2095 33.6409C74.0537 33.5801 73.8676 33.5875 73.7959 33.6575C73.7242 33.7274 73.8516 33.7772 74.0791 33.7681C74.3305 33.7579 74.3816 33.7081 74.2095 33.6409V33.6409ZM40.7223 33.3636C40.7223 33.2478 40.5524 33.1545 40.3447 33.1563C40.022 33.159 40.0141 33.1892 40.2907 33.3636C40.698 33.6204 40.7223 33.6204 40.7223 33.3636ZM41.5854 33.0354C41.5854 32.9843 41.4883 32.9425 41.3697 32.9425C41.251 32.9425 41.1539 33.0429 41.1539 33.1655C41.1539 33.2881 41.251 33.3299 41.3697 33.2583C41.4883 33.1868 41.5854 33.0864 41.5854 33.0354ZM53.8852 31.5694C54.1819 31.4885 55.1044 31.3432 55.9352 31.2466C56.7659 31.1499 57.7855 30.9707 58.2009 30.8483C58.6163 30.7259 58.9562 30.6337 58.9562 30.6434C58.9562 30.7241 60.4342 30.2736 61.1679 29.9692C62.2812 29.5075 62.3515 29.1528 61.3298 29.1528C60.8023 29.1528 60.5745 29.0575 60.5745 28.837C60.5745 28.5132 61.5403 28.3852 63.1434 28.4965C63.8418 28.545 65.8345 28.1821 66.2907 27.9234C66.6314 27.7301 65.5425 27.5122 64.122 27.4894C63.1978 27.4745 62.4104 27.6228 61.4377 27.9948C60.6806 28.2843 59.8611 28.5226 59.6165 28.5244C59.2624 28.527 59.2357 28.567 59.4853 28.721C59.6577 28.8274 59.8761 28.8677 59.9708 28.8106C60.0655 28.7535 60.143 28.7965 60.143 28.9059C60.143 29.0944 59.6706 29.2275 58.0225 29.5035C57.6277 29.5696 57.2522 29.757 57.1881 29.92C57.0928 30.1622 57.0098 30.1673 56.7327 29.9477C56.4489 29.7228 56.4145 29.733 56.5209 30.0109C56.6139 30.2536 56.5232 30.3332 56.1837 30.3075C55.9283 30.2881 55.3972 30.3583 55.0033 30.4633C54.5068 30.5958 54.1926 30.5776 53.9784 30.4041C53.8046 30.2634 53.6694 30.2448 53.6694 30.3617C53.6694 30.5939 52.0253 31.2582 51.4504 31.2582C51.2467 31.2582 51.08 31.3877 51.08 31.5461C51.08 31.7604 51.3694 31.8189 52.2129 31.7752C52.8359 31.743 53.5885 31.6504 53.8852 31.5695V31.5694ZM62.7619 23.9339C62.6062 23.8833 62.3763 23.9419 62.2509 24.0643C62.0907 24.2205 62.175 24.2479 62.5339 24.1563C62.8257 24.0819 62.9235 23.9865 62.7619 23.9339ZM323.4 23.0997C323.4 23.0128 323.105 22.9216 322.745 22.897C322.371 22.8714 322.146 22.9389 322.219 23.0549C322.369 23.2924 323.401 23.3315 323.4 23.0997ZM63.3797 21.7733L63.9192 21.7571L63.4159 21.5603C62.8473 21.3379 61.8693 21.5092 61.8693 21.8312C61.8693 21.9486 62.0863 21.9867 62.3548 21.9165C62.6218 21.8467 63.083 21.7823 63.3797 21.7733ZM321.675 21.8189C321.675 21.7224 321.529 21.6434 321.351 21.6434C321.173 21.6434 321.027 21.7224 321.027 21.8189C321.027 21.9154 321.173 21.9943 321.351 21.9943C321.529 21.9943 321.675 21.9154 321.675 21.8189ZM322.578 21.8505C322.422 21.7897 322.236 21.7972 322.165 21.8671C322.093 21.9371 322.22 21.9868 322.448 21.9777C322.699 21.9676 322.75 21.9177 322.578 21.8505V21.8505ZM67.0886 21.4294C66.9328 21.3686 66.7467 21.3761 66.675 21.446C66.6033 21.516 66.7307 21.5658 66.9582 21.5566C67.2096 21.5465 67.2607 21.4966 67.0886 21.4294V21.4294ZM42.8802 21.1522C42.8802 21.0364 42.7831 20.9416 42.6644 20.9416C42.5457 20.9416 42.4486 21.0364 42.4486 21.1522C42.4486 21.268 42.5457 21.3627 42.6644 21.3627C42.7831 21.3627 42.8802 21.268 42.8802 21.1522ZM48.4906 20.6C48.4906 20.3641 48.0853 20.571 47.9693 20.8661C47.8556 21.1551 47.8872 21.1681 48.162 20.9456C48.3427 20.7993 48.4906 20.6437 48.4906 20.6ZM50.6484 20.6258C50.6484 20.4521 50.6102 20.31 50.5636 20.31C50.517 20.31 50.4229 20.4521 50.3546 20.6258C50.2863 20.7995 50.3244 20.9416 50.4394 20.9416C50.5544 20.9416 50.6484 20.7995 50.6484 20.6258ZM333.152 13.4288C332.996 13.368 332.81 13.3755 332.738 13.4454C332.666 13.5154 332.794 13.5652 333.021 13.556C333.273 13.5459 333.324 13.496 333.152 13.4288V13.4288ZM134.472 9.16578C134.54 9.05798 134.507 8.91641 134.399 8.85119C134.291 8.78593 134.147 8.87415 134.079 9.04717C133.945 9.38828 134.269 9.48614 134.472 9.16578ZM32.0481 99.5265C31.9239 99.3817 31.907 99.2604 32.0105 99.2569C32.1141 99.2535 32.0172 99.1476 31.7953 99.0218C31.226 98.699 31.7303 98.4224 32.8461 98.4453C33.4289 98.4573 33.5691 98.5076 33.2777 98.6C32.8666 98.7305 32.5601 99.2665 32.9001 99.2604C33.5337 99.2491 33.9913 98.974 33.8925 98.6636C33.7961 98.3605 33.8219 98.3631 34.0931 98.6843C34.4616 99.1207 36.1037 99.2011 36.2456 98.7896C36.3177 98.5806 36.4055 98.582 36.6719 98.7965C37.0919 99.1347 37.3398 99.9565 36.983 99.828C36.844 99.778 36.7617 99.6094 36.8002 99.4535C36.8491 99.2551 36.75 99.2759 36.4708 99.5225C36.1519 99.8041 35.689 99.8665 34.1726 99.8324C32.9668 99.8053 32.1915 99.6936 32.0481 99.5265L32.0481 99.5265ZM29.0859 99.0624C28.7985 98.8891 28.9367 98.4211 29.2753 98.4211C29.5215 98.4211 29.7376 99.0156 29.5357 99.1374C29.4462 99.1914 29.2438 99.1576 29.0859 99.0624ZM33.6515 97.3684C33.4128 96.9955 33.4377 96.9437 33.8693 96.9153C34.1373 96.8976 34.5023 96.8677 34.6803 96.8488C35.2559 96.7876 35.3642 96.98 34.9846 97.3893C34.505 97.9064 33.9906 97.8983 33.6515 97.3684ZM164.367 95.8018C164.367 95.7507 164.464 95.6504 164.583 95.5788C164.702 95.5072 164.799 95.549 164.799 95.6716C164.799 95.7943 164.702 95.8946 164.583 95.8946C164.464 95.8946 164.367 95.8528 164.367 95.8018ZM166.899 95.658C167.045 95.5141 167.22 95.4494 167.286 95.5142C167.352 95.579 167.233 95.6967 167.02 95.7758C166.712 95.8901 166.688 95.8659 166.899 95.658ZM51.08 95.0782C51.08 94.9766 51.2298 94.7722 51.4128 94.624C51.6716 94.4144 51.8032 94.4107 52.0044 94.6069C52.2056 94.8033 52.1916 94.9036 51.9413 95.058C51.5344 95.309 51.08 95.3197 51.08 95.0782V95.0782ZM294.701 93.1576C294.701 93.0418 294.841 92.947 295.012 92.947C295.183 92.947 295.383 93.0418 295.457 93.1576C295.53 93.2734 295.39 93.3681 295.146 93.3681C294.901 93.3681 294.701 93.2734 294.701 93.1576ZM291.033 92.9339C291.033 92.6943 291.613 92.6699 291.761 92.9033C291.819 92.9951 291.679 93.0839 291.45 93.1008C291.221 93.1176 291.033 93.0425 291.033 92.9339ZM77.0377 92.5942C76.8435 92.1005 77.1394 92.028 77.8852 92.3867C78.2743 92.5738 78.4955 92.7411 78.3768 92.7586C77.4674 92.892 77.139 92.8517 77.0377 92.5942ZM263.628 92.1049C263.628 91.9891 263.671 91.8943 263.724 91.8943C263.776 91.8943 263.879 91.9891 263.952 92.1049C264.025 92.2207 263.983 92.3154 263.857 92.3154C263.731 92.3154 263.628 92.2207 263.628 92.1049ZM260.517 91.9226C260.424 91.7758 260.407 91.5989 260.478 91.5294C260.671 91.341 260.882 91.6181 260.777 91.9234C260.704 92.1374 260.653 92.1372 260.517 91.9223V91.9226ZM261.309 91.9654C260.867 91.7915 261.003 91.5035 261.471 91.6228C261.708 91.6833 261.902 91.8166 261.902 91.9189C261.902 92.1196 261.734 92.1328 261.309 91.9654ZM364.76 90.9118C364.511 90.6695 364.603 90.4205 364.94 90.4205C365.118 90.4205 365.263 90.5626 365.263 90.7363C365.263 91.0651 365.008 91.154 364.76 90.9118ZM96.962 89.6221C96.9039 89.5303 97.0459 89.4413 97.2776 89.4243C97.5093 89.4072 97.6425 89.4823 97.5736 89.5911C97.4207 89.8325 97.1054 89.8484 96.962 89.6221ZM98.9071 89.2604C98.975 89.0879 99.19 88.9394 99.385 88.9305C99.58 88.9216 100.177 88.8716 100.711 88.8195C101.411 88.7511 101.591 88.784 101.358 88.9377C101.091 89.1135 101.088 89.1514 101.34 89.154C101.508 89.156 101.585 89.2163 101.511 89.2885C101.437 89.3606 100.793 89.4544 100.08 89.4969C99.0001 89.5612 98.8043 89.5217 98.9071 89.2604ZM10.8453 88.7507C10.6857 88.4988 11.0916 88.2492 11.379 88.4225C11.6204 88.568 11.4619 88.9467 11.1597 88.9467C11.0551 88.9467 10.9136 88.8585 10.8453 88.7507ZM12.886 83.2745C12.886 83.1656 12.982 83.0185 13.0993 82.9478C13.2217 82.874 13.2578 82.9585 13.1841 83.1459C13.0407 83.5106 12.886 83.5774 12.886 83.2745ZM14.4684 83.1661C14.4684 82.9975 14.5509 82.9093 14.6518 82.9701C14.7526 83.0309 14.7793 83.1688 14.711 83.2766C14.5365 83.5521 14.4684 83.5211 14.4684 83.1661ZM390.51 55.6811C390.332 55.5688 390.284 55.477 390.402 55.477C390.521 55.477 390.764 55.5688 390.942 55.6811C391.12 55.7933 391.168 55.8852 391.05 55.8852C390.931 55.8852 390.688 55.7933 390.51 55.6811ZM35.975 40.0561C35.975 39.965 36.1692 39.8904 36.4066 39.8904C36.644 39.8904 36.8382 39.9793 36.8382 40.0879C36.8382 40.1965 36.644 40.271 36.4066 40.2536C36.1692 40.2361 35.975 40.1473 35.975 40.0561ZM45.0114 36.9641L44.5054 36.5643L45.7967 36.3971C46.5069 36.3051 47.5976 36.2244 48.2206 36.2179C48.8435 36.2113 49.3533 36.1415 49.3535 36.0627C49.3537 35.8988 50.639 36.2252 50.8396 36.4402C50.9125 36.5183 50.6726 36.5267 50.3064 36.4589C49.8966 36.383 49.399 36.4604 49.0117 36.66C48.6657 36.8385 47.8729 36.9936 47.2498 37.0048C46.6267 37.016 46.1169 37.1014 46.1169 37.1945C46.1169 37.4964 45.5303 37.3741 45.0114 36.9641V36.9641ZM42.2912 37.0261C42.3629 36.9562 42.5491 36.9487 42.7048 37.0095C42.877 37.0768 42.8258 37.1267 42.5745 37.1368C42.347 37.1459 42.2195 37.0961 42.2912 37.0262V37.0261ZM38.3657 34.118C38.3564 33.8961 38.4073 33.7717 38.479 33.8417C38.5507 33.9117 38.5584 34.0932 38.4961 34.2452C38.4272 34.4132 38.3761 34.3633 38.3657 34.118H38.3657ZM44.259 32.3484C44.3192 32.2533 44.1698 32.0094 43.927 31.8065C43.4925 31.4435 43.5068 31.4277 44.8205 30.8215C46.4028 30.0914 46.5485 30.075 46.5485 30.6265C46.5485 30.886 46.4035 31.0489 46.1709 31.0508C45.8648 31.0535 45.8511 31.0898 46.0985 31.2426C46.2664 31.3463 46.582 31.3977 46.7998 31.3568C47.0177 31.3158 47.1959 31.3789 47.1959 31.4969C47.1959 31.6149 46.8803 31.6946 46.4946 31.674C46.1088 31.6534 45.5991 31.6477 45.3617 31.6612C45.0021 31.6816 44.9841 31.7198 45.2538 31.8898C45.5304 32.0643 45.5226 32.0944 45.1998 32.0971C44.9921 32.0991 44.8222 32.1951 44.8222 32.3109C44.8222 32.4267 44.6708 32.5215 44.4858 32.5215C44.3008 32.5215 44.1987 32.4436 44.259 32.3485V32.3484ZM47.0181 30.6495C46.8012 30.5187 46.8096 30.4308 47.0585 30.2293C47.4077 29.9465 47.686 30.1935 47.4457 30.5728C47.36 30.7081 47.1714 30.7419 47.0181 30.6495ZM39.5355 21.7838C39.4621 21.668 39.5478 21.5732 39.7258 21.5732C39.9038 21.5732 40.1095 21.668 40.1828 21.7838C40.2562 21.8996 40.1706 21.9943 39.9925 21.9943C39.8145 21.9943 39.6088 21.8996 39.5355 21.7838ZM43.955 20.8411C44.2657 20.4758 44.3907 20.4378 44.3907 20.7085C44.3907 20.8119 44.2313 20.9562 44.0364 21.0292C43.7403 21.14 43.7269 21.1092 43.955 20.8411ZM348.924 17.4435C349.177 17.1967 350.559 17.0032 350.838 17.1756C350.998 17.2748 351.032 17.3668 350.914 17.3801C349.752 17.51 348.826 17.5395 348.924 17.4435ZM347.614 17.1837C347.435 17.0727 347.569 17.0115 347.992 17.0115C348.353 17.0115 348.648 17.0904 348.648 17.1869C348.648 17.411 347.978 17.4089 347.614 17.1835V17.1837ZM342.066 16.9149C341.143 16.7131 338.9 16.5684 334.71 16.4402C333.275 16.3963 331.893 16.2519 331.64 16.1195C331.364 15.9753 330.397 15.9019 329.232 15.9368C328.161 15.9688 327.285 15.9734 327.285 15.947C327.285 15.8738 328.541 15.2568 328.69 15.2568C328.762 15.2568 328.761 15.3515 328.688 15.4673C328.61 15.5902 328.829 15.6779 329.214 15.6779C329.577 15.6779 329.875 15.5831 329.875 15.4673C329.875 15.3515 329.977 15.2568 330.103 15.2568C330.229 15.2568 330.259 15.3752 330.17 15.52C330.05 15.7146 330.089 15.7276 330.319 15.5699C330.49 15.4527 330.824 15.3676 331.061 15.3809C331.299 15.3941 332.008 15.419 332.639 15.4362C333.269 15.4533 333.739 15.5384 333.684 15.6252C333.629 15.7121 334.181 15.7693 334.912 15.7523C335.642 15.7352 336.41 15.8098 336.618 15.9177C336.87 16.0486 336.995 16.0372 336.995 15.8834C336.995 15.7567 337.113 15.7238 337.256 15.8104C337.4 15.8969 338.346 15.9935 339.36 16.0251C340.374 16.0567 341.203 16.0937 341.203 16.1075C341.203 16.1212 341.689 16.1631 342.282 16.2007C342.876 16.2382 343.385 16.2899 343.415 16.3155C343.466 16.3593 343.688 16.4231 344.062 16.5012C344.234 16.5371 343.221 17.1486 343.037 17.12C342.978 17.1107 342.541 17.0185 342.066 16.9148L342.066 16.9149ZM333.327 15.8623C333.327 15.7609 333.139 15.678 332.908 15.678C332.678 15.678 332.437 15.7609 332.373 15.8623C332.308 15.9636 332.497 16.0465 332.791 16.0465C333.086 16.0465 333.327 15.9636 333.327 15.8623ZM344.869 15.2535C344.795 15.1358 344.643 15.094 344.533 15.1607C344.422 15.2273 344.332 15.1871 344.332 15.0713C344.332 14.6636 344.68 14.6572 344.938 15.0601C345.081 15.2842 345.155 15.4675 345.102 15.4675C345.049 15.4675 344.944 15.3713 344.869 15.2536V15.2535ZM340.25 14.4323C340.023 14.2104 339.792 14.0727 339.736 14.1264C339.681 14.1801 339.164 14.2558 338.586 14.2946C337.585 14.3619 336.343 13.9281 336.658 13.6211C336.91 13.3752 338.4 13.4328 338.726 13.7009C339.059 13.9754 339.666 13.9845 339.938 13.7189C340.167 13.4955 341.268 13.5445 341.42 13.7849C341.627 14.1121 341.319 14.8357 340.973 14.8357C340.803 14.8357 340.478 14.6542 340.25 14.4322V14.4323ZM342.477 14.5928C342.385 14.4477 342.418 14.4066 342.558 14.4909C342.686 14.5686 342.853 14.5359 342.927 14.4182C343.128 14.1008 343.397 14.159 343.397 14.52C343.397 14.8909 342.701 14.946 342.477 14.5928ZM90.1955 13.0244C90.2673 12.9544 90.4534 12.9469 90.6091 13.0078C90.7813 13.075 90.7301 13.1248 90.4788 13.135C90.2513 13.1441 90.1238 13.0944 90.1955 13.0244V13.0244ZM133.726 7.0458C133.726 6.93001 133.769 6.83526 133.821 6.83526C133.873 6.83526 133.976 6.93001 134.049 7.0458C134.123 7.16161 134.08 7.25635 133.954 7.25635C133.829 7.25635 133.726 7.16161 133.726 7.0458ZM138.757 7.06711C138.409 6.8174 138.492 6.45857 138.876 6.55642C139.121 6.61886 139.278 6.53297 139.3 6.32431C139.32 6.14214 139.352 5.85098 139.372 5.67729C139.392 5.50359 139.586 5.34965 139.804 5.33516C140.021 5.32063 140.272 5.28929 140.361 5.26538C140.45 5.24143 140.814 5.14549 141.17 5.05211C141.962 4.84448 142.392 4.53433 142.234 4.28492C142.169 4.18224 142.308 4.09824 142.542 4.09824C142.777 4.09824 143.018 4.21665 143.078 4.36141C143.154 4.54427 143.242 4.55562 143.366 4.3987C143.682 3.99725 144.343 3.87196 144.692 4.14727C144.971 4.36825 144.998 4.36273 144.845 4.11508C144.704 3.88799 144.751 3.85003 145.037 3.95717C145.244 4.03477 145.545 4.09823 145.705 4.09823C145.865 4.09823 146.055 4.27798 146.126 4.4977C146.21 4.75448 146.395 4.86177 146.644 4.79813C147.195 4.65759 147.138 4.13701 146.583 4.23671C146.144 4.31548 146.144 4.3126 146.565 4.11734C146.802 4.00731 147.325 3.91062 147.727 3.90248C148.129 3.89429 149.051 3.79476 149.777 3.68117C151.658 3.38683 156.387 2.87101 158.541 2.72516C159.55 2.6569 160.812 2.56348 161.346 2.51756C162.471 2.42085 164.693 2.26688 167.604 2.08384C168.731 2.01294 170.285 1.90276 171.057 1.839C172.911 1.68575 175.829 1.67432 176.235 1.81879C176.413 1.8821 176.972 2.00664 177.476 2.09557C177.981 2.18449 178.393 2.32696 178.393 2.41217C178.393 2.49736 178.153 2.80131 177.86 3.08758C177.425 3.51134 177.124 3.60424 176.24 3.58737C175.595 3.5749 175.184 3.65308 175.227 3.77985C175.268 3.89709 176.048 4.00083 176.962 4.01035C178.397 4.02526 179.352 4.29767 179.026 4.59865C178.88 4.73332 176.02 4.86638 176.02 4.73849C176.02 4.67587 175.365 4.65428 174.564 4.6905C173.762 4.72672 172.549 4.67033 171.869 4.56492C171.188 4.45962 170.585 4.41841 170.528 4.47336C170.472 4.52827 170.009 4.59321 169.5 4.61764C168.991 4.64209 168.307 4.73526 167.979 4.82475C167.624 4.92153 167.272 4.89755 167.109 4.76556C166.958 4.64352 165.896 4.52176 164.748 4.49499C163.328 4.46188 162.706 4.37399 162.801 4.21966C162.877 4.09503 162.775 4.12349 162.573 4.28294C162.321 4.48235 161.933 4.5301 161.329 4.43587C160.753 4.34593 160.498 4.3729 160.588 4.51442C160.741 4.75564 160.712 4.76025 158.757 4.81152C157.985 4.83173 157.136 4.92278 156.869 5.01384C156.602 5.1049 156.383 5.10195 156.383 5.00731C156.383 4.91266 156.14 4.83522 155.844 4.83522C155.547 4.83522 155.304 4.90627 155.304 4.99312C155.304 5.07997 155.153 5.15103 154.968 5.15103C154.783 5.15103 154.682 5.07102 154.744 4.97316C154.894 4.73673 152.677 5.08396 152.516 5.32215C152.222 5.75818 148.183 6.20004 148.183 5.79624C148.183 5.67301 148.08 5.57211 147.955 5.57211C147.829 5.57211 147.782 5.66033 147.85 5.76812C148.046 6.07628 147.549 6.26601 147.228 6.00597C147.013 5.83153 146.911 5.8422 146.831 6.04781C146.761 6.22535 146.406 6.30644 145.834 6.27527C145.346 6.24865 144.947 6.31534 144.947 6.42349C144.947 6.77167 143.838 6.54302 143.623 6.15045C143.508 5.94169 143.321 5.82744 143.206 5.89658C143.091 5.96573 143.047 6.10058 143.108 6.19623C143.168 6.29189 143.076 6.42334 142.902 6.48831C142.729 6.55329 142.528 6.51436 142.457 6.40176C142.378 6.27696 142.102 6.31985 141.749 6.51161C141.085 6.87248 139.021 7.25591 138.757 7.0672L138.757 7.06711ZM135.668 6.11081C135.668 5.74099 135.797 5.68655 135.982 5.97856C136.051 6.08636 136.008 6.23408 135.887 6.3068C135.766 6.37953 135.668 6.29154 135.668 6.11081ZM136.481 5.74712C136.606 5.62476 136.836 5.56608 136.992 5.61671C137.154 5.66928 137.056 5.76472 136.764 5.83916C136.405 5.93074 136.321 5.90333 136.481 5.74712ZM210.815 5.2129C210.548 5.16272 210.329 5.04933 210.329 4.96096C210.329 4.7033 211.267 4.84336 211.36 5.11487C211.406 5.25051 211.412 5.34857 211.372 5.3328C211.333 5.31697 211.082 5.26309 210.815 5.2129H210.815ZM206.337 4.72984C206.931 4.48114 207.271 4.48114 206.877 4.72984C206.699 4.84211 206.408 4.92876 206.23 4.92237C206.016 4.91475 206.053 4.84917 206.337 4.72984ZM207.645 4.74944C207.578 4.64444 207.718 4.60813 207.956 4.66874C208.459 4.7973 208.523 4.94037 208.076 4.94037C207.905 4.94037 207.711 4.85445 207.645 4.74944ZM179.865 4.27299C179.526 3.93989 179.68 3.91679 182.347 3.90111C183.911 3.89181 185.407 3.84356 185.671 3.79368C185.936 3.74379 186.203 3.7825 186.264 3.87965C186.326 3.97681 186.673 4.03624 187.037 4.0117C188.018 3.94539 188.023 4.25191 187.042 4.34325C186.577 4.38643 186.244 4.34885 186.3 4.25997C186.477 3.98032 186.145 4.08408 185.807 4.41401C185.44 4.77218 184.528 4.83667 184.327 4.51872C184.238 4.37853 184.051 4.38179 183.77 4.5284C183.293 4.77787 182.843 4.60834 183.062 4.26159C183.158 4.10996 183.105 4.09555 182.904 4.21871C182.737 4.32081 182.067 4.45469 181.414 4.51624C180.48 4.60428 180.15 4.5525 179.865 4.27295V4.27299ZM197.167 4.51925C197.167 4.40346 197.209 4.30873 197.262 4.30873C197.314 4.30873 197.417 4.40346 197.49 4.51925C197.564 4.63505 197.521 4.7298 197.395 4.7298C197.269 4.7298 197.167 4.63505 197.167 4.51925ZM188.535 4.09817C188.341 3.97555 188.314 3.89278 188.468 3.89085C188.61 3.88894 188.785 3.98237 188.859 4.09817C189.024 4.35957 188.95 4.35957 188.535 4.09817ZM272.817 4.06946C272.929 3.89319 272.107 3.68585 271.94 3.84832C271.708 4.07468 270.749 4.11744 270.749 3.9014C270.749 3.76778 270.135 3.73558 269.077 3.81373C267.779 3.90956 267.235 3.86018 266.649 3.5935C266.234 3.40448 266.058 3.29325 266.258 3.34634C266.458 3.39943 266.652 3.36049 266.689 3.25994C266.727 3.15935 266.903 3.04625 267.081 3.0086C267.259 2.971 267.476 2.84544 267.563 2.72963C267.65 2.61383 267.723 2.72658 267.725 2.98033C267.728 3.41635 267.761 3.42503 268.322 3.1391C268.854 2.86777 268.946 2.87447 269.214 3.20422C269.498 3.55383 269.506 3.55379 269.383 3.20422C269.282 2.91987 269.371 2.83577 269.774 2.83577C270.061 2.83577 270.395 3.00158 270.516 3.20422C270.638 3.40869 270.739 3.45554 270.743 3.3095C270.75 3.03379 271.397 2.92961 271.397 3.20422C271.397 3.29106 272.131 3.35665 273.028 3.34996C273.925 3.34325 274.708 3.41431 274.767 3.50787C274.826 3.6014 275.083 3.67793 275.337 3.67793C275.706 3.67793 275.745 3.73057 275.529 3.9411C275.259 4.20461 272.654 4.32876 272.817 4.07032V4.06946ZM276.36 4.06313C276.36 3.96662 276.433 3.88128 276.522 3.87346C276.611 3.86564 276.994 3.81959 277.374 3.77114C278.228 3.66215 278.532 4.02334 277.71 4.17091C276.898 4.3168 276.36 4.27384 276.36 4.06313ZM260.823 3.3613C260.823 3.24551 260.459 3.15077 260.014 3.15077C259.569 3.15077 259.133 3.24551 259.046 3.3613C258.941 3.50166 258.886 3.50166 258.884 3.3613C258.879 3.09753 257.586 3.03513 257.586 3.29869C257.586 3.40471 257.498 3.43822 257.39 3.37318C257.185 3.24926 255.287 3.05028 253.271 2.94133C252.618 2.90606 252.084 2.85592 252.084 2.82991C252.084 2.6888 249.245 2.68661 249.063 2.82762C248.739 3.07928 246.581 3.25486 246.581 3.02956C246.581 2.92253 246.436 2.83497 246.258 2.83497C246.08 2.83497 245.934 2.92639 245.934 3.03815C245.934 3.165 244.414 3.20388 241.888 3.14168C239.663 3.0869 237.608 3.04306 237.322 3.04427C237.035 3.04618 236.477 2.95912 236.081 2.8524C235.648 2.73573 235.361 2.735 235.361 2.8505C235.361 3.04183 234.606 3.01084 234.401 2.81109C234.342 2.75348 233.36 2.74001 232.219 2.78119C230.844 2.83082 230.041 2.77281 229.839 2.60914C229.602 2.41682 229.534 2.42613 229.531 2.65118C229.529 2.83375 229.469 2.85917 229.369 2.72019C229.274 2.58819 228.046 2.48979 226.298 2.47406C224.695 2.45972 219.84 2.39361 215.508 2.32739C211.176 2.2612 205.617 2.19439 203.155 2.17897C200.692 2.16372 198.677 2.09166 198.677 2.0192C198.676 1.94671 198.142 1.88742 197.49 1.88742C196.837 1.88742 196.303 1.95848 196.303 2.04533C196.303 2.13218 196.201 2.20324 196.075 2.20324C195.949 2.20324 195.906 2.10849 195.98 1.99269C196.053 1.8769 195.962 1.78216 195.777 1.78216C195.592 1.78225 195.44 1.68751 195.44 1.57172C195.44 1.45592 195.337 1.36117 195.212 1.36117C195.086 1.36117 195.043 1.45592 195.117 1.57172C195.195 1.69607 194.958 1.78094 194.536 1.77903C193.995 1.77636 193.901 1.72618 194.146 1.57172C194.385 1.42098 194.395 1.36678 194.184 1.36439C193.965 1.36172 193.973 1.28857 194.223 1.04535C194.401 0.871659 194.747 0.729539 194.993 0.729539C195.239 0.729539 195.44 0.628407 195.44 0.5048C195.44 0.371492 195.627 0.337849 195.899 0.422111C196.207 0.517672 196.309 0.487876 196.21 0.33103C196.129 0.202805 196.12 0.0979113 196.19 0.0979113C196.26 0.0979113 196.391 0.292764 196.481 0.530928L196.646 0.963962L197.215 0.527221C197.605 0.227868 197.831 0.164946 197.934 0.32723C198.04 0.495078 198.136 0.480855 198.265 0.278315C198.412 0.0461656 199.892 -0.00588243 206.168 0.00050536C210.415 0.00496728 215.638 0.0692014 217.774 0.143609C219.91 0.218001 223.455 0.333802 225.65 0.400952C233.578 0.64336 235.621 0.731461 235.798 0.838589C236.195 1.07796 237.934 1.2903 238.197 1.13153C238.36 1.0337 238.549 1.06863 238.646 1.21438C238.771 1.40247 238.867 1.38629 239.026 1.15062C239.142 0.976923 239.24 0.92955 239.242 1.04535C239.244 1.17823 240.578 1.2465 242.859 1.23045C246.464 1.20505 252.623 1.54492 252.624 1.76927C252.624 1.83431 253.376 1.87686 254.296 1.86386C255.872 1.84155 259.502 2.12968 260.146 2.32819C260.384 2.40142 260.388 2.48013 260.17 2.73702C259.949 2.99591 259.955 3.03793 260.199 2.96264C260.364 2.91177 260.771 2.81207 261.102 2.74111C261.473 2.6616 261.656 2.51342 261.579 2.35507C261.511 2.21372 261.568 2.24638 261.706 2.4276C261.909 2.69412 262.187 2.72681 263.156 2.59851C263.837 2.50829 264.517 2.52506 264.732 2.6374C264.94 2.74607 265.384 2.84787 265.718 2.86364C266.278 2.89003 266.285 2.89986 265.805 2.98802C265.402 3.0621 265.354 3.12632 265.589 3.27194C265.923 3.47798 265.643 3.50379 262.603 3.54673C261.543 3.56164 260.823 3.48672 260.823 3.36132V3.3613ZM198.108 1.46764C198.04 1.29459 197.898 1.20546 197.791 1.26953C197.487 1.45325 197.566 1.78223 197.915 1.78223C198.108 1.78223 198.183 1.65873 198.108 1.46764ZM185.523 2.18735C185.745 1.78247 185.732 1.7365 185.426 1.85085C185.122 1.96492 185.108 1.91881 185.327 1.51864L185.582 1.05399L185.797 1.5234C186.043 2.06194 186.489 2.14024 186.671 1.67696C186.739 1.50327 186.717 1.36115 186.622 1.36115C186.527 1.36115 186.449 1.21788 186.449 1.04275C186.449 0.783879 186.644 0.749573 187.492 0.859329C188.205 0.951538 188.535 0.919011 188.535 0.756674C188.535 0.624651 188.877 0.518993 189.303 0.518993C189.807 0.518993 190.021 0.598744 189.924 0.750541C189.82 0.915151 189.909 0.913757 190.231 0.745699C190.607 0.549264 190.662 0.563511 190.557 0.82996C190.488 1.00632 190.344 1.15063 190.238 1.15063C190.132 1.15063 190.046 1.24538 190.046 1.36116C190.046 1.80004 190.436 1.54639 190.693 0.94008C190.993 0.232981 191.001 0.229094 191.542 0.511556C191.815 0.654048 191.899 0.876531 191.824 1.25719C191.766 1.55559 191.803 1.77213 191.907 1.73836C192.011 1.70461 192.144 1.76955 192.203 1.88274C192.267 2.00445 191.754 2.10309 190.948 2.12422C189.702 2.15686 189.564 2.11659 189.349 1.65528C189.117 1.15788 188.319 0.939754 188.319 1.37359C188.319 1.49624 188.415 1.53868 188.533 1.46794C188.653 1.39533 188.692 1.47595 188.623 1.65275C188.551 1.83591 188.358 1.91311 188.158 1.83844C187.936 1.75541 187.87 1.79474 187.969 1.95086C188.143 2.22491 187.426 2.42726 186.593 2.33913C186.296 2.30774 185.876 2.36624 185.66 2.46916C185.307 2.63684 185.292 2.60758 185.523 2.18736V2.18735ZM191.426 1.39625C191.487 1.29976 191.4 1.22081 191.232 1.22081C191.065 1.22081 190.978 1.29976 191.039 1.39625C191.1 1.49274 191.187 1.5717 191.232 1.5717C191.278 1.5717 191.365 1.49274 191.426 1.39625ZM182.616 2.22725C182.551 2.12461 182.692 1.99129 182.928 1.93094C183.214 1.85785 183.314 1.70923 183.226 1.48593C183.154 1.30151 183.186 1.15062 183.297 1.15062C183.593 1.15062 183.545 1.83837 183.228 2.14819C182.906 2.46244 182.776 2.47923 182.616 2.22725ZM183.939 1.64188C184 1.48748 184.078 1.36115 184.112 1.36115C184.145 1.36115 184.223 1.48748 184.284 1.64188C184.344 1.79629 184.267 1.92261 184.112 1.92261C183.956 1.92261 183.879 1.79629 183.939 1.64188ZM184.772 1.05204C185.002 0.882029 185.403 0.739913 185.663 0.736226C186.178 0.728789 186.506 1.0482 186.183 1.24266C186.073 1.30927 185.945 1.25494 185.9 1.12174C185.838 0.939845 185.703 0.939494 185.356 1.11983C184.693 1.4662 184.276 1.41739 184.772 1.05145V1.05204ZM181.904 1.0234C181.976 0.953438 182.162 0.945954 182.318 1.00681C182.49 1.07401 182.439 1.12391 182.187 1.134C181.96 1.14311 181.833 1.09338 181.904 1.02342V1.0234ZM193.282 0.940051C193.006 0.765644 193.014 0.73548 193.336 0.732723C193.544 0.730816 193.714 0.824243 193.714 0.940051C193.714 1.19684 193.69 1.19684 193.282 0.940051ZM192.124 0.619378C192.021 0.357731 192.076 0.339708 192.424 0.521507C192.924 0.782704 192.972 0.940051 192.55 0.940051C192.385 0.940051 192.193 0.795738 192.124 0.619378Z" fill="#FF6D04"/>
</svg>
