<svg width="327" height="498" viewBox="0 0 327 498" fill="none" xmlns="http://www.w3.org/2000/svg">
<g clip-path="url(#clip0_5_1876)" filter="url(#filter0_d_5_1876)">
<path d="M13.6076 75.9282L18.4113 78.7849L13.6076 75.9282C14.6584 75.0261 15.7092 74.2743 16.76 73.6729L141.057 1.8042L152.016 8.11902L27.7186 79.9877C26.6678 80.5891 25.617 81.3409 24.5662 82.243C22.4645 84.0472 20.513 86.3025 19.0118 88.8585L8.05322 82.5437C9.70452 80.1381 11.5059 77.7324 13.6076 75.9282Z" fill="#F4F4FA"/>
<path d="M27.7186 79.9877L16.76 73.6729C9.70447 77.7324 4 87.6557 4 95.9251L14.9586 102.24C14.9586 94.1208 20.6631 84.0472 27.7186 79.9877Z" fill="#F4F4FA"/>
<path d="M155.469 342.504L152.917 345.962C159.972 341.902 165.827 331.829 165.677 323.71L163.875 327.619C164.025 333.182 160.273 339.797 155.469 342.504Z" fill="#BFBEED"/>
<path d="M31.1714 414.373L28.7695 417.981L153.067 345.962L155.469 342.504L31.1714 414.373Z" fill="#BFBEED"/>
<path d="M22.7648 411.215L16.0095 413.019C16.4599 415.575 17.5107 417.53 19.162 418.582L24.8665 414.824C23.8156 414.222 23.0651 412.869 22.7648 411.215Z" fill="#F4F4FA"/>
<path d="M24.8666 414.824L19.1621 418.582C21.564 420.236 24.8666 420.086 28.6195 417.981L31.1715 414.523C28.7696 415.876 26.5179 416.026 24.8666 414.824Z" fill="#BFBEED"/>
<path d="M8.6537 412.418L19.6123 418.733C17.3605 417.38 15.8593 414.523 15.8593 410.463L4.90076 404.148C4.90076 408.208 6.25182 411.065 8.6537 412.418Z" fill="#BFBEED"/>
<path d="M15.8593 410.614L4.90076 404.299C4.90076 408.358 6.40193 411.215 8.6537 412.568L19.6123 418.883C17.2104 417.53 15.8593 414.673 15.8593 410.614Z" fill="#BFBEED"/>
<path d="M164.025 327.769L165.827 323.86L164.926 15.4863L163.125 19.3955L164.025 327.769Z" fill="#BFBEED"/>
<path d="M163.125 19.3956L164.926 15.4864C164.926 14.1333 164.776 13.0808 164.476 12.0283L162.825 17.1403C163.125 17.7417 163.125 18.6438 163.125 19.3956Z" fill="#BFBEED"/>
<path d="M162.975 17.1403L164.626 12.0283C164.025 9.62265 162.674 7.96877 160.873 7.06665L160.423 13.8325C161.624 14.4339 162.524 15.4864 162.975 17.1403Z" fill="#F4F4FA"/>
<path d="M160.423 13.8326L160.873 7.06672C159.222 6.31496 157.27 6.1646 155.019 6.91637L156.52 13.6822C158.021 13.2312 159.372 13.2312 160.423 13.8326Z" fill="#F4F4FA"/>
<path d="M156.52 13.6821L155.018 6.91626C154.118 7.06661 153.067 7.51767 152.016 8.11908L154.568 14.5843C155.319 14.1332 155.919 13.8325 156.52 13.6821Z" fill="#F4F4FA"/>
<path d="M161.173 7.2174L150.215 0.902578C147.813 -0.450598 144.66 -0.300245 141.057 1.80469L152.016 8.11952C155.619 6.01458 158.921 5.86422 161.173 7.2174Z" fill="#F4F4FA"/>
<path d="M161.173 7.21709L150.215 0.902273C148.864 0.000155604 147.062 -0.150197 145.111 0.150508L156.069 6.46533C158.021 6.16462 159.822 6.46533 161.173 7.21709Z" fill="#F4F4FA"/>
<path d="M156.069 6.61556L145.111 0.150391C143.91 0.451096 142.559 0.902155 141.057 1.80427L152.016 8.11909C153.517 7.36733 154.868 6.76592 156.069 6.61556Z" fill="#F4F4FA"/>
<path d="M21.7138 101.188L22.6145 409.411C22.6145 410.012 22.6145 410.614 22.7646 411.065L16.0093 413.019C15.8592 412.268 15.8592 411.365 15.8592 410.614L14.9585 102.24L21.7138 101.188Z" fill="#F4F4FA"/>
<path d="M14.9586 102.24L4 95.9253L4.90071 404.149L15.8593 410.614L14.9586 102.24Z" fill="#BFBEED"/>
<path d="M154.568 14.5843L152.016 8.11914L27.7185 79.9878L30.2705 86.453L154.568 14.5843Z" fill="#F4F4FA"/>
<path d="M30.2706 86.4529C25.4668 89.1593 21.7139 95.7748 21.7139 101.338L22.6146 409.561C22.6146 414.974 26.5176 417.229 31.1713 414.523L155.469 342.654C160.272 339.948 164.025 333.332 164.025 327.769L163.125 19.5459C163.125 14.1332 159.222 11.8779 154.568 14.5843L30.2706 86.4529Z" fill="#F4F4FA"/>
<path d="M30.2704 86.453L27.7184 79.9878C22.164 83.1452 17.3603 90.0614 15.709 96.677L22.3142 97.4287C23.365 93.0685 26.5175 88.5579 30.2704 86.453Z" fill="#F4F4FA"/>
<path d="M22.3143 97.5792L15.7091 96.8274C15.2587 98.6316 14.9585 100.586 14.9585 102.24L21.7138 101.188C21.7138 99.9848 21.8639 98.782 22.3143 97.5792Z" fill="#F4F4FA"/>
<path d="M19.0118 89.0089L8.05323 82.6941C6.25182 85.5508 4.90076 88.8586 4.30029 92.016L15.2589 98.3308C16.0095 95.023 17.3605 91.8656 19.0118 89.0089Z" fill="#F4F4FA"/>
<path d="M15.4089 98.1806L4.45035 91.8657C4.15012 93.2189 4 94.5721 4 95.9253L14.9586 102.24C14.9586 100.887 15.1087 99.5337 15.4089 98.1806Z" fill="#BFBEED"/>
<path d="M22.3143 399.939C22.3143 401.592 22.6146 402.946 23.3652 403.848C24.8663 406.253 27.7186 406.704 31.0212 404.75C31.0212 404.75 156.52 332.129 157.12 331.528C161.023 328.371 163.875 322.657 163.725 317.996L162.824 19.2451C162.824 13.8324 158.921 11.5771 154.268 14.2835L29.9703 86.4529C26.3675 88.5578 23.215 92.918 22.0141 97.4286C21.864 98.1804 21.5638 98.9322 21.5638 99.8343C21.4136 100.135 22.3143 399.939 22.3143 399.939Z" fill="#FF6D04"/>
<path d="M66.449 83.1453L119.29 52.6236C122.293 50.9698 124.995 47.3613 126.196 43.6025L131.9 26.7629L53.8391 71.8688L59.5436 82.0928C60.7445 84.3481 63.4466 84.7991 66.449 83.1453Z" fill="#F4F4FA"/>
<path d="M72.3036 70.2149C72.1535 73.8234 69.4514 78.334 66.2989 80.1382C65.3982 80.5893 64.6476 80.89 63.897 80.89C63.2965 80.89 62.6961 80.5893 62.3958 80.2886C61.7954 79.6871 61.4951 78.6347 61.4951 77.2815C61.6452 73.673 64.3474 69.1624 67.4998 67.3582C68.4005 66.9072 69.1511 66.6064 69.9017 66.6064C70.2019 66.6064 70.5022 66.7568 70.8024 66.7568C71.8532 67.3582 72.3036 68.561 72.3036 70.2149Z" fill="#F4F4FA"/>
<path d="M71.7031 69.9142C71.553 73.5227 68.8509 78.0333 65.6984 79.8375C64.7977 80.2886 64.0471 80.5893 63.2965 80.5893C62.9963 80.5893 62.6961 80.4389 62.3958 80.4389C61.7954 79.8375 61.4951 78.7851 61.4951 77.4319C61.6452 73.8234 64.3474 69.3128 67.4998 67.5086C68.4005 67.0575 69.1511 66.7568 69.9017 66.7568C70.2019 66.7568 70.5022 66.9072 70.8024 66.9072C71.4029 67.5086 71.7031 68.5611 71.7031 69.9142Z" fill="#BFBEED"/>
<path d="M63.2966 79.8376C62.9964 79.8376 62.8463 79.8376 62.6961 79.6873C62.2458 79.2362 61.9456 78.3341 61.9456 77.1313C62.0957 73.6731 64.6477 69.4633 67.65 67.659C68.4006 67.208 69.1512 67.0576 69.7517 67.0576C70.0519 67.0576 70.202 67.0576 70.3521 67.208C70.8025 67.659 71.1027 68.5612 71.1027 69.764C70.9526 73.2221 68.4006 77.432 65.3983 79.2362C64.6477 79.6873 63.8971 79.8376 63.2966 79.8376Z" fill="#3A2C99"/>
<path d="M67.3498 69.4633C67.3498 69.9143 67.0496 70.3654 66.5992 70.6661C66.1489 70.8164 65.8486 70.6661 65.8486 70.215C65.8486 69.764 66.1489 69.3129 66.5992 69.0122C67.0496 68.8618 67.3498 69.0122 67.3498 69.4633Z" fill="#3A2C99"/>
<path d="M65.6983 70.5156C65.8484 70.8163 65.6983 71.2673 65.3981 71.7184C65.0978 72.1695 64.6475 72.1695 64.4974 72.0191C64.3473 71.7184 64.4974 71.2673 64.7976 70.8163C65.0978 70.3652 65.3981 70.2149 65.6983 70.5156Z" fill="#3A2C99"/>
<path d="M64.1971 72.3198C64.4974 72.3198 64.6475 72.7709 64.4974 73.2219C64.3473 73.673 63.8969 74.1241 63.5967 73.9737C63.2964 73.9737 63.1463 73.5226 63.2964 73.0716C63.4466 72.6205 63.8969 72.3198 64.1971 72.3198Z" fill="#3A2C99"/>
<path d="M63.4466 74.4248C63.897 74.2744 64.1972 74.4248 64.1972 74.8758C64.1972 75.3269 63.897 75.778 63.4466 76.0787C62.9963 76.229 62.696 76.0787 62.696 75.6276C62.696 75.1766 62.9963 74.7255 63.4466 74.4248Z" fill="#3A2C99"/>
<path d="M63.4465 76.3794C63.7468 75.9283 64.1971 75.9283 64.3472 76.0787C64.4974 76.3794 64.3472 76.8305 64.047 77.2815C63.7468 77.7326 63.2964 77.7326 63.1463 77.5822C62.9962 77.2815 63.1463 76.8305 63.4465 76.3794Z" fill="#3A2C99"/>
<path d="M64.3474 77.4319C64.4975 76.9808 64.9478 76.5298 65.2481 76.6801C65.5483 76.6801 65.6984 77.1312 65.5483 77.5822C65.3982 78.0333 64.9478 78.4844 64.6476 78.334C64.1972 78.334 64.0471 78.0333 64.3474 77.4319Z" fill="#3A2C99"/>
<path d="M65.6985 77.5822C65.6985 77.1311 65.9987 76.6801 66.4491 76.3794C66.8994 76.229 67.1997 76.3794 67.1997 76.8304C67.1997 77.2815 66.8994 77.7326 66.4491 78.0333C65.9987 78.1836 65.6985 78.0333 65.6985 77.5822Z" fill="#3A2C99"/>
<path d="M67.4998 76.5297C67.3497 76.229 67.4998 75.778 67.8 75.3269C68.1003 74.8758 68.5506 74.8759 68.7007 75.0262C68.8509 75.3269 68.7008 75.778 68.4005 76.229C68.1003 76.6801 67.6499 76.8304 67.4998 76.5297Z" fill="#3A2C99"/>
<path d="M68.8508 74.7256C68.5506 74.7256 68.4005 74.2746 68.5506 73.8235C68.7007 73.3724 69.1511 72.9214 69.4513 73.0717C69.7515 73.0717 69.9016 73.5228 69.7515 73.9738C69.6014 74.4249 69.3012 74.7256 68.8508 74.7256Z" fill="#3A2C99"/>
<path d="M69.7516 72.6207C69.3012 72.771 69.001 72.6207 69.1511 72.1696C69.1511 71.7185 69.4513 71.2675 69.9017 70.9668C70.3521 70.8164 70.6523 70.9668 70.6523 71.4178C70.5022 71.8689 70.0518 72.32 69.7516 72.6207Z" fill="#3A2C99"/>
<path d="M69.7516 70.666C69.4514 71.1171 69.001 71.1171 68.8509 70.9667C68.7008 70.666 68.8509 70.215 69.1511 69.7639C69.4514 69.3129 69.9017 69.3129 70.0518 69.4632C70.2019 69.7639 70.0518 70.3653 69.7516 70.666Z" fill="#3A2C99"/>
<path d="M68.8509 69.6135C68.7008 70.0646 68.2504 70.5156 67.9502 70.3653C67.65 70.3653 67.4998 69.9142 67.65 69.4631C67.8001 69.0121 68.2504 68.561 68.5507 68.7114C69.001 68.7114 69.001 69.1624 68.8509 69.6135Z" fill="#3A2C99"/>
<path d="M68.2503 72.6205C68.2503 73.6729 67.4998 74.8758 66.5991 75.3268C65.6983 75.7779 64.9478 75.3268 64.9478 74.4247C64.9478 73.3722 65.6983 72.1694 66.5991 71.7183C67.4998 71.1169 68.2503 71.568 68.2503 72.6205Z" fill="#3A2C99"/>
<path d="M89.567 60.2916C89.4169 63.9 86.7148 68.4106 83.5623 70.2149C82.6616 70.6659 81.911 70.9666 81.1604 70.9666C80.56 70.9666 79.9595 70.6659 79.6593 70.3652C79.0588 69.7638 78.7585 68.7113 78.7585 67.3582C78.9087 63.7497 81.6108 59.2391 84.7633 57.4349C85.664 56.9838 86.4145 56.6831 87.1651 56.6831C87.4654 56.6831 87.7656 56.8335 88.0658 56.8335C88.9665 57.2845 89.567 58.4873 89.567 60.2916Z" fill="#F4F4FA"/>
<path d="M88.9665 59.8405C88.8164 63.449 86.1143 67.9596 82.9618 69.7638C82.0611 70.2149 81.3105 70.5156 80.56 70.5156C80.2597 70.5156 79.9595 70.3652 79.6593 70.3652C79.0588 69.7638 78.7585 68.7113 78.7585 67.3582C78.9087 63.7497 81.6108 59.2391 84.7633 57.4349C85.664 56.9838 86.4145 56.6831 87.1651 56.6831C87.4654 56.6831 87.7656 56.8335 88.0658 56.8335C88.6663 57.4349 88.9665 58.4873 88.9665 59.8405Z" fill="#BFBEED"/>
<path d="M80.56 69.7639C80.2598 69.7639 80.1097 69.7639 79.9596 69.6135C79.5092 69.1625 79.209 68.2603 79.209 67.0575C79.3591 63.5994 81.9111 59.3895 84.9135 57.5853C85.664 57.1342 86.4146 56.9839 87.0151 56.9839C87.3153 56.9839 87.4655 56.9839 87.6156 57.1342C88.0659 57.5853 88.3662 58.4874 88.3662 59.6902C88.216 63.1484 85.664 67.3582 82.6617 69.1625C81.9111 69.6135 81.1605 69.9142 80.56 69.7639Z" fill="#3A2C99"/>
<path d="M84.613 59.5399C84.613 59.9909 84.3128 60.442 83.8624 60.7427C83.4121 60.8931 83.1118 60.7427 83.1118 60.2916C83.1118 59.8406 83.4121 59.3895 83.8624 59.0888C84.3128 58.7881 84.613 59.0888 84.613 59.5399Z" fill="#3A2C99"/>
<path d="M82.9617 60.4418C83.1119 60.7426 82.9617 61.1936 82.6615 61.6447C82.3613 62.0957 81.9109 62.0957 81.7608 61.9454C81.6107 61.6447 81.7608 61.1936 82.061 60.7426C82.3613 60.2915 82.6615 60.1411 82.9617 60.4418Z" fill="#3A2C99"/>
<path d="M81.4606 62.2461C81.7608 62.2461 81.9109 62.6972 81.7608 63.1482C81.6107 63.5993 81.1603 64.0503 80.8601 63.9C80.5599 63.9 80.4098 63.4489 80.5599 62.9979C80.71 62.5468 81.1603 62.2461 81.4606 62.2461Z" fill="#3A2C99"/>
<path d="M80.5599 64.5015C81.0103 64.3511 81.3105 64.5014 81.3105 64.9525C81.3105 65.4036 81.0103 65.8546 80.5599 66.1553C80.1096 66.3057 79.8093 66.1553 79.8093 65.7043C79.9594 65.1029 80.2597 64.6518 80.5599 64.5015Z" fill="#3A2C99"/>
<path d="M80.7101 66.3057C81.0103 65.8546 81.4607 65.8546 81.6108 66.005C81.7609 66.3057 81.6108 66.7567 81.3106 67.2078C81.0103 67.6588 80.56 67.6588 80.4099 67.5085C80.2597 67.2078 80.2597 66.7567 80.7101 66.3057Z" fill="#3A2C99"/>
<path d="M81.6108 67.5086C81.7609 67.0575 82.2113 66.6064 82.5115 66.7568C82.8117 66.7568 82.9618 67.2078 82.8117 67.6589C82.6616 68.11 82.2113 68.561 81.911 68.4107C81.4607 68.4107 81.3106 67.9596 81.6108 67.5086Z" fill="#3A2C99"/>
<path d="M82.9619 67.5085C82.9619 67.0574 83.2621 66.6064 83.7125 66.3056C84.1629 66.1553 84.4631 66.3057 84.4631 66.7567C84.4631 67.2078 84.1629 67.6588 83.7125 67.9595C83.2621 68.1099 82.9619 67.9595 82.9619 67.5085Z" fill="#3A2C99"/>
<path d="M84.7632 66.456C84.6131 66.1553 84.7632 65.7042 85.0635 65.2532C85.3637 64.8021 85.8141 64.8021 85.9642 64.9525C86.1143 65.2532 85.9642 65.7042 85.6639 66.1553C85.3637 66.6064 84.9134 66.7567 84.7632 66.456Z" fill="#3A2C99"/>
<path d="M86.1143 64.6519C85.814 64.6519 85.6639 64.2008 85.814 63.7498C85.9641 63.2987 86.4145 62.8476 86.7147 62.998C87.015 62.998 87.1651 63.4491 87.015 63.9001C86.8648 64.3512 86.4145 64.6519 86.1143 64.6519Z" fill="#3A2C99"/>
<path d="M87.015 62.5469C86.5647 62.6973 86.2644 62.5469 86.4145 62.0959C86.4145 61.6448 86.7148 61.1938 87.1651 60.8931C87.6155 60.7427 87.9157 60.8931 87.9157 61.3441C87.6155 61.7952 87.3152 62.3966 87.015 62.5469Z" fill="#3A2C99"/>
<path d="M87.015 60.5923C86.7148 61.0434 86.2644 61.0434 86.1143 60.893C85.9642 60.5923 86.1143 60.1412 86.4145 59.6902C86.7148 59.2391 87.1651 59.2391 87.3153 59.3895C87.4654 59.6902 87.3153 60.2916 87.015 60.5923Z" fill="#3A2C99"/>
<path d="M86.1143 59.5398C85.9642 59.9908 85.5139 60.4419 85.2136 60.2915C84.9134 60.2915 84.7633 59.8405 84.9134 59.3894C85.0635 58.9384 85.5139 58.4873 85.8141 58.6376C86.1143 58.6376 86.2644 59.0887 86.1143 59.5398Z" fill="#3A2C99"/>
<path d="M85.3636 62.5468C85.3636 63.5993 84.613 64.8021 83.7123 65.2532C82.8116 65.7043 82.061 65.2532 82.061 64.3511C82.061 63.2986 82.8116 62.0958 83.7123 61.6447C84.7632 61.1937 85.5137 61.6447 85.3636 62.5468Z" fill="#3A2C99"/>
<path d="M98.1238 57.435L104.729 53.6761C105.93 52.9244 106.981 51.2705 106.981 49.767C106.981 48.4138 105.93 47.8124 104.729 48.4138L98.1238 52.1726C96.9229 52.9244 95.8721 54.5783 95.8721 56.0818C95.8721 57.435 96.9229 58.0364 98.1238 57.435Z" fill="#231869"/>
<path d="M182.94 294.992C183.09 294.842 183.541 294.842 183.691 294.992C183.991 295.143 184.141 295.293 184.441 295.443C186.393 297.247 188.495 299.503 190.146 301.457L189.996 301.307C190.296 301.608 190.446 301.908 190.746 302.209L190.896 302.359C191.647 302.51 192.398 302.811 192.998 303.412C193.298 303.863 193.599 304.314 193.749 304.765C194.049 305.667 194.199 308.073 194.199 308.975C194.199 309.276 193.599 309.877 193.298 309.877C193.298 309.877 193.298 309.877 193.148 309.727C192.548 310.178 192.097 310.779 191.647 311.381C191.347 311.832 190.746 311.832 190.146 311.982C187.894 309.125 185.042 307.772 183.24 304.615C183.09 304.164 182.79 303.863 182.94 303.412C183.09 302.961 183.541 302.66 183.991 302.811C183.841 302.359 183.841 301.908 184.291 301.608C184.591 301.307 185.192 301.157 185.642 301.457C185.492 301.006 185.792 300.706 186.093 300.405C186.243 300.255 186.393 300.255 186.693 300.255C185.642 299.202 184.591 298.15 183.541 296.796C183.24 296.345 182.64 295.744 182.79 295.293C182.79 295.143 182.79 294.992 182.94 294.992Z" fill="#F9D5C3"/>
<path d="M250.193 453.163C250.043 452.712 249.743 452.412 248.842 452.261C247.791 452.111 246.74 452.111 245.69 452.111C244.188 451.961 242.837 451.961 241.336 451.81C241.336 450.607 241.486 449.405 241.636 448.352C240.135 448.653 239.234 448.202 237.733 447.751C236.082 447.149 234.281 446.548 232.479 446.097C231.729 445.946 230.978 445.646 230.227 445.796C228.276 446.247 227.225 449.405 227.525 451.058C227.675 452.261 228.576 453.314 229.477 454.066C230.828 455.118 232.93 456.02 234.731 456.321C236.682 456.622 238.334 457.223 239.985 458.426C241.937 459.929 243.438 461.583 245.99 461.884C248.692 462.034 250.794 460.531 250.944 457.674C250.944 456.622 250.794 455.719 250.643 454.817C250.343 454.066 250.343 453.464 250.193 453.163Z" fill="#BFBEED"/>
<path d="M236.682 457.975C236.682 457.824 236.682 457.524 236.682 457.373C236.832 455.268 235.932 453.464 235.181 451.359C234.881 450.607 234.581 449.856 233.98 449.404C232.629 448.202 230.377 449.254 229.327 450.908C228.876 451.66 228.726 452.412 228.276 453.163C227.525 454.667 226.174 456.321 224.373 456.321C222.121 456.471 219.419 455.569 217.017 455.419C216.116 455.419 215.216 455.268 214.315 455.719C212.363 456.471 211.763 459.779 212.513 461.583C212.964 462.636 214.015 463.538 215.065 463.989C216.717 464.741 218.818 465.192 220.62 465.041C222.571 464.891 224.373 465.041 226.174 465.943C229.176 467.447 232.779 469.401 235.782 466.695C236.532 465.943 236.983 464.891 237.133 463.688C237.433 461.884 236.682 459.929 236.682 457.975Z" fill="#BFBEED"/>
<path d="M245.539 368.364C244.188 369.868 238.484 367.312 238.484 366.56C231.878 361.599 233.079 381.896 235.181 390.015C236.232 394.375 236.082 398.886 236.832 403.246C237.583 408.208 238.784 413.019 240.285 417.68C240.585 418.733 241.036 419.785 241.786 420.537C243.287 422.04 245.839 421.89 248.091 421.439C250.043 421.138 252.144 420.537 253.045 418.733C253.645 417.68 253.495 416.477 253.495 415.275C253.345 412.117 253.345 408.96 253.796 405.802C254.396 402.494 254.997 399.187 255.597 395.879C256.047 393.022 256.648 390.166 256.798 387.159C257.248 381.896 256.648 376.634 255.747 371.371C255.297 368.665 256.047 363.553 252.144 363.102C248.391 363.102 246.44 367.462 245.539 368.364Z" fill="#231869"/>
<path d="M238.334 413.771L237.283 409.26C237.733 410.764 238.033 412.268 238.334 413.771Z" fill="#6E4CB3"/>
<path d="M241.036 416.026C242.086 414.372 244.939 414.523 245.839 414.823C246.59 415.124 251.844 411.967 253.345 410.764C253.195 410.914 253.495 412.117 253.495 412.267C253.495 412.869 253.646 413.32 253.646 413.921C253.796 414.974 253.796 416.026 253.946 417.079C254.096 419.184 254.246 421.289 254.246 423.394C254.246 438.579 251.544 451.81 251.244 453.314C251.094 454.066 250.943 454.817 250.493 455.419C249.742 456.321 247.791 457.073 244.939 456.622C243.137 456.321 241.486 455.118 240.886 453.314C240.285 451.81 240.435 450.006 240.585 448.352C241.036 441.737 241.486 435.271 241.336 428.806C241.186 423.544 240.735 418.282 239.685 413.019L241.036 416.026Z" fill="#231869"/>
<path d="M222.871 383.099C222.571 389.564 222.571 395.879 223.021 402.344C223.322 406.253 223.772 410.012 224.373 413.921C224.673 415.876 224.973 417.68 225.423 419.635C225.724 421.439 226.174 422.041 227.675 423.093C230.828 425.198 236.682 425.048 239.084 421.439C241.636 417.53 240.735 411.365 241.786 406.855C243.137 400.39 247.491 395.729 249.742 389.715C250.493 387.459 250.943 385.354 250.943 383.249H222.871V383.099Z" fill="#3A2C99"/>
<path d="M257.699 352.728C257.849 351.525 257.999 350.472 258.149 349.27C259.05 343.857 260.701 338.595 261.452 333.032C262.052 328.822 262.352 323.409 259.05 320.252C258.449 319.65 257.849 319.199 257.248 318.898C250.643 315.14 244.488 319.65 238.334 321.905C234.28 323.409 230.377 325.213 226.774 327.619C225.574 328.371 224.222 328.972 223.322 330.175C222.421 331.528 221.971 332.881 221.821 334.535C221.67 336.339 222.121 338.144 222.421 339.948C224.222 350.472 224.973 361.148 223.772 371.672C223.172 376.183 222.721 388.662 222.721 388.662C224.222 389.264 225.123 389.865 232.479 390.015C247.641 390.316 255.897 386.407 256.798 385.655C257.699 384.903 257.398 382.949 257.398 381.896C257.549 378.588 257.398 375.281 257.398 371.973C257.098 365.658 256.798 359.193 257.699 352.728Z" fill="#DADAF9"/>
<path d="M225.724 422.492C225.874 425.799 226.174 429.107 226.174 432.415C226.324 434.971 226.324 437.677 226.474 440.233C226.474 442.188 226.624 444.293 226.624 446.247C226.775 457.373 225.424 459.779 230.678 461.433C231.879 461.734 233.08 461.884 234.28 461.583C237.733 460.832 238.334 457.824 238.934 454.216C239.234 452.111 239.384 449.555 239.535 447.45C239.685 445.646 239.685 443.842 239.835 442.037C239.985 439.632 239.985 437.226 240.135 434.821C240.285 431.663 240.285 428.506 240.435 425.348C240.585 421.289 241.036 417.079 241.186 413.019C241.186 412.418 240.886 411.817 240.435 411.516C239.835 411.065 227.525 415.275 226.174 416.628C225.874 416.929 225.424 418.432 225.724 422.492Z" fill="#3A2C99"/>
<path d="M224.823 324.912C220.77 324.311 211.162 322.507 209.061 321.154C203.506 317.846 197.652 311.08 195.25 307.772C194.499 306.72 187.594 311.08 187.594 311.982C187.594 312.734 192.848 321.003 193.749 322.206C197.952 328.371 202.005 331.829 203.506 332.58C207.259 334.685 222.121 340.699 223.022 341C225.724 341.602 230.377 339.046 231.428 337.091C238.334 325.213 226.474 325.213 224.823 324.912Z" fill="#F4F4FA"/>
<path d="M236.532 316.493C236.232 314.839 235.031 315.29 235.631 313.786C236.232 312.584 236.982 311.381 238.033 310.629C239.084 309.727 240.435 309.276 241.786 309.426C242.237 309.426 242.537 309.727 242.987 309.727C244.338 309.727 245.539 309.426 246.89 309.727C248.091 309.877 249.292 310.028 249.292 311.381C249.292 313.335 249.142 315.14 249.742 316.944C250.043 317.996 250.493 318.898 250.643 319.951C250.793 322.056 249.292 324.01 247.491 324.913C245.239 325.965 242.537 325.965 240.135 325.514C238.934 325.364 237.133 325.063 236.532 323.86C235.932 322.958 236.232 321.755 236.382 320.853C236.532 319.5 236.682 317.996 236.532 316.493Z" fill="#F9D5C3"/>
<path d="M239.234 292.136L244.488 295.293C244.038 295.143 243.588 295.143 242.987 295.443L237.733 292.286C238.334 291.985 238.934 291.835 239.234 292.136Z" fill="#3A2C99"/>
<path d="M243.137 295.293L237.883 292.136C238.484 291.835 238.934 291.835 239.384 291.985L244.639 295.143C244.188 294.992 243.738 294.992 243.137 295.293Z" fill="#7F89A6"/>
<path d="M230.978 295.744C230.227 296.646 229.627 297.699 229.477 299.052C229.026 301.758 230.227 304.615 229.627 307.472C229.026 310.178 230.227 316.192 235.481 317.696C238.183 318.447 243.287 317.545 245.089 316.793C247.341 315.741 248.842 313.486 250.193 311.381C260.851 293.94 238.484 286.723 230.978 295.744Z" fill="#F9D5C3"/>
<path d="M254.997 303.412C254.997 303.863 254.847 304.464 254.696 304.916C254.546 305.367 254.546 305.667 254.396 306.118C254.246 306.419 254.246 306.72 254.096 307.02C253.646 308.223 252.895 309.276 252.144 310.328C251.094 311.832 250.043 313.335 248.391 314.087C247.641 314.388 246.89 314.538 246.14 314.688C244.038 315.14 241.036 315.29 239.384 313.486C238.634 312.734 238.334 311.681 238.334 310.629C238.183 309.577 238.183 308.825 237.883 307.772C237.883 307.472 237.733 307.321 237.733 307.02C237.583 306.569 237.433 306.269 237.283 305.968C236.983 305.367 236.532 304.916 235.782 304.765C234.731 304.464 233.38 305.066 232.479 304.464C232.029 304.164 231.728 303.562 231.578 302.961C231.428 302.36 231.128 301.758 230.978 301.307C230.678 300.555 230.377 299.804 229.927 299.202C229.627 298.901 229.327 298.601 229.176 298.3C228.876 297.849 228.576 297.398 228.576 296.796C228.426 294.24 230.527 291.685 232.329 290.181C233.23 289.279 234.28 288.527 235.481 288.076C236.532 287.625 237.583 287.475 238.784 287.324C242.087 286.873 245.689 286.873 248.542 288.527C249.292 288.978 250.043 289.58 250.493 290.331C250.643 290.482 250.643 290.632 250.793 290.782C250.943 290.933 251.244 291.083 251.394 291.233C252.144 291.534 252.895 292.136 253.345 292.587C255.897 295.143 255.447 299.804 254.997 303.412Z" fill="#3A2C99"/>
<path d="M236.982 303.562C239.084 303.412 239.685 305.968 238.183 308.073C237.733 308.674 236.982 309.276 236.532 309.727C232.779 313.035 231.878 309.577 232.929 308.374C235.781 305.818 234.43 303.863 236.982 303.562Z" fill="#F9D5C3"/>
<path d="M236.382 307.622C236.682 307.472 238.934 305.968 237.283 305.066C236.832 304.765 236.382 305.216 236.232 305.667C236.232 305.968 236.232 306.118 236.232 306.419C236.232 306.569 236.082 306.72 236.082 306.87C235.932 307.171 235.181 307.622 235.331 308.073C235.631 308.374 236.382 307.622 236.382 307.622Z" fill="#FFBFA2"/>
<path d="M225.273 262.666C225.123 262.516 224.823 262.215 224.823 261.915C224.823 261.464 225.424 261.313 225.724 261.313C226.324 261.163 226.775 261.313 227.375 261.614C227.976 261.915 228.576 262.215 229.327 262.516C229.477 262.516 229.777 262.666 229.927 262.516C230.077 262.516 230.227 262.366 230.227 262.065C230.227 261.764 229.627 261.464 229.327 261.163C228.876 260.862 228.426 260.561 227.976 260.411C227.225 260.11 226.474 259.659 225.724 259.509C224.823 259.359 223.922 259.509 223.022 259.509C222.872 259.509 222.721 259.509 222.571 259.359C222.271 259.208 222.121 259.058 221.971 258.757C221.821 258.456 221.671 258.156 221.521 258.005V257.855C221.521 257.855 221.521 257.705 221.671 257.705C222.721 257.103 223.922 256.652 224.973 256.352C225.724 256.051 226.625 255.75 227.375 255.449C227.525 255.449 227.825 255.299 227.976 255.299C228.126 255.299 228.426 255.449 228.576 255.6C229.177 255.9 229.777 256.051 230.377 256.352C232.479 257.254 234.13 258.607 235.782 260.11C236.833 261.163 238.033 262.065 239.084 263.117C239.985 263.869 239.385 265.523 238.634 266.275C238.484 266.425 238.334 266.576 238.033 266.726C237.283 267.177 236.382 267.177 235.481 266.876C235.031 266.726 233.08 266.124 232.629 265.824C230.227 265.072 227.825 264.32 225.574 262.967C225.574 262.817 225.424 262.817 225.273 262.666Z" fill="#F9D5C3"/>
<path d="M271.51 267.778C277.815 263.719 280.217 257.103 277.965 254.848C274.062 251.089 270.609 253.645 261.752 261.464C261.602 261.614 261.302 261.764 261.152 261.915C258.9 263.869 256.798 265.673 254.697 267.778C253.496 268.981 252.445 270.184 251.544 271.537C251.394 271.838 251.094 272.139 250.944 272.439C250.794 272.74 250.643 273.191 250.643 273.492C250.343 274.394 250.043 275.446 250.043 276.348C250.043 277.551 250.343 278.904 251.394 279.656C252.445 280.558 254.096 280.709 255.297 280.258C256.798 279.807 262.203 278.754 266.106 274.845C268.507 272.439 263.403 273.041 271.51 267.778Z" fill="#D3D3F5"/>
<path d="M236.832 263.117C237.283 262.516 237.583 262.215 238.184 262.366C238.784 262.516 239.535 262.817 240.135 263.117C241.336 263.719 242.537 264.621 243.738 265.523C245.239 266.576 246.89 267.478 248.392 268.38C249.592 269.132 250.643 269.733 251.694 270.635C253.646 272.139 258.149 275.446 256.047 278.453C255.297 279.506 253.496 280.558 252.144 280.408C251.094 280.258 249.743 279.055 248.992 278.453C247.04 277.1 245.239 275.597 243.287 274.244C241.036 272.439 238.784 270.485 236.532 268.681C235.631 267.929 235.031 267.929 235.331 266.576C235.632 265.523 236.082 264.471 236.682 263.569C236.832 263.268 236.832 263.117 236.832 263.117Z" fill="#D3D3F5"/>
<path d="M299.432 258.757C299.432 257.554 299.582 256.201 299.582 254.998C299.732 252.442 299.582 249.736 299.131 247.18C298.531 244.023 297.48 241.166 295.679 238.459C295.378 238.008 295.078 237.708 294.778 237.407C293.877 237.557 292.826 237.257 292.076 237.708C290.875 238.309 290.124 240.414 289.524 241.467C288.173 244.624 287.722 248.082 288.473 251.39C288.773 252.743 289.374 253.645 289.674 254.848C290.274 256.351 290.725 257.705 291.475 259.058C292.526 260.712 294.027 262.065 295.979 262.366C296.88 262.516 297.93 262.366 298.681 261.764C299.432 260.862 299.432 259.81 299.432 258.757Z" fill="#302534"/>
<path d="M298.831 258.156C295.979 256.803 290.725 254.247 287.873 252.442C287.422 252.142 285.621 253.344 285.02 253.344C281.417 252.593 277.514 252.743 274.062 254.247C274.062 254.247 274.062 254.247 273.912 254.247V276.649H295.378L298.831 258.156Z" fill="#FFBFA2"/>
<path d="M290.725 256.502C290.725 256.502 277.364 263.268 277.965 255.75C278.866 245.376 279.466 244.323 284.12 242.97C285.321 242.669 285.921 241.467 287.272 241.617C292.076 241.767 290.124 244.323 289.824 246.128C288.924 251.39 290.725 253.645 290.725 256.502Z" fill="#FFBFA2"/>
<path d="M278.715 252.442H278.565C279.016 252.292 279.316 252.442 278.715 252.442Z" fill="#E3E2F2"/>
<path d="M305.586 265.824C305.586 266.275 305.586 266.726 305.586 267.177C305.586 268.38 305.136 269.583 304.986 270.785C304.686 272.139 303.935 273.492 303.185 274.695C302.434 276.048 301.683 277.251 300.933 278.604C300.182 279.957 299.732 281.31 299.131 282.663C297.63 285.821 296.429 288.978 295.829 292.436C295.378 295.143 295.378 297.999 295.529 300.706C295.679 302.059 295.829 303.412 295.829 304.615C295.829 304.916 295.829 305.667 295.829 305.968C295.679 306.419 295.529 306.569 295.078 307.02C292.676 308.825 289.824 310.028 286.972 310.479C283.819 311.08 280.367 310.779 277.364 310.328C276.464 310.178 275.563 310.028 274.812 309.877C271.209 308.975 268.507 307.923 268.057 307.622C267.457 307.171 267.757 307.321 268.207 302.36C270.459 282.513 261.752 282.212 265.205 271.838C265.805 270.034 267.006 268.38 267.757 266.576C270.459 260.11 268.808 252.893 278.715 252.442C278.115 252.593 272.41 262.366 279.316 265.222C283.819 267.027 292.676 262.215 294.628 256.051C297.63 257.404 300.182 258.306 302.734 260.11C304.536 261.614 305.436 263.569 305.586 265.824Z" fill="#F4F4FA"/>
<path d="M287.422 398.285C287.122 398.886 286.822 399.488 286.672 400.089C285.921 402.344 285.17 404.449 284.27 406.705C283.519 408.659 283.369 410.764 283.069 412.719C282.919 414.373 282.318 416.327 283.369 417.68C284.42 419.033 286.521 419.334 288.173 418.733C289.824 418.131 291.025 416.778 291.776 415.275C292.676 413.47 292.977 411.516 293.277 409.411C293.577 407.156 293.877 404.9 294.328 402.645C294.478 401.743 294.628 400.841 294.328 399.939C293.727 397.533 289.524 395.879 287.722 397.834C287.572 397.834 287.422 397.984 287.422 398.285Z" fill="#19121B"/>
<path d="M269.408 402.645C269.408 401.442 269.859 400.39 270.609 399.488C271.66 397.984 273.161 396.781 274.212 395.278C274.812 394.526 275.113 393.924 275.563 393.022C276.013 392.271 276.914 391.519 277.515 390.767C277.665 390.617 277.665 390.617 277.815 390.466C278.866 389.414 280.217 388.512 281.718 388.061C282.919 387.76 285.02 387.61 285.771 388.813C286.972 390.316 286.822 392.12 286.372 393.774C285.921 395.578 284.27 396.18 283.069 397.383C282.468 397.984 282.018 398.736 281.267 399.337C280.367 400.239 279.616 401.141 278.866 401.893C277.665 403.096 276.464 404.149 274.963 404.75C272.711 405.953 269.558 405.802 269.408 402.645C269.408 402.645 269.408 402.795 269.408 402.645Z" fill="#19121B"/>
<path d="M264.304 356.336C265.505 359.043 273.612 379.04 275.413 385.655C276.164 388.512 277.064 392.421 274.963 394.977C274.512 395.578 274.062 396.029 273.762 396.781C273.461 397.533 273.461 398.285 274.062 398.886C274.512 399.337 275.263 399.337 275.863 399.187C276.464 399.036 277.064 398.585 277.515 398.134C279.016 396.781 280.667 395.428 281.868 393.924C282.619 393.022 283.219 392.12 283.819 391.068C284.42 390.015 284.87 389.113 284.27 388.061C283.069 385.805 282.619 383.099 282.468 380.543C282.318 378.889 282.318 377.235 282.468 375.732C282.468 374.228 282.769 372.725 282.619 371.221C282.468 368.214 282.318 365.057 281.568 362.2C280.967 360.245 280.217 358.291 278.866 356.787C277.515 355.133 275.713 354.231 274.362 352.728C273.461 351.826 272.411 350.924 271.059 351.224L264.304 356.336Z" fill="#FFBFA2"/>
<path d="M299.882 322.056C299.882 318.297 299.732 316.042 299.131 312.283C298.831 309.877 296.88 303.262 296.88 303.262C296.88 303.262 286.972 307.472 283.819 307.772C280.066 308.223 278.415 308.223 275.563 307.622C274.212 307.321 274.062 307.472 274.062 308.825C274.062 310.779 274.812 312.884 275.113 314.689C276.464 321.905 278.715 329.122 279.766 336.339C280.667 342.203 280.367 348.518 281.267 354.532C281.568 357.088 282.919 359.644 284.12 361.899C285.471 364.455 286.822 365.809 289.224 365.658C290.425 365.508 292.226 364.305 292.977 363.253C293.427 362.651 293.427 361.448 293.727 360.697C294.328 358.592 294.928 356.487 295.378 354.382C295.529 353.931 295.529 353.48 295.679 353.029V352.878C296.73 347.165 297.48 341.301 298.231 335.588C299.131 331.378 300.032 326.717 299.882 322.056Z" fill="#F9D5C3"/>
<path d="M280.667 350.773C281.117 357.84 284.12 362.952 285.171 369.868C286.522 377.536 286.672 385.354 286.672 393.022C286.672 396.33 286.972 399.939 286.371 403.096C286.071 405.201 284.27 408.509 285.921 410.313C286.522 410.914 287.422 411.365 288.323 411.365C289.074 411.365 289.824 411.215 290.425 410.914C291.475 410.163 291.776 408.208 292.076 407.005C293.427 402.795 294.178 398.585 295.379 394.375C296.579 389.715 298.531 385.204 299.282 380.543C299.732 377.837 299.582 374.98 299.582 372.123C299.432 366.56 297.63 359.043 295.379 354.081C294.778 352.878 294.628 354.382 293.427 354.081L280.667 350.773Z" fill="#F9D5C3"/>
<path d="M262.052 350.773C261.602 353.329 261.302 355.584 263.253 358.291C265.505 361.298 269.108 362.952 272.861 363.252C276.614 363.553 280.217 363.102 283.97 362.501C288.173 361.899 292.226 361.147 296.429 360.546C297.33 360.396 298.381 360.245 299.131 359.494C299.882 358.742 299.732 357.539 299.732 356.486C299.282 351.374 298.981 346.563 299.282 341.602C299.582 335.888 300.483 330.175 300.483 324.461C300.783 319.049 300.483 313.486 298.531 308.374C298.081 307.171 297.48 303.863 296.279 303.412C294.478 302.66 290.875 305.066 289.224 305.667C286.822 306.419 278.415 308.073 276.614 308.073C272.861 308.223 272.11 305.066 267.457 305.216C266.106 305.216 265.355 314.538 265.205 315.891C264.755 319.049 264.304 322.356 264.004 325.514C263.854 328.521 264.154 331.227 264.154 334.234C264.154 338.745 263.704 343.406 262.953 347.766C262.503 348.668 262.353 349.721 262.052 350.773Z" fill="#3A2C99"/>
<path d="M267.156 304.916C267.607 303.262 268.057 301.758 268.057 301.758C268.057 301.758 274.062 307.171 282.318 306.569C290.124 305.968 295.679 301.457 295.529 301.006C295.979 301.758 296.58 302.51 297.03 303.262C288.473 310.629 276.013 310.479 267.156 304.916Z" fill="#231869"/>
<path d="M285.771 250.037C286.071 249.736 286.522 249.586 286.822 249.285C286.972 249.135 287.122 248.984 287.272 248.834C288.623 247.631 289.374 245.827 290.425 244.474C291.475 242.97 291.926 241.016 292.226 239.211C292.826 235.603 291.776 231.844 289.224 229.138C286.371 226.131 281.868 224.928 277.815 225.98C276.764 226.281 275.713 226.732 274.662 227.183C273.762 227.634 273.011 228.085 272.26 228.837C271.81 229.288 271.51 229.889 271.21 230.34C270.609 231.393 270.309 232.295 270.009 233.498C269.858 234.099 269.858 234.701 269.858 235.302C269.858 236.355 270.009 237.407 270.159 238.61C270.309 239.512 270.459 240.414 270.459 241.316C270.459 242.218 270.009 242.97 269.708 243.872C269.558 244.323 269.258 245.225 269.408 245.676C269.558 246.278 270.159 246.729 270.459 247.18C270.759 247.781 270.909 248.082 270.909 248.834C270.909 249.285 271.059 249.586 271.21 249.886C271.36 250.187 271.21 250.488 271.36 250.788C271.36 251.089 271.66 251.54 271.81 251.841C271.96 252.292 272.11 252.593 272.26 252.893C273.461 254.998 275.113 255.149 277.364 254.397C279.016 253.796 280.517 252.893 282.168 251.991C283.519 251.39 284.72 250.788 285.771 250.037Z" fill="#F9D5C3"/>
<path d="M296.129 235.453C296.129 234.4 295.829 233.498 295.529 232.445C295.228 231.543 294.778 230.641 294.328 229.889C294.027 229.438 293.727 228.987 293.427 228.687C293.127 228.386 292.526 227.935 292.376 227.634C292.376 227.634 290.575 223.274 282.769 223.274C279.766 223.274 276.914 224.326 274.362 225.98C272.561 227.033 271.51 228.085 270.609 230.04C269.708 231.994 269.408 234.099 269.408 236.204C269.408 236.505 269.408 236.806 269.708 237.106C270.009 237.407 270.609 237.407 271.059 237.257C272.861 236.806 274.212 236.204 275.863 235.302C276.614 234.851 278.415 233.949 279.316 234.4C280.067 234.701 279.466 236.505 279.766 237.257C280.067 238.309 280.667 239.211 281.568 239.813C282.318 240.414 283.219 240.715 284.12 241.166C285.02 241.617 285.771 242.218 285.921 243.271C286.221 244.323 285.771 245.526 286.672 246.128C287.723 246.729 290.575 244.323 290.425 244.624C289.674 245.827 289.824 245.526 289.524 247.631C292.827 245.676 295.379 242.218 295.979 238.309C296.129 237.407 296.129 236.355 296.129 235.453Z" fill="#3E3544"/>
<path d="M289.374 240.564C291.476 240.414 291.926 242.97 290.575 245.075C290.124 245.676 289.374 246.127 288.924 246.579C285.171 249.736 284.27 246.278 285.471 245.225C288.173 242.669 286.822 240.715 289.374 240.564Z" fill="#F9D5C3"/>
<path d="M288.023 245.376C288.323 245.225 290.575 243.722 289.074 242.82C288.623 242.519 288.173 242.97 288.023 243.421C288.023 243.722 288.023 243.872 288.023 244.173C288.023 244.323 287.873 244.474 287.873 244.624C287.723 244.925 286.972 245.225 287.122 245.827C287.272 246.128 287.873 245.376 288.023 245.376Z" fill="#FFBFA2"/>
<path d="M299.882 295.143C299.732 295.293 299.432 295.594 299.131 295.744C298.681 295.894 298.231 296.045 297.78 295.894C297.18 295.744 296.73 295.143 296.429 294.692C295.829 293.94 295.078 293.188 294.328 292.436C294.178 292.286 293.877 291.985 293.727 292.136C293.427 292.136 293.277 292.436 293.277 292.587C293.277 292.737 293.427 293.489 293.277 293.489C293.127 293.489 292.676 293.188 292.376 293.188C292.076 293.038 291.776 293.038 291.325 292.887C290.575 292.737 289.974 292.587 289.224 292.436C287.873 292.286 286.371 292.286 285.02 292.436C284.87 292.436 284.72 292.436 284.72 292.587C284.57 292.587 284.57 292.737 284.57 292.887C284.57 293.038 284.72 293.188 284.87 293.188C285.771 293.639 286.822 293.789 287.873 294.09C288.323 294.24 288.623 294.391 289.074 294.541C289.674 294.692 290.124 294.842 290.725 295.143C289.074 294.692 287.272 294.541 285.471 294.541C285.171 294.541 284.27 294.541 283.97 294.842C283.669 295.293 284.42 295.594 284.72 295.744C285.621 296.045 286.672 296.496 287.572 296.796C286.522 296.345 285.321 296.345 284.27 296.496C283.669 296.496 283.369 296.496 283.519 297.248C283.669 297.699 283.97 297.999 284.42 298.15C285.02 298.3 285.771 298.3 286.371 298.45C287.272 298.601 288.173 298.901 289.074 299.352C288.323 299.352 287.572 299.503 286.822 299.653C286.221 299.804 285.621 300.255 285.171 300.706C285.02 301.006 284.87 301.758 285.471 301.758C286.071 301.758 286.672 301.758 287.272 301.758C288.473 301.758 289.824 301.457 291.025 301.758C292.827 302.059 294.478 303.111 296.279 303.262C297.931 303.412 299.582 302.961 300.933 302.36C302.284 301.758 303.335 300.555 304.536 299.653C305.286 299.202 306.187 298.901 306.787 298.3C307.538 297.548 308.139 296.796 308.889 296.045C309.189 295.744 309.49 295.293 309.49 294.842C309.49 294.24 309.039 293.639 308.439 293.188C307.688 292.737 306.938 292.286 306.037 292.136C305.286 291.985 304.235 291.835 303.485 292.136C302.434 292.587 301.533 293.639 300.633 294.391C300.483 294.692 300.182 294.992 299.882 295.143Z" fill="#F9D5C3"/>
<path d="M302.884 260.261C302.734 260.11 302.434 259.96 302.284 259.81C301.683 259.359 300.783 258.907 300.032 259.208C299.432 259.359 298.981 259.96 298.831 260.561C298.08 262.065 297.93 263.869 297.78 265.523C297.63 267.177 297.63 268.981 297.93 270.635C298.231 272.139 298.831 274.093 300.032 275.146C301.233 276.048 302.434 277.1 303.635 278.153C306.037 280.107 308.439 282.062 310.991 284.016C312.192 284.919 313.392 286.121 314.744 286.723C318.647 288.226 322.4 286.272 323 283.415C323.3 282.363 322.85 281.16 322.4 280.107C321.649 278.754 320.598 277.702 319.547 276.499C318.346 275.146 317.145 273.792 315.944 272.59C312.792 269.132 309.489 265.523 305.736 262.516C304.836 261.614 303.785 261.012 302.884 260.261Z" fill="#F4F4FA"/>
<path d="M303.635 300.255C305.286 300.706 306.487 299.503 307.688 298.601C310.39 296.496 320.298 289.73 322.85 283.716C323.45 282.212 319.848 280.859 318.196 279.506C316.995 278.454 315.044 279.055 313.843 279.506C312.342 279.957 300.032 294.241 299.732 294.992C299.282 296.646 302.284 299.954 303.635 300.255Z" fill="#F4F4FA"/>
<g opacity="0.2">
<path d="M251.094 165.689C251.094 173.808 245.389 183.581 238.484 187.64L55.6405 293.338C48.585 297.398 42.8805 294.09 42.8805 286.122L42.4302 150.654V137.423C42.4302 129.303 48.1346 119.531 55.0401 115.471L237.883 9.62259C244.939 5.56307 250.643 8.87083 250.643 16.8395V30.0706L251.094 165.689Z" fill="#BFBEED"/>
</g>
<g opacity="0.2">
<path d="M260.851 175.011C260.851 183.13 255.147 192.903 248.241 196.962L65.3981 302.66C58.3426 306.72 52.6381 303.412 52.6381 295.443L52.1877 159.975V146.744C52.1877 138.625 57.8922 128.852 64.7976 124.793L247.641 19.0948C254.696 15.0352 260.401 18.343 260.401 26.3117V39.5428L260.851 175.011Z" fill="#BFBEED"/>
</g>
<path d="M266.105 25.56L269.258 27.3643C267.006 26.0111 263.854 26.1615 260.401 28.2664L257.249 26.4622C260.701 24.3572 263.854 24.2069 266.105 25.56Z" fill="#F4F4FA"/>
<path d="M260.401 28.2664L257.249 26.4622C260.701 24.5076 263.854 24.2069 266.105 25.5601L269.258 27.3643C267.006 26.0112 263.854 26.3119 260.401 28.2664Z" fill="#FE8786"/>
<path d="M71.8534 308.675L68.701 306.87C66.4492 305.517 65.0981 302.811 65.0981 298.902L68.2506 300.706C68.2506 304.615 69.6017 307.321 71.8534 308.675Z" fill="#BFBEED"/>
<path d="M71.8534 308.675L68.701 306.87C66.4492 305.517 65.0981 302.811 65.0981 298.902L68.2506 300.706C68.2506 304.615 69.6017 307.321 71.8534 308.675Z" fill="#BFBEED"/>
<path d="M67.8001 154.112L64.4976 152.308L64.6477 165.238L67.8001 167.042V154.112Z" fill="#FF6661"/>
<path d="M64.6477 165.238L64.9479 298.751L68.2505 300.556L67.8002 167.042L64.6477 165.238Z" fill="#BFBEED"/>
<path d="M80.2599 132.461L77.1074 130.657L257.249 26.4622L260.401 28.2664L80.2599 132.461Z" fill="#FE8786"/>
<path d="M67.8002 154.112L64.6477 152.308C64.6477 144.339 70.2021 134.716 77.1075 130.657L80.2599 132.461C73.3545 136.52 67.8002 146.143 67.8002 154.112Z" fill="#F4F4FA"/>
<path d="M67.8002 154.112L64.6477 152.308C64.6477 144.339 70.2021 134.716 77.1075 130.657L80.2599 132.461C73.3545 136.52 67.8002 146.143 67.8002 154.112Z" fill="#FF6661"/>
<path d="M273.311 181.927C273.311 189.896 267.757 199.518 260.852 203.578L80.7104 307.772C73.805 311.832 68.1005 308.524 68.1005 300.555L67.6501 167.042V153.961C67.6501 145.993 73.2045 136.37 80.1099 132.311L260.251 28.116C267.156 24.0565 272.861 27.3642 272.861 35.3329V48.4136L273.311 181.927Z" fill="#F3F2FC"/>
<path d="M273.011 48.4136L67.8 167.042V153.961C67.8 145.993 73.3544 136.37 80.2598 132.311L260.401 28.116C267.306 24.0565 273.011 27.3642 273.011 35.3329V48.4136Z" fill="#FF6D04"/>
<path d="M201.705 130.957C201.705 113.216 189.395 105.999 174.233 114.719C159.072 123.44 146.762 144.94 146.762 162.682C146.762 180.423 159.072 187.64 174.233 178.92C189.395 170.049 201.705 148.549 201.705 130.957Z" fill="#3A2C99"/>
<path d="M182.79 124.192C182.79 129.604 179.037 136.37 174.233 139.077C169.58 141.783 165.677 139.528 165.677 134.115C165.677 128.702 169.43 121.936 174.233 119.23C179.037 116.524 182.79 118.629 182.79 124.192Z" fill="white"/>
<path d="M187.594 162.231V145.842C187.594 138.625 182.64 135.769 176.485 139.227L172.132 141.783C165.977 145.391 161.023 154.112 161.023 161.329V177.717L187.594 162.231Z" fill="white"/>
<path d="M176.035 139.528L172.432 141.633L176.035 139.528Z" fill="#BFBEED"/>
<path d="M217.017 175.612L131.45 225.078V210.644L217.017 161.178V175.612Z" fill="white"/>
<path d="M190.596 222.071L158.621 240.565V249.887L190.596 231.393V222.071Z" fill="#3A2C99"/>
<path d="M217.017 197.864L131.45 247.481V233.047L217.017 183.43V197.864Z" fill="white"/>
<path d="M137.905 236.806L136.404 237.106L136.704 236.054L138.205 235.753V233.799L138.956 233.348V235.453L140.457 233.949L140.757 234.701L139.106 236.204L140.157 237.257L139.556 238.159L138.656 236.956L137.755 239.211L137.154 239.061L137.905 236.806Z" fill="#F22B38"/>
<path d="M142.408 234.099L140.907 234.4L141.207 233.348L142.709 233.047V231.092L143.459 230.641V232.746L144.96 231.243L145.261 231.995L143.609 233.498L144.66 234.551L144.06 235.453L143.159 234.25L142.258 236.505L141.658 236.355L142.408 234.099Z" fill="#F22B38"/>
<path d="M146.912 231.544L145.411 231.844L145.711 230.792L147.212 230.491V228.537L147.963 228.085V230.19L149.464 228.687L149.764 229.439L148.113 230.942L149.164 231.995L148.563 232.897L147.663 231.694L146.762 233.949L146.161 233.799L146.912 231.544Z" fill="#F22B38"/>
<path d="M151.415 228.837L149.914 229.138L150.215 228.085L151.716 227.785V225.83L152.466 225.379V227.484L153.967 225.98L154.268 226.732L152.616 228.236L153.667 229.288L153.067 230.19L152.166 228.987L151.265 231.243L150.665 231.092L151.415 228.837Z" fill="#F22B38"/>
<path d="M156.069 226.281L154.568 226.582L154.868 225.529L156.37 225.229V223.274L157.12 222.823V224.928L158.621 223.424L158.922 224.176L157.27 225.68L158.321 226.732L157.721 227.634L156.82 226.431L155.919 228.687L155.319 228.536L156.069 226.281Z" fill="#F22B38"/>
<path d="M253.195 46.6093C253.195 48.2632 254.396 49.015 255.897 48.1129C257.399 47.2107 258.6 45.2562 258.6 43.4519C258.6 41.6477 257.399 41.0463 255.897 41.9484C254.396 42.8505 253.195 44.9555 253.195 46.6093Z" fill="#F4F4FA"/>
<path d="M244.789 51.4206C244.789 53.0745 245.99 53.8263 247.491 52.9242C248.992 52.0221 250.193 50.0675 250.193 48.2632C250.193 46.6093 248.992 45.8576 247.491 46.7597C245.99 47.6618 244.789 49.7668 244.789 51.4206Z" fill="#F4F4FA"/>
<path d="M236.382 56.3823C236.382 58.0362 237.583 58.788 239.084 57.8858C240.585 56.9837 241.786 55.0291 241.786 53.2249C241.786 51.571 240.585 50.8193 239.084 51.7214C237.583 52.6235 236.382 54.5781 236.382 56.3823Z" fill="#F4F4FA"/>
<path d="M11.5059 470.003L43.3308 488.497C39.4278 486.241 37.0259 481.58 37.0259 474.814L5.35107 456.321C5.35107 463.087 7.75296 467.748 11.5059 470.003Z" fill="#FFB700"/>
<path d="M37.176 474.814L5.35107 456.321C5.35107 463.087 7.75296 467.748 11.656 470.003L43.481 488.497C39.5779 486.241 37.176 481.58 37.176 474.814Z" fill="#FFB700"/>
<path d="M146.161 310.629L114.336 292.136C110.433 289.881 105.029 290.181 99.1746 293.639L130.999 312.133C136.854 308.675 142.258 308.374 146.161 310.629Z" fill="#FFDE38"/>
<path d="M146.161 310.629L114.337 292.136C110.433 289.88 105.179 290.181 99.4749 293.489L131.3 311.982C137.004 308.675 142.408 308.374 146.161 310.629Z" fill="#FFDE38"/>
<path d="M131.3 311.982L99.4748 293.489C99.3247 293.489 99.3247 293.639 99.1746 293.639L130.999 312.133C131.15 311.982 131.15 311.982 131.3 311.982Z" fill="#FFDE38"/>
<path d="M36.8757 391.068L5.05078 372.574L5.35102 456.321L37.176 474.814L36.8757 391.068Z" fill="#FFB700"/>
<path d="M130.999 312.133L99.1745 293.639L26.3674 335.588L58.3425 354.081L130.999 312.133Z" fill="#FFDE38"/>
<path d="M58.3426 354.081L26.5176 335.588C14.8085 342.354 5.20093 359.043 5.20093 372.574L37.0259 391.068C36.8758 377.536 46.4833 360.997 58.3426 354.081Z" fill="#FFDE38"/>
<path d="M58.3426 354.081L26.5177 335.588C23.9657 337.091 21.5638 338.895 19.312 341.151L51.137 359.644C53.3887 357.539 55.7906 355.585 58.3426 354.081Z" fill="#FFDE38"/>
<path d="M50.9868 359.794L19.1618 341.301C10.9054 349.57 5.05078 362.05 5.05078 372.725L36.8757 391.218C36.8757 380.543 42.8804 367.913 50.9868 359.794Z" fill="#FFDE38"/>
<path d="M58.3426 354.081C46.6334 360.847 37.0259 377.536 37.0259 391.068L37.3261 474.815C37.3261 488.346 47.0838 493.909 58.7929 486.993L131.45 444.894C143.159 438.128 152.767 421.439 152.767 407.908L152.466 324.161C152.466 310.629 142.709 305.066 131 311.832L58.3426 354.081Z" fill="#FFC400"/>
<path d="M108.782 424.747C108.782 419.184 104.879 416.778 100.075 419.635C95.2714 422.492 91.2183 429.258 91.2183 434.821C91.2183 438.58 92.8696 440.684 95.4216 441.136V457.073L104.429 451.811V435.873C107.131 432.565 108.782 428.356 108.782 424.747Z" fill="#262028"/>
<path d="M130.999 259.058L130.849 303.563C130.849 305.066 129.798 306.72 127.847 307.772C123.794 310.178 117.189 310.028 113.286 307.772C111.334 306.57 110.283 305.066 110.283 303.412L110.433 258.908C110.433 251.089 108.332 245.376 104.429 243.271C100.676 241.016 94.5208 241.918 87.7655 245.827L76.3566 252.443C58.4926 262.667 43.3307 288.828 43.1806 309.426L43.0304 353.931C43.0304 355.434 41.9796 357.088 40.0281 358.141C37.4761 359.644 33.8733 360.246 30.4206 359.795C28.6192 359.494 26.8177 359.043 25.3166 358.141C24.7161 357.84 24.2657 357.539 23.9655 357.088C22.9147 356.036 22.3142 354.983 22.3142 353.78L22.4643 309.276C22.4643 295.744 26.9679 280.559 35.2243 266.576C43.3307 252.593 54.2893 241.166 65.9984 234.4L77.4074 227.785C83.8624 224.026 90.3175 221.921 96.4723 221.47C103.078 220.868 109.382 222.222 114.637 225.379C119.891 228.536 124.244 233.348 126.946 239.362C129.648 245.075 130.999 251.691 130.999 259.058Z" fill="#DADAF9"/>
<path d="M109.983 245.827C108.782 245.075 107.431 244.775 105.93 244.624C108.782 247.331 110.283 252.443 110.283 259.058L110.133 303.563C110.133 305.066 111.184 306.72 113.135 307.923C113.886 308.374 114.787 308.825 115.837 309.126L115.988 261.614C115.988 253.796 113.886 247.932 109.983 245.827Z" fill="#BFBEED"/>
<path d="M116.138 228.085C112.535 227.033 108.632 226.732 104.729 227.033C98.5741 227.484 92.119 229.739 85.664 233.348L74.255 239.963C62.5458 246.729 51.5873 258.156 43.4809 272.139C35.3745 286.122 30.7209 301.307 30.7209 314.839L30.5708 359.795C28.7694 359.494 26.968 359.043 25.4668 358.141C24.8663 357.84 24.416 357.539 24.1157 357.088L24.2658 312.133C24.2658 298.601 28.7694 283.415 37.0258 269.433C45.1322 255.45 56.0908 244.023 67.8 237.257L79.2089 230.641C85.664 226.883 92.119 224.778 98.2738 224.327C104.729 223.725 110.884 225.078 116.138 228.085Z" fill="#F4F4FA"/>
</g>
<defs>
<filter id="filter0_d_5_1876" x="0" y="0" width="327" height="498" filterUnits="userSpaceOnUse" color-interpolation-filters="sRGB">
<feFlood flood-opacity="0" result="BackgroundImageFix"/>
<feColorMatrix in="SourceAlpha" type="matrix" values="0 0 0 0 0 0 0 0 0 0 0 0 0 0 0 0 0 0 127 0" result="hardAlpha"/>
<feOffset dy="4"/>
<feGaussianBlur stdDeviation="2"/>
<feComposite in2="hardAlpha" operator="out"/>
<feColorMatrix type="matrix" values="0 0 0 0 0 0 0 0 0 0 0 0 0 0 0 0 0 0 0.25 0"/>
<feBlend mode="normal" in2="BackgroundImageFix" result="effect1_dropShadow_5_1876"/>
<feBlend mode="normal" in="SourceGraphic" in2="effect1_dropShadow_5_1876" result="shape"/>
</filter>
<clipPath id="clip0_5_1876">
<rect width="319" height="490" fill="white" transform="translate(4)"/>
</clipPath>
</defs>
</svg>
