<svg width="532" height="538" viewBox="0 0 532 538" fill="none" xmlns="http://www.w3.org/2000/svg">
<circle cx="399" cy="125" r="125" fill="url(#paint0_linear_0_1)"/>
<circle cx="97" cy="391" r="97" fill="url(#paint1_linear_0_1)"/>
<g filter="url(#filter0_d_0_1)">
<circle cx="271" cy="273" r="257" fill="url(#paint2_linear_0_1)"/>
<g clip-path="url(#clip0_0_1)" filter="url(#filter1_d_0_1)">
<path d="M249.019 430.81V434.056L238.551 433.361L238.784 430.346L249.019 430.81Z" fill="url(#paint3_linear_0_1)"/>
<path d="M329.733 440.086V441.477C329.733 441.477 344.387 443.332 351.133 443.332C357.879 443.332 362.531 442.869 362.531 442.869V441.477L329.733 440.086Z" fill="url(#paint4_linear_0_1)"/>
<path d="M232.969 144.41C232.969 144.41 235.993 140.699 235.993 134.438C236.225 128.409 233.434 120.524 233.434 120.524L251.345 119.828C251.345 119.828 252.042 127.713 254.834 132.119C257.625 136.525 259.951 138.38 259.951 138.38L254.601 168.528L232.969 144.41Z" fill="url(#paint5_linear_0_1)"/>
<path d="M312.985 166.905C312.985 166.905 329.733 181.283 336.479 186.152C341.363 189.631 358.809 203.777 358.809 203.777L355.785 208.647C355.785 208.647 321.824 195.429 319.964 194.269C318.568 193.573 313.451 191.022 298.564 180.123L312.985 166.905Z" fill="url(#paint6_linear_0_1)"/>
<path d="M217.849 202.849C217.384 203.777 209.476 221.634 203.66 223.025C197.613 224.416 197.613 194.733 199.008 189.399C200.404 184.065 205.056 183.37 205.056 183.37L217.849 202.849Z" fill="url(#paint7_linear_0_1)"/>
<path d="M199.008 184.761C199.008 184.761 207.847 158.324 210.639 155.773C213.43 153.222 232.969 144.41 232.969 144.41C232.969 144.41 246.227 152.99 250.182 151.135C254.136 149.28 260.184 138.38 260.184 138.38C260.184 138.38 280.886 138.149 282.049 138.38C286.236 138.844 314.846 168.064 314.846 168.064L304.844 185.457L291.818 174.557C291.818 174.557 289.26 183.833 289.492 190.79C289.725 197.747 290.655 200.994 290.888 208.183C291.12 215.372 288.329 220.706 289.957 223.257C291.586 225.808 292.749 229.518 292.283 232.765C292.051 236.011 289.027 238.099 289.027 238.099L237.388 247.375C237.388 247.375 231.108 243.664 230.41 240.881C229.48 237.867 231.806 233.924 230.875 231.837C229.945 229.518 226.688 225.808 226.223 222.097C225.991 218.387 226.456 213.749 224.828 210.502C223.199 207.255 219.943 196.356 219.943 196.356C219.943 196.356 218.78 200.994 216.686 200.994C214.593 201.226 199.008 184.761 199.008 184.761Z" fill="url(#paint8_linear_0_1)"/>
<path d="M308.798 160.643C307.868 160.875 304.379 161.571 302.053 166.673C299.727 171.774 298.098 183.833 298.796 184.761C299.494 185.689 306.705 191.022 307.17 190.095C307.635 189.167 309.961 178.036 311.59 175.485C313.218 172.934 316.94 169.919 316.94 168.992C316.707 168.064 309.729 160.411 308.798 160.643Z" fill="url(#paint9_linear_0_1)"/>
<path d="M201.102 188.935C202.497 189.631 208.778 194.501 211.569 202.386C212.965 206.096 213.663 212.125 214.36 212.125C215.058 212.125 215.756 208.415 217.152 207.719C218.547 207.024 219.478 206.56 219.943 204.473C220.408 201.226 218.78 195.66 214.593 188.935C208.313 178.963 200.637 177.108 200.869 177.572C201.334 178.036 201.102 188.935 201.102 188.935Z" fill="url(#paint10_linear_0_1)"/>
<path d="M188.308 154.845C188.308 154.845 190.402 194.501 191.565 202.386C192.96 212.589 199.008 223.952 203.66 222.793C208.313 221.633 211.336 203.313 206.452 190.095C201.8 176.876 193.193 153.222 193.193 153.222L188.308 154.845Z" fill="url(#paint11_linear_0_1)"/>
<path d="M237.621 247.607C237.621 247.607 235.295 261.753 235.295 268.246C235.76 309.293 238.784 430.578 238.784 430.578L249.019 431.042C249.019 431.042 257.16 399.039 259.021 389.531C260.882 379.559 271.116 275.899 271.116 275.899C271.116 275.899 292.051 346.397 300.657 369.124C306.472 384.661 328.57 428.491 328.57 428.491L338.805 425.708C338.805 425.708 306.938 294.683 295.54 251.317C294.61 247.839 289.26 238.331 289.26 238.331L237.621 247.607Z" fill="url(#paint12_linear_0_1)"/>
<path d="M271.581 138.38L281.118 232.765L276.931 233.46L267.395 138.38H271.581Z" fill="url(#paint13_linear_0_1)"/>
<path d="M224.362 148.352L253.671 237.867L248.786 239.258L220.176 150.439L224.362 148.352Z" fill="url(#paint14_linear_0_1)"/>
<path d="M329.733 432.433V440.086C329.733 440.086 347.411 441.941 352.761 441.941C358.576 441.941 362.531 441.245 362.531 441.245C362.531 441.245 361.6 435.911 358.344 434.752C355.32 433.361 351.366 434.056 351.133 433.824C350.668 433.592 340.898 429.186 340.898 429.186L329.733 432.433Z" fill="url(#paint15_linear_0_1)"/>
<path d="M238.319 433.129C234.83 435.68 223.897 439.39 223.199 440.086C221.571 441.245 221.571 443.332 221.571 443.332H250.414L249.251 434.056C249.019 434.056 240.412 431.737 238.319 433.129Z" fill="url(#paint16_linear_0_1)"/>
<path d="M232.271 112.639C231.573 117.973 235.295 123.307 237.388 128.872C239.249 133.742 248.088 136.757 250.647 137.221C256.695 138.149 260.649 128.409 262.277 116.814C263.905 105.218 259.951 94.7828 250.879 93.6233C241.11 92.2318 233.899 101.044 232.271 112.639Z" fill="url(#paint17_linear_0_1)"/>
<path d="M261.812 104.986C261.812 104.986 261.812 101.508 261.347 99.6527C260.184 96.1742 257.16 93.3913 249.949 92.4637C237.388 90.6085 232.271 96.638 230.643 101.74C228.782 107.306 230.875 117.509 231.34 119.596C231.806 121.452 234.83 124.93 234.83 124.93C234.83 124.93 234.597 111.712 237.388 111.016C240.179 110.32 241.343 117.045 241.343 117.045C241.343 117.045 241.575 108.233 244.832 104.291C247.158 101.044 254.834 106.378 256.927 106.842C257.858 106.842 261.812 104.986 261.812 104.986Z" fill="url(#paint18_linear_0_1)"/>
<path d="M257.625 114.958C257.625 114.958 256.694 117.045 256.694 120.756C256.694 123.307 257.625 125.626 257.16 126.322C256.694 126.785 253.671 126.322 253.205 125.858C252.508 124.93 255.997 118.669 254.368 115.19C253.438 113.335 256.927 114.494 257.625 114.958Z" fill="url(#paint19_linear_0_1)"/>
<path d="M245.762 111.943L247.39 110.784L253.903 111.943L253.438 114.031L245.762 111.943Z" fill="#974F35"/>
<path d="M263.905 113.799L262.51 112.407L258.323 112.175L258.555 114.494L263.905 113.799Z" fill="#974F35"/>
<path d="M249.949 127.249C249.949 127.249 251.345 128.64 253.671 129.336C255.997 130.032 258.09 128.177 258.09 128.177L249.949 127.249Z" fill="white"/>
<path d="M245.995 115.654C245.995 115.654 249.019 116.35 250.182 116.35C251.345 116.35 252.042 116.35 252.042 116.35L251.345 117.045V117.741C251.345 117.509 248.786 117.509 245.995 115.654Z" fill="#9F5C44"/>
<path d="M257.625 117.509C258.09 117.509 259.021 117.509 260.184 117.277C261.347 117.045 262.045 116.582 262.045 116.582L261.579 117.509V118.205C261.579 117.973 259.951 118.205 257.625 117.509Z" fill="#9F5C44"/>
<path d="M241.11 114.958C241.11 114.958 240.412 121.452 241.11 124.698C241.808 127.945 245.762 129.8 247.158 129.104C248.553 128.409 249.019 127.249 249.019 127.249L250.182 127.713C250.182 127.713 249.716 130.96 251.112 131.423C252.508 131.887 253.903 130.728 254.834 130.728C255.764 130.728 255.997 131.423 256.695 131.423C258.09 131.191 258.323 128.641 258.788 128.641C259.253 128.641 259.253 129.104 259.253 129.104C259.253 129.104 258.323 136.061 255.066 137.221C250.414 138.844 240.645 133.974 239.016 131.423C237.388 128.872 239.714 113.335 239.714 113.335L241.11 114.958Z" fill="url(#paint20_linear_0_1)"/>
<path d="M255.067 126.553C254.834 126.09 252.043 126.785 250.182 126.785C248.321 126.785 247.856 125.394 247.856 125.394C247.856 125.394 247.856 127.481 249.251 128.177C250.647 128.64 254.136 127.945 254.834 128.177C255.299 128.177 255.764 127.481 255.067 126.553Z" fill="url(#paint21_linear_0_1)"/>
<path d="M255.066 126.554C255.299 126.09 257.625 127.249 259.021 127.481C260.416 127.713 261.347 126.554 261.347 126.554C261.347 126.554 260.881 128.641 259.718 129.104C258.555 129.568 255.764 128.409 255.299 128.177C254.834 128.177 254.601 127.249 255.066 126.554Z" fill="url(#paint22_linear_0_1)"/>
<path d="M256.462 106.61C256.229 106.378 255.764 100.58 259.253 99.1888C262.742 97.7974 264.138 99.6526 264.603 100.58C265.069 101.508 264.836 102.667 264.371 103.131C264.371 103.131 263.673 102.667 262.742 103.131C261.812 103.595 261.812 104.754 261.812 104.754C261.812 104.754 257.858 107.305 256.462 106.61Z" fill="url(#paint23_linear_0_1)"/>
<path d="M257.858 106.61C258.09 106.378 259.486 101.276 253.206 98.2612C249.717 96.6379 245.762 98.0293 244.599 99.6526C242.738 101.972 243.204 104.754 243.669 105.218C243.669 105.218 246.46 102.204 249.019 103.363C249.949 103.827 255.299 107.769 257.858 106.61Z" fill="url(#paint24_linear_0_1)"/>
<path d="M249.716 148.584L249.484 152.526C249.484 152.526 251.345 152.526 252.74 151.599C253.903 150.903 251.345 148.12 249.716 148.584Z" fill="url(#paint25_linear_0_1)"/>
<path d="M247.623 149.28C248.088 149.512 249.251 152.527 249.251 152.527C249.251 152.527 247.158 153.222 245.53 152.527C243.901 151.831 246.693 148.816 247.623 149.28Z" fill="url(#paint26_linear_0_1)"/>
<path d="M262.975 138.612L257.858 135.83C257.858 135.83 255.997 141.163 254.369 143.946C252.508 146.729 249.484 148.816 249.484 148.816C249.484 148.816 250.182 148.584 251.112 149.744C252.043 150.903 253.206 153.918 253.671 153.918C254.136 153.918 258.323 149.744 260.649 146.033C262.975 142.091 262.975 138.612 262.975 138.612Z" fill="url(#paint27_linear_0_1)"/>
<path d="M231.341 145.106L234.83 140.468C234.83 140.468 238.551 144.642 241.343 146.497C244.134 148.352 247.623 149.048 247.623 149.048C247.623 149.048 246.925 149.28 246.46 150.439C245.995 151.831 246.227 155.309 245.762 155.309C245.297 155.309 239.714 153.222 236.225 150.671C232.736 148.352 231.341 145.106 231.341 145.106Z" fill="url(#paint28_linear_0_1)"/>
<path d="M248.553 151.599C248.786 151.367 254.369 146.961 254.601 147.425C254.834 147.656 257.393 153.918 257.16 154.382C256.927 154.845 249.484 153.686 249.484 153.686L248.553 151.599Z" fill="url(#paint29_linear_0_1)"/>
<path d="M242.041 151.367C241.343 152.063 243.436 158.092 243.901 158.324C244.367 158.556 249.251 153.454 249.251 153.454L248.321 151.599C248.553 151.599 242.738 150.671 242.041 151.367Z" fill="url(#paint30_linear_0_1)"/>
<path d="M249.484 154.382L250.182 154.15C250.414 154.15 250.647 153.686 250.647 153.454L249.949 151.135C249.949 150.903 249.484 150.671 249.251 150.671L248.554 150.903C248.321 150.903 248.088 151.367 248.088 151.599L248.786 153.918C248.786 154.382 249.019 154.613 249.484 154.382Z" fill="url(#paint31_linear_0_1)"/>
<path d="M247.158 234.62L252.275 232.997L252.043 231.605L246.693 233.229L247.158 234.62Z" fill="url(#paint32_linear_0_1)"/>
<path d="M251.345 244.824L248.553 239.026L249.019 238.794L251.345 244.592L253.671 243.896L253.206 237.867H253.438L254.136 244.128L251.345 244.824Z" fill="url(#paint33_linear_0_1)"/>
<path d="M251.577 247.375L254.601 246.679L253.903 242.737L250.879 243.2L251.577 247.375Z" fill="url(#paint34_linear_0_1)"/>
<path d="M248.553 239.722L253.903 238.099L253.438 236.475L248.088 238.099L248.553 239.722Z" fill="url(#paint35_linear_0_1)"/>
<path d="M281.118 227.895L276.001 228.591V226.967L280.886 226.271L281.118 227.895Z" fill="url(#paint36_linear_0_1)"/>
<path d="M278.094 239.258L276.699 233.229H277.164L278.327 239.026L280.886 238.562V232.533H281.351L281.118 238.794L278.094 239.258Z" fill="url(#paint37_linear_0_1)"/>
<path d="M281.351 241.345L278.56 241.577L277.862 237.635L280.886 237.171L281.351 241.345Z" fill="url(#paint38_linear_0_1)"/>
<path d="M281.584 232.997L276.466 233.692V232.069L281.351 231.605L281.584 232.997Z" fill="url(#paint39_linear_0_1)"/>
<path d="M328.57 428.259C328.57 428.259 329.268 429.65 329.268 430.578C329.5 431.505 329.5 432.433 329.5 432.433L340.433 429.186C340.433 429.186 339.27 427.563 339.037 426.867C338.805 426.172 338.805 425.708 338.805 425.708L328.57 428.259Z" fill="url(#paint40_linear_0_1)"/>
<path d="M250.414 443.564H221.571V444.956H250.414V443.564Z" fill="url(#paint41_linear_0_1)"/>
<path d="M221.571 443.564C221.571 443.564 220.641 440.55 223.897 439.854C227.154 439.158 237.156 439.158 238.319 440.782C239.482 442.405 239.482 443.564 239.482 443.564H221.571Z" fill="url(#paint42_linear_0_1)"/>
<path d="M339.27 426.867L328.803 429.65C328.57 429.65 328.57 429.65 328.338 429.418L327.872 427.795C327.872 427.563 327.872 427.563 328.105 427.331L338.572 424.548C338.805 424.548 338.805 424.548 339.037 424.78L339.503 426.404C339.503 426.635 339.503 426.867 339.27 426.867Z" fill="url(#paint43_linear_0_1)"/>
<path d="M249.716 431.274L238.784 430.81C238.551 430.81 238.551 430.578 238.551 430.578V428.723C238.551 428.491 238.784 428.491 238.784 428.491L249.716 428.955C249.949 428.955 249.949 429.186 249.949 429.186V431.042L249.716 431.274Z" fill="url(#paint44_linear_0_1)"/>
<path d="M181.098 147.193C181.098 147.193 189.471 149.048 191.565 152.295C193.658 155.309 194.356 156.005 194.123 156.933C194.123 157.86 190.634 162.962 189.937 163.194C189.006 163.194 181.563 162.267 179.469 157.628C178.539 154.846 179.934 147.425 181.098 147.193Z" fill="url(#paint45_linear_0_1)"/>
<path d="M194.356 156.701C194.356 156.701 193.891 151.831 193.426 150.671C192.728 149.512 191.332 145.57 190.169 144.642C189.239 143.946 186.68 144.41 186.68 144.41C186.68 144.41 186.913 144.642 187.843 146.265C188.774 147.657 188.308 148.584 188.076 151.135C187.843 152.99 189.471 157.86 191.798 158.324C192.495 158.788 193.426 158.324 194.356 156.701Z" fill="url(#paint46_linear_0_1)"/>
<path d="M180.632 136.293L179.237 133.974V133.279L168.072 117.045C167.606 117.509 167.374 118.205 167.606 118.669L179.469 136.525C179.935 136.757 180.4 136.525 180.632 136.293Z" fill="#9AABAF"/>
<path d="M185.284 145.338L186.913 147.657C187.843 149.048 189.937 149.512 191.565 148.352C191.797 148.12 192.03 147.889 192.263 147.657C193.193 146.497 193.193 144.874 192.495 143.714L190.867 141.395C190.402 140.7 189.704 140.236 188.774 140.004C188.308 140.004 187.611 140.004 187.145 140.236C187.145 140.236 187.145 140.236 186.913 140.236C186.68 140.236 186.68 140.236 186.447 140.468C185.982 140.7 185.517 140.932 185.284 140.932C184.587 140.932 183.656 140.468 183.424 140.004L180.865 136.293C180.4 136.525 180.167 136.757 179.702 136.757L185.284 144.874C185.052 145.106 185.284 145.338 185.284 145.338ZM189.471 142.323L191.1 144.642C191.565 145.338 191.565 146.265 191.1 146.961C191.1 147.193 190.867 147.193 190.634 147.425C189.704 148.12 188.541 147.889 187.843 146.961L186.447 145.106L185.982 144.41C185.75 143.714 185.75 142.787 186.215 142.323C186.215 142.091 186.447 142.091 186.68 141.859C187.145 141.627 187.611 141.395 188.076 141.627C188.774 141.627 189.239 141.859 189.471 142.323Z" fill="url(#paint47_linear_0_1)"/>
<path d="M180.632 136.293L179.934 115.19C179.934 114.495 179.237 114.031 178.539 114.031V133.511L179.004 133.974V136.757C179.934 136.757 180.4 136.525 180.632 136.293Z" fill="#E2E3E5"/>
<path d="M177.608 152.295C178.539 152.295 179.469 151.831 180.167 151.135C180.632 150.671 180.865 149.744 180.865 149.048V146.265C180.865 146.033 180.865 146.033 180.865 145.801L180.632 136.293C180.167 136.525 179.702 136.757 179.469 136.757L179.702 140.932C179.702 141.395 179.469 142.323 178.771 142.555C178.539 142.555 178.306 142.787 177.841 142.787C176.911 142.787 175.98 143.251 175.282 143.946C174.817 144.41 174.585 145.338 174.585 146.033V148.816C174.352 150.903 175.98 152.295 177.608 152.295ZM175.748 149.048V146.265C175.748 145.801 175.98 145.338 176.213 145.106C176.678 144.642 177.143 144.41 177.841 144.41C178.771 144.41 179.702 145.106 179.702 146.033V146.961V149.28C179.702 149.744 179.469 150.208 179.237 150.44C178.771 150.903 178.306 151.135 177.608 151.135C177.143 151.135 176.678 150.903 176.213 150.44C175.98 150.208 175.748 149.744 175.748 149.048Z" fill="url(#paint48_linear_0_1)"/>
<path d="M180.4 136.293C180.632 136.062 180.4 135.83 180.4 135.83C180.167 135.598 179.934 135.83 179.934 135.83C179.702 136.062 179.934 136.293 179.934 136.293C179.934 136.525 180.167 136.525 180.4 136.293Z" fill="#475059"/>
<path d="M179.237 151.135C179.237 151.135 175.748 146.729 174.585 145.337C173.654 144.41 172.258 142.555 173.421 141.859C174.585 141.395 179.702 146.497 179.702 146.497C179.702 146.497 179.702 149.28 179.702 149.976C179.702 150.439 179.237 151.135 179.237 151.135Z" fill="url(#paint49_linear_0_1)"/>
<path d="M189.239 144.41C189.239 144.41 186.447 144.178 185.982 143.946C185.284 143.946 184.587 143.714 184.354 144.178C184.354 144.642 185.052 146.497 186.447 146.961C187.843 147.425 189.937 146.729 189.937 146.033C190.169 145.106 189.937 144.642 189.239 144.41Z" fill="url(#paint50_linear_0_1)"/>
<path d="M181.097 150.439C180.632 150.439 179.004 150.439 178.539 150.903C177.841 151.367 178.771 152.758 178.771 152.758C178.771 152.758 177.841 153.454 177.608 153.918C177.376 154.846 178.306 155.773 178.306 155.773C178.306 155.773 177.841 156.469 177.841 157.397C178.306 159.02 182.028 160.179 182.958 160.411C183.889 160.411 185.517 160.411 185.75 160.179C185.982 159.716 185.75 159.02 184.819 158.788C184.121 158.324 183.656 158.092 183.656 158.092C183.656 158.092 186.68 159.02 187.145 158.092C187.61 156.701 184.587 155.309 184.587 155.309C184.587 155.309 186.447 155.773 186.68 154.846C187.61 153.686 183.656 150.671 181.097 150.439Z" fill="url(#paint51_linear_0_1)"/>
<path d="M353.459 188.935C353.459 188.935 352.994 182.21 354.389 177.34C355.785 172.47 357.413 166.673 356.483 165.977C343.457 155.541 337.874 167.6 337.874 167.6C337.874 167.6 336.479 180.355 334.618 184.297C332.757 188.24 330.431 191.718 330.431 191.718L335.316 205.169L353.459 188.935Z" fill="url(#paint52_linear_0_1)"/>
<path d="M351.365 206.096C359.739 206.096 349.039 286.566 345.783 297.234C342.294 307.901 319.498 320.888 310.659 321.352C301.82 321.815 286.003 307.437 291.12 301.408C296.005 295.147 341.363 206.096 351.365 206.096Z" fill="url(#paint53_linear_0_1)"/>
<path d="M339.503 311.38L362.066 309.988C364.392 309.757 366.02 308.133 366.485 306.046L378.115 226.967L353.692 225.112L339.503 311.38Z" fill="url(#paint54_linear_0_1)"/>
<path d="M209.243 404.837C209.476 404.141 211.336 392.778 211.336 392.778L220.175 395.792L221.106 407.387L209.243 404.837Z" fill="url(#paint55_linear_0_1)"/>
<path d="M221.106 320.192C221.106 322.279 210.871 392.546 210.871 392.546L217.152 395.329L248.321 323.439L221.106 320.192Z" fill="url(#paint56_linear_0_1)"/>
<path d="M223.199 395.792L210.871 393.473C209.941 393.241 209.476 392.546 209.708 391.618L210.173 388.603C210.406 387.676 211.104 387.212 212.034 387.444L224.362 389.763C225.293 389.995 225.758 390.69 225.525 391.618L225.06 394.633C225.06 395.329 224.13 396.024 223.199 395.792Z" fill="url(#paint57_linear_0_1)"/>
<path d="M235.993 313.467C235.993 314.163 217.152 395.328 217.152 395.328L228.317 399.735L267.86 321.583L235.993 313.467Z" fill="url(#paint58_linear_0_1)"/>
<path d="M332.059 189.631C333.92 191.254 342.061 192.878 346.016 191.486C350.668 189.863 353.692 186.848 353.692 186.848C353.692 186.848 364.159 187.312 369.974 194.733C376.022 202.154 380.907 212.821 381.837 221.865C382.768 230.91 358.111 234.62 349.272 243.896C340.433 253.172 334.618 314.163 329.268 320.192C326.477 323.671 301.82 320.192 279.955 323.439C262.045 326.222 245.762 333.874 243.436 333.411C238.086 332.483 220.176 325.758 217.617 324.83C215.058 323.903 219.013 314.395 222.036 307.901C225.06 301.408 276.001 271.261 288.562 253.868C301.123 236.475 310.892 213.749 315.079 207.256C324.616 192.878 332.059 189.631 332.059 189.631Z" fill="url(#paint59_linear_0_1)"/>
<path d="M208.08 404.605L181.795 414.113L180.865 416.664H222.036L221.106 407.388L208.08 404.605Z" fill="url(#paint60_linear_0_1)"/>
<path d="M211.802 404.605L185.517 414.113L184.819 416.664H225.758L224.828 407.388L211.802 404.605Z" fill="url(#paint61_linear_0_1)"/>
<path d="M213.43 405.069L218.547 391.85L229.247 395.097L224.828 407.388L213.43 405.069Z" fill="url(#paint62_linear_0_1)"/>
<path d="M228.549 400.662L216.919 395.792C216.221 395.561 215.756 394.633 215.988 393.705L217.152 390.691C217.384 389.995 218.315 389.531 219.245 389.763L230.875 394.633C231.573 394.865 232.038 395.792 231.806 396.72L230.643 399.735C230.177 400.662 229.247 401.126 228.549 400.662Z" fill="url(#paint63_linear_0_1)"/>
<g filter="url(#filter2_d_0_1)">
<path d="M314.846 344.542H289.26V440.782H314.846V344.542Z" fill="url(#paint64_linear_0_1)"/>
</g>
<g filter="url(#filter3_d_0_1)">
<path d="M352.529 454H251.81V452.84C251.81 450.29 253.671 448.202 255.997 447.739L289.26 440.781H314.846L348.109 447.739C350.668 448.202 352.296 450.521 352.296 452.84V454H352.529Z" fill="url(#paint65_linear_0_1)"/>
</g>
<path d="M271.814 335.961L226.921 416.664H178.074L164.583 403.213H159L175.748 421.07H229.712L273.21 343.614L271.814 335.961Z" fill="url(#paint66_linear_0_1)"/>
<path d="M361.135 344.542C361.135 346.397 359.739 348.02 357.878 348.252C340.433 351.035 258.556 364.022 253.438 353.818C249.949 346.861 259.719 329.236 266.697 325.758C285.305 316.714 343.224 323.439 357.878 325.294C359.739 325.526 361.368 327.149 361.368 329.004V344.542H361.135Z" fill="url(#paint67_linear_0_1)"/>
<path d="M274.373 287.726L279.723 303.031C280.886 306.046 282.979 308.597 285.771 309.988L331.594 333.411C335.316 335.266 339.503 333.179 340.2 329.004L346.946 289.581L274.373 287.726Z" fill="url(#paint68_linear_0_1)"/>
<path d="M346.946 289.813H264.836C262.277 289.813 260.184 287.726 260.184 285.175V282.856C260.184 280.305 262.277 278.218 264.836 278.218H346.946V289.813Z" fill="url(#paint69_linear_0_1)"/>
<path d="M249.716 333.874C249.716 333.874 249.484 333.642 249.716 333.642L249.949 332.715L250.182 332.483C250.182 332.483 250.414 332.715 250.182 332.715L249.949 333.642C249.949 333.874 249.949 333.874 249.716 333.874Z" fill="#5A7893"/>
<path d="M249.716 333.642L249.949 332.715C249.949 332.715 249.949 332.715 250.182 332.715C250.182 332.715 250.182 332.715 250.182 332.947L249.716 333.642C249.949 333.642 249.949 333.874 249.716 333.642Z" fill="#5E7E9A"/>
<path d="M248.786 336.425L248.553 336.193L248.786 335.266L249.019 335.034L249.251 335.266L249.019 336.193C249.019 336.425 248.786 336.425 248.786 336.425Z" fill="#5A7893"/>
<path d="M248.786 336.193L249.019 335.266C249.019 335.266 249.019 335.266 249.251 335.266C249.251 335.266 249.251 335.266 249.251 335.498L248.786 336.193C249.019 336.193 248.786 336.193 248.786 336.193Z" fill="#5E7E9A"/>
<path d="M247.856 338.976C247.856 338.976 247.623 338.744 247.856 338.744L248.088 337.817L248.321 337.585C248.321 337.585 248.553 337.817 248.321 337.817L248.088 338.744L247.856 338.976Z" fill="#5A7893"/>
<path d="M247.855 338.744L248.088 337.817C248.088 337.817 248.088 337.817 248.321 337.817C248.321 337.817 248.321 337.817 248.321 338.049L247.855 338.744C248.088 338.744 247.855 338.744 247.855 338.744Z" fill="#5E7E9A"/>
<path d="M246.925 341.295C246.925 341.295 246.693 341.063 246.925 341.063L247.158 340.136L247.39 339.904C247.39 339.904 247.623 340.136 247.39 340.136L247.158 341.063C247.158 341.295 246.925 341.527 246.925 341.295Z" fill="#5A7893"/>
<path d="M246.925 341.295C246.925 341.295 246.693 341.063 246.925 341.295L247.158 340.368C247.158 340.368 247.158 340.368 247.39 340.368C247.39 340.368 247.39 340.368 247.39 340.6L246.925 341.295Z" fill="#5E7E9A"/>
<path d="M245.762 343.846C245.762 343.846 245.529 343.614 245.762 343.614L245.995 342.687C245.995 342.687 246.227 342.455 246.227 342.687C246.227 342.687 246.46 342.918 246.227 342.918L245.995 343.846C245.995 343.846 245.995 343.846 245.762 343.846Z" fill="#5A7893"/>
<path d="M245.995 343.846C245.762 343.846 245.762 343.614 245.995 343.846L246.227 342.918C246.227 342.918 246.227 342.918 246.46 342.918C246.46 342.918 246.46 342.918 246.46 343.15L245.995 343.846Z" fill="#5E7E9A"/>
<path d="M244.832 346.397L244.599 346.165L244.832 345.238C244.832 345.238 245.064 345.006 245.064 345.238L245.297 345.47L245.064 346.397C245.064 346.397 245.064 346.397 244.832 346.397Z" fill="#5A7893"/>
<path d="M244.832 346.165L245.064 345.238C245.064 345.238 245.064 345.238 245.297 345.238C245.297 345.238 245.297 345.238 245.297 345.469L244.832 346.165C245.064 346.165 245.064 346.397 244.832 346.165Z" fill="#5E7E9A"/>
<path d="M243.901 348.948C243.901 348.948 243.669 348.716 243.901 348.716L244.134 347.789C244.134 347.789 244.366 347.557 244.366 347.789C244.366 347.789 244.599 348.021 244.366 348.021L244.134 348.948C244.134 348.948 244.134 348.948 243.901 348.948Z" fill="#5A7893"/>
<path d="M243.901 348.716L244.134 347.789C244.134 347.789 244.134 347.789 244.366 347.789C244.366 347.789 244.366 347.789 244.366 348.02L243.901 348.716C244.134 348.716 244.134 348.716 243.901 348.716Z" fill="#5E7E9A"/>
<path d="M242.971 351.499L242.738 351.267L242.971 350.339L243.203 350.107C243.203 350.107 243.436 350.339 243.203 350.339L242.971 351.267C243.203 351.267 242.971 351.499 242.971 351.499Z" fill="#5A7893"/>
<path d="M242.971 351.267L243.204 350.339C243.204 350.339 243.204 350.339 243.436 350.339C243.436 350.339 243.436 350.339 243.436 350.571L242.971 351.267C243.204 351.267 242.971 351.267 242.971 351.267Z" fill="#5E7E9A"/>
<path d="M242.04 353.818C242.04 353.818 241.808 353.586 242.04 353.586L242.273 352.658L242.506 352.427L242.738 352.658L242.506 353.586C242.273 353.818 242.04 354.05 242.04 353.818Z" fill="#5A7893"/>
<path d="M242.04 353.818C242.04 353.818 242.04 353.586 242.04 353.818L242.273 352.89C242.273 352.89 242.273 352.89 242.505 352.89C242.505 352.89 242.505 352.89 242.505 353.122L242.04 353.818C242.273 353.818 242.04 353.818 242.04 353.818Z" fill="#5E7E9A"/>
<path d="M241.11 356.369C241.11 356.369 240.877 356.137 241.11 356.137L241.343 355.209L241.575 354.978C241.575 354.978 241.808 355.209 241.575 355.209L241.343 356.137C241.343 356.369 241.11 356.369 241.11 356.369Z" fill="#5A7893"/>
<path d="M241.11 356.369C241.11 356.369 240.877 356.137 241.11 356.369L241.343 355.441C241.343 355.441 241.343 355.441 241.575 355.441C241.575 355.441 241.575 355.441 241.575 355.673L241.11 356.369Z" fill="#5E7E9A"/>
<path d="M239.947 358.92C239.947 358.92 239.714 358.688 239.947 358.688L240.179 357.76L240.412 357.528C240.412 357.528 240.645 357.76 240.412 357.76V358.688C240.179 358.92 240.179 358.92 239.947 358.92Z" fill="#5A7893"/>
<path d="M240.18 358.688C239.947 358.688 239.947 358.688 240.18 358.688L240.412 357.76C240.412 357.76 240.412 357.76 240.645 357.76C240.645 357.76 240.645 357.76 240.645 357.992L240.18 358.688C240.18 358.688 240.18 358.92 240.18 358.688Z" fill="#5E7E9A"/>
<path d="M239.016 361.471C239.016 361.471 238.784 361.239 239.016 361.239L239.249 360.311L239.482 360.079L239.714 360.311L239.482 361.239C239.249 361.471 239.249 361.471 239.016 361.471Z" fill="#5A7893"/>
<path d="M239.249 361.239C239.017 361.239 239.017 361.239 239.249 361.239L239.482 360.311C239.482 360.311 239.482 360.311 239.714 360.311C239.714 360.311 239.714 360.311 239.714 360.543L239.249 361.239Z" fill="#5E7E9A"/>
<path d="M238.086 364.022L237.854 363.79L238.086 362.862C238.086 362.862 238.319 362.63 238.319 362.862C238.319 362.862 238.551 363.094 238.319 363.094L238.086 364.022C238.319 364.022 238.319 364.022 238.086 364.022Z" fill="#5A7893"/>
<path d="M238.086 363.79L238.319 362.862C238.319 362.862 238.319 362.862 238.551 362.862C238.551 362.862 238.551 362.862 238.551 363.094L238.086 363.79C238.319 363.79 238.319 363.79 238.086 363.79Z" fill="#5E7E9A"/>
<path d="M237.156 366.341C237.156 366.341 236.923 366.109 237.156 366.109L237.388 365.181L237.621 364.949L237.853 365.181L237.621 366.109C237.388 366.341 237.156 366.573 237.156 366.341Z" fill="#5A7893"/>
<path d="M237.156 366.341C237.156 366.341 237.156 366.109 237.156 366.341L237.388 365.413C237.388 365.413 237.388 365.413 237.621 365.413C237.621 365.413 237.621 365.413 237.621 365.645L237.156 366.341C237.388 366.341 237.156 366.341 237.156 366.341Z" fill="#5E7E9A"/>
<path d="M236.225 368.892L235.993 368.66L236.225 367.732L236.458 367.5C236.458 367.5 236.69 367.732 236.458 367.732L236.225 368.66C236.458 368.892 236.225 368.892 236.225 368.892Z" fill="#5A7893"/>
<path d="M236.225 368.892C236.225 368.892 236.225 368.66 236.225 368.892L236.458 367.964C236.458 367.964 236.458 367.964 236.691 367.964C236.691 367.964 236.691 367.964 236.691 368.196L236.225 368.892C236.458 368.892 236.225 368.892 236.225 368.892Z" fill="#5E7E9A"/>
<path d="M235.295 371.442C235.295 371.442 235.062 371.211 235.295 371.211L235.527 370.283L235.76 370.051L235.993 370.283L235.76 371.211C235.527 371.442 235.295 371.442 235.295 371.442Z" fill="#5A7893"/>
<path d="M235.295 371.211C235.295 371.211 235.062 371.211 235.295 371.211L235.527 370.283C235.527 370.283 235.527 370.283 235.76 370.283C235.76 370.283 235.76 370.283 235.76 370.515L235.295 371.211C235.295 371.211 235.295 371.442 235.295 371.211Z" fill="#5E7E9A"/>
<path d="M234.132 373.993C234.132 373.993 233.899 373.762 234.132 373.762L234.364 372.834L234.597 372.602L234.83 372.834L234.597 373.762C234.364 373.993 234.364 373.993 234.132 373.993Z" fill="#5A7893"/>
<path d="M234.364 373.762C234.132 373.762 234.132 373.762 234.364 373.762L234.597 372.834C234.597 372.834 234.597 372.834 234.83 372.834C234.83 372.834 234.83 372.834 234.83 373.066L234.364 373.762Z" fill="#5E7E9A"/>
<path d="M233.201 376.544L232.969 376.313L233.201 375.385L233.434 375.153C233.434 375.153 233.667 375.385 233.434 375.385L233.201 376.313C233.434 376.544 233.434 376.544 233.201 376.544Z" fill="#5A7893"/>
<path d="M233.434 376.313C233.201 376.313 233.201 376.313 233.434 376.313L233.667 375.385C233.667 375.385 233.667 375.385 233.899 375.385C233.899 375.385 233.899 375.385 233.899 375.617L233.434 376.313Z" fill="#5E7E9A"/>
<path d="M232.271 378.863L232.038 378.632L232.271 377.704C232.271 377.704 232.504 377.472 232.504 377.704L232.736 377.936L232.504 378.863C232.504 378.863 232.504 379.095 232.271 378.863Z" fill="#5A7893"/>
<path d="M232.271 378.863C232.271 378.863 232.271 378.631 232.271 378.863L232.504 377.936C232.504 377.936 232.504 377.936 232.736 377.936C232.736 377.936 232.736 377.936 232.736 378.168L232.271 378.863C232.504 378.863 232.504 378.863 232.271 378.863Z" fill="#5E7E9A"/>
<path d="M231.34 381.414C231.34 381.414 231.108 381.183 231.34 381.183L231.573 380.255C231.573 380.255 231.806 380.023 231.806 380.255L232.038 380.487L231.806 381.414C231.573 381.414 231.34 381.414 231.34 381.414Z" fill="#5A7893"/>
<path d="M231.34 381.414C231.34 381.414 231.34 381.183 231.34 381.414L231.573 380.487C231.573 380.487 231.573 380.487 231.806 380.487C231.806 380.487 231.806 380.487 231.806 380.719L231.34 381.414C231.573 381.414 231.34 381.414 231.34 381.414Z" fill="#5E7E9A"/>
<path d="M230.41 383.965L230.177 383.733L230.41 382.806C230.41 382.806 230.643 382.574 230.643 382.806L230.875 383.038L230.643 383.965H230.41Z" fill="#5A7893"/>
<path d="M230.41 383.733L230.643 382.806C230.643 382.806 230.643 382.806 230.875 382.806C230.875 382.806 230.875 382.806 230.875 383.038L230.41 383.733C230.643 383.733 230.41 383.965 230.41 383.733Z" fill="#5E7E9A"/>
<path d="M229.48 386.516C229.48 386.516 229.247 386.284 229.48 386.284L229.712 385.357L229.945 385.125C229.945 385.125 230.177 385.357 229.945 385.357L229.712 386.284C229.712 386.516 229.48 386.516 229.48 386.516Z" fill="#5A7893"/>
<path d="M229.48 386.284C229.48 386.284 229.247 386.284 229.48 386.284L229.712 385.357C229.712 385.357 229.712 385.357 229.945 385.357C229.945 385.357 229.945 385.357 229.945 385.589L229.48 386.284Z" fill="#5E7E9A"/>
<path d="M228.549 389.067L228.317 388.835L228.549 387.908L228.782 387.676L229.014 387.908L228.782 388.835C228.549 389.067 228.549 389.067 228.549 389.067Z" fill="#5A7893"/>
<path d="M228.549 388.835C228.317 388.835 228.317 388.835 228.549 388.835L228.782 387.908C228.782 387.908 228.782 387.908 229.014 387.908C229.014 387.908 229.014 387.908 229.014 388.14L228.549 388.835Z" fill="#5E7E9A"/>
<path d="M227.386 391.386L227.154 391.154L227.386 390.227C227.386 390.227 227.619 389.995 227.619 390.227C227.619 390.227 227.851 390.458 227.619 390.458L227.386 391.386C227.619 391.386 227.619 391.618 227.386 391.386Z" fill="#5A7893"/>
<path d="M227.619 391.386C227.386 391.386 227.386 391.154 227.619 391.386L227.851 390.458C227.851 390.458 227.851 390.458 228.084 390.458C228.084 390.458 228.084 390.459 228.084 390.69L227.619 391.386Z" fill="#5E7E9A"/>
<path d="M337.409 328.309C337.409 329.932 336.013 331.323 334.385 331.323C332.757 331.323 331.361 329.932 331.361 328.309C331.361 326.685 332.757 325.294 334.385 325.294C336.246 325.526 337.409 326.685 337.409 328.309Z" fill="url(#paint70_linear_0_1)"/>
<path d="M336.013 153.918C330.664 165.281 330.431 172.934 333.455 175.253C339.735 179.659 358.576 178.268 364.857 167.136C371.137 156.237 367.415 145.106 360.902 141.395C354.157 137.685 341.363 141.859 336.013 153.918Z" fill="url(#paint71_linear_0_1)"/>
<path d="M339.735 148.12C338.805 149.048 337.176 151.599 334.85 154.15C333.222 156.005 330.896 157.164 331.129 157.86C331.129 158.556 333.92 160.875 334.385 160.643C335.316 160.411 338.34 153.918 340.2 151.367C341.131 149.975 341.829 146.265 339.735 148.12Z" fill="url(#paint72_linear_0_1)"/>
<path d="M332.524 162.962C332.524 162.962 336.246 165.513 336.479 165.513C336.711 165.513 335.083 165.977 333.455 165.049C332.524 164.354 332.059 164.585 332.059 164.585L332.524 162.962Z" fill="url(#paint73_linear_0_1)"/>
<path d="M342.526 157.396C342.526 157.396 339.735 156.469 339.037 155.773C338.339 155.077 337.642 154.614 337.642 154.614L337.874 155.773L337.642 156.469C337.409 156.469 339.502 157.628 342.526 157.396Z" fill="#9F5C44"/>
<path d="M337.642 151.831C337.642 152.063 340.666 153.454 341.596 153.918C342.527 154.15 343.922 155.541 343.922 155.541C343.922 155.541 343.922 153.918 343.69 153.686C343.457 153.454 338.805 150.439 338.34 150.208C338.107 150.208 337.642 151.831 337.642 151.831Z" fill="url(#paint74_linear_0_1)"/>
<path d="M363.461 140.931C356.018 135.366 347.644 134.206 344.155 143.714C343.69 144.874 351.598 148.816 351.366 152.99C351.133 156.005 349.04 159.483 348.342 161.107C348.342 161.107 344.155 168.992 343.457 168.992C338.34 169.687 339.735 164.817 337.409 163.426C334.385 161.803 333.222 161.107 333.222 161.107L332.525 162.498C332.525 162.498 336.944 165.049 336.711 165.745C336.014 167.136 335.781 167.368 334.385 167.6C333.92 167.6 332.757 167.368 332.525 166.904C332.059 166.441 332.99 165.281 332.292 165.281C331.827 165.281 328.105 174.093 329.035 175.021C331.827 177.804 342.061 178.731 343.457 177.34C344.853 175.949 350.435 162.034 350.435 162.034C350.435 162.034 352.296 159.483 353.924 159.483C356.018 159.483 357.646 162.73 354.39 167.368C351.133 172.006 352.529 178.036 352.529 178.036L353.692 180.123C353.692 180.123 365.555 172.006 369.509 165.513C373.696 159.02 375.091 149.512 363.461 140.931Z" fill="url(#paint75_linear_0_1)"/>
<path d="M344.155 143.714C344.155 143.714 345.318 135.366 348.574 133.974C351.831 132.583 357.879 136.293 359.274 138.844C360.67 141.395 357.879 146.961 357.879 149.512C358.111 151.599 360.67 151.599 360.67 151.599C360.67 151.599 359.739 153.222 358.576 153.918C356.018 155.541 352.063 156.237 350.435 151.831C348.109 145.569 344.387 145.569 344.155 143.714Z" fill="url(#paint76_linear_0_1)"/>
<path d="M343.69 206.096C338.805 210.27 330.664 260.593 329.966 261.753C329.268 262.912 320.661 264.072 312.52 265.231C305.542 266.159 293.447 271.956 284.84 272.652C284.84 272.652 272.745 271.493 271.116 271.724C269.488 271.956 260.882 275.899 260.416 277.058C259.951 278.218 259.719 280.537 259.486 281.232C259.253 281.928 259.253 282.856 259.486 283.088C259.719 283.32 261.812 282.16 262.277 280.769C262.975 279.377 263.906 278.218 265.301 278.218C266.232 278.218 275.071 278.218 282.049 278.218C282.049 278.218 344.62 280.537 346.946 278.218C347.644 277.522 364.624 210.734 364.624 210.734C364.624 210.734 348.574 201.69 343.69 206.096Z" fill="url(#paint77_linear_0_1)"/>
<path d="M337.642 240.649C337.642 240.418 337.642 240.418 337.642 240.418C337.642 239.954 336.944 239.722 336.711 239.954C336.246 240.186 336.014 240.649 336.014 241.113V241.345C336.014 241.345 336.014 241.345 336.014 241.577L336.246 241.809C336.479 242.273 337.177 242.273 337.409 241.809C337.642 241.577 337.875 241.113 337.642 240.649Z" fill="#BBC5C6"/>
<path d="M350.668 230.91C349.737 229.75 349.272 228.591 349.04 227.199C348.807 226.503 347.877 226.735 347.877 227.431C347.877 228.359 347.179 229.054 346.714 229.982V230.214C346.481 230.446 346.481 230.678 346.714 230.91C346.946 231.373 347.179 231.837 347.411 232.301C347.411 232.533 347.644 232.533 347.877 232.765C347.877 232.765 347.877 232.997 348.109 232.997C348.342 233.46 348.807 233.692 349.272 233.229C349.737 232.765 350.435 232.301 351.133 232.069C350.668 231.605 350.9 231.141 350.668 230.91ZM348.109 229.286C348.342 229.982 348.574 230.446 349.04 230.91C348.807 231.141 348.342 231.141 348.109 231.373C347.877 230.91 347.644 230.678 347.411 230.214C347.877 229.982 348.109 229.518 348.109 229.286Z" fill="#BBC5C6"/>
<path d="M355.32 238.33C354.622 238.33 354.157 238.33 353.692 238.33C354.157 236.707 353.459 235.084 351.831 234.156C350.203 233.229 348.342 234.388 347.411 236.011C347.179 235.779 346.946 235.779 346.713 235.548C347.179 233.692 345.55 230.678 342.992 230.678C341.829 230.678 340.666 231.141 339.735 231.837C339.27 231.605 338.572 231.141 338.107 230.678V230.446C337.874 229.75 336.711 229.982 336.944 230.678C336.944 230.678 336.944 230.678 336.944 230.91C336.944 231.141 336.944 231.141 336.944 231.373C338.107 235.316 339.27 239.258 340.201 243.2H339.968C339.735 242.968 339.503 242.968 339.27 243.2C339.037 243.432 339.037 243.664 339.037 243.896C339.037 244.128 339.27 244.36 339.503 244.36C339.503 244.36 339.735 244.592 340.201 244.592C340.433 244.592 340.666 244.592 340.898 244.592C341.131 245.287 341.131 246.215 341.364 246.911C340.433 247.143 339.503 247.143 338.805 247.375C338.572 245.983 338.107 245.056 336.479 245.056C336.014 245.056 335.781 245.287 335.781 245.751V245.983C335.316 246.679 336.014 247.375 336.711 246.911C336.944 247.375 337.409 247.838 337.642 248.302C337.642 248.766 338.107 248.998 338.34 248.998C339.27 248.766 340.201 248.766 341.131 248.534C341.131 249.462 341.131 250.389 341.829 250.621C341.829 251.549 342.061 252.245 342.061 253.172C342.061 253.636 342.759 254.1 343.224 253.636C343.922 252.94 344.62 252.245 345.318 251.549C345.55 251.781 345.55 251.781 345.783 252.013C346.248 252.245 346.714 252.245 346.946 251.781C347.411 252.245 347.644 252.94 348.109 253.404C348.109 253.868 348.342 254.332 348.807 254.1C349.97 253.404 350.435 253.636 350.435 255.259C350.203 255.955 351.366 256.419 351.598 255.491C352.063 254.332 351.831 253.404 351.366 252.245C351.366 252.013 350.9 251.781 350.668 252.013C350.203 252.245 349.737 252.245 349.505 252.476C349.505 251.549 349.272 250.157 348.109 250.157C347.644 250.157 347.179 250.157 346.713 250.157C348.342 248.534 349.97 246.679 351.598 245.056C351.598 245.983 352.529 246.215 353.459 245.751C353.924 245.519 354.157 244.592 353.692 244.128C353.692 243.896 353.459 243.664 353.226 243.432C352.994 243.432 352.994 243.432 352.994 243.432C354.157 242.041 355.32 240.649 356.716 239.258C356.018 239.026 356.018 238.098 355.32 238.33ZM348.342 245.751C346.016 245.287 347.644 242.737 349.04 242.505C349.505 242.273 349.97 242.041 350.435 241.809C351.366 241.345 352.296 240.418 352.761 239.49C352.994 239.49 353.459 239.49 353.692 239.49C352.063 241.577 350.203 243.664 348.342 245.751ZM342.759 250.157C343.457 249.694 344.387 248.998 344.155 249.926C344.155 250.157 344.155 250.157 344.155 250.389C343.69 250.853 343.224 251.317 342.759 251.781C342.759 251.085 342.759 250.621 342.759 250.157ZM345.085 248.07C345.085 247.838 344.853 247.838 344.62 247.838C343.922 247.838 343.457 248.07 342.759 248.534C342.527 248.534 342.527 248.766 342.527 248.766C342.294 247.375 342.061 245.751 341.829 244.36C342.759 243.896 342.992 242.505 343.224 241.577C343.457 240.418 342.759 239.49 342.061 238.562C341.131 237.403 340.433 236.707 339.968 235.316C339.735 234.388 339.735 233.692 339.968 233.229C341.364 233.924 342.759 234.62 344.155 235.316C343.922 235.548 343.69 235.779 343.922 236.243C343.922 236.475 344.155 236.707 344.387 236.939C345.318 237.171 346.016 236.939 346.481 236.707C346.946 236.939 347.179 237.171 347.644 237.403C347.877 238.098 349.04 238.33 349.737 238.562C350.435 238.794 351.133 239.258 351.831 239.49C351.366 240.186 350.9 240.649 350.203 241.113C349.272 241.809 347.179 241.809 346.481 242.968C345.783 244.592 346.248 246.447 347.644 247.143C346.946 247.838 346.248 248.534 345.55 249.462C345.318 248.534 345.085 248.302 345.085 248.07ZM349.505 235.316C352.063 235.084 352.994 236.011 352.296 237.867C351.598 237.635 350.9 237.403 350.203 237.171C350.203 237.171 349.97 237.171 349.97 236.939C349.505 236.707 349.04 236.475 348.574 236.243C348.574 236.243 348.807 235.779 349.505 235.316ZM345.783 234.852C344.155 233.924 342.527 233.229 340.898 232.301C342.759 231.373 346.248 232.533 345.783 234.852ZM340.433 239.026C340.666 239.258 340.666 239.258 340.898 239.49C341.829 240.649 342.061 241.809 341.131 242.505C341.131 241.345 340.666 240.186 340.433 239.026Z" fill="#BBC5C6"/>
<path d="M383 232.533C383 232.533 384.163 220.474 379.046 208.647C373.928 196.82 368.578 193.11 364.857 192.414C336.479 188.008 333.688 242.737 333.688 242.737C333.688 242.737 353.924 237.171 361.6 237.171C369.509 237.171 371.602 238.794 376.254 238.331C380.907 237.867 383 232.533 383 232.533Z" fill="url(#paint78_linear_0_1)"/>
</g>
</g>
<defs>
<filter id="filter0_d_0_1" x="10" y="16" width="522" height="522" filterUnits="userSpaceOnUse" color-interpolation-filters="sRGB">
<feFlood flood-opacity="0" result="BackgroundImageFix"/>
<feColorMatrix in="SourceAlpha" type="matrix" values="0 0 0 0 0 0 0 0 0 0 0 0 0 0 0 0 0 0 127 0" result="hardAlpha"/>
<feOffset dy="4"/>
<feGaussianBlur stdDeviation="2"/>
<feComposite in2="hardAlpha" operator="out"/>
<feColorMatrix type="matrix" values="0 0 0 0 0 0 0 0 0 0 0 0 0 0 0 0 0 0 0.25 0"/>
<feBlend mode="normal" in2="BackgroundImageFix" result="effect1_dropShadow_0_1"/>
<feBlend mode="normal" in="SourceGraphic" in2="effect1_dropShadow_0_1" result="shape"/>
</filter>
<filter id="filter1_d_0_1" x="139" y="82" width="264" height="402" filterUnits="userSpaceOnUse" color-interpolation-filters="sRGB">
<feFlood flood-opacity="0" result="BackgroundImageFix"/>
<feColorMatrix in="SourceAlpha" type="matrix" values="0 0 0 0 0 0 0 0 0 0 0 0 0 0 0 0 0 0 127 0" result="hardAlpha"/>
<feOffset dy="10"/>
<feGaussianBlur stdDeviation="10"/>
<feComposite in2="hardAlpha" operator="out"/>
<feColorMatrix type="matrix" values="0 0 0 0 0 0 0 0 0 0 0 0 0 0 0 0 0 0 0.25 0"/>
<feBlend mode="normal" in2="BackgroundImageFix" result="effect1_dropShadow_0_1"/>
<feBlend mode="normal" in="SourceGraphic" in2="effect1_dropShadow_0_1" result="shape"/>
</filter>
<filter id="filter2_d_0_1" x="289.26" y="344.542" width="235.587" height="139.24" filterUnits="userSpaceOnUse" color-interpolation-filters="sRGB">
<feFlood flood-opacity="0" result="BackgroundImageFix"/>
<feColorMatrix in="SourceAlpha" type="matrix" values="0 0 0 0 0 0 0 0 0 0 0 0 0 0 0 0 0 0 127 0" result="hardAlpha"/>
<feOffset dx="200" dy="33"/>
<feGaussianBlur stdDeviation="5"/>
<feComposite in2="hardAlpha" operator="out"/>
<feColorMatrix type="matrix" values="0 0 0 0 0 0 0 0 0 0 0 0 0 0 0 0 0 0 0.36 0"/>
<feBlend mode="normal" in2="BackgroundImageFix" result="effect1_dropShadow_0_1"/>
<feBlend mode="normal" in="SourceGraphic" in2="effect1_dropShadow_0_1" result="shape"/>
</filter>
<filter id="filter3_d_0_1" x="251.81" y="423.781" width="350.719" height="113.219" filterUnits="userSpaceOnUse" color-interpolation-filters="sRGB">
<feFlood flood-opacity="0" result="BackgroundImageFix"/>
<feColorMatrix in="SourceAlpha" type="matrix" values="0 0 0 0 0 0 0 0 0 0 0 0 0 0 0 0 0 0 127 0" result="hardAlpha"/>
<feOffset dx="200" dy="33"/>
<feGaussianBlur stdDeviation="25"/>
<feComposite in2="hardAlpha" operator="out"/>
<feColorMatrix type="matrix" values="0 0 0 0 0 0 0 0 0 0 0 0 0 0 0 0 0 0 1 0"/>
<feBlend mode="normal" in2="BackgroundImageFix" result="effect1_dropShadow_0_1"/>
<feBlend mode="normal" in="SourceGraphic" in2="effect1_dropShadow_0_1" result="shape"/>
</filter>
<linearGradient id="paint0_linear_0_1" x1="399" y1="0" x2="399" y2="250" gradientUnits="userSpaceOnUse">
<stop stop-color="#FCDCFF"/>
<stop offset="1" stop-color="#F2FFBC"/>
</linearGradient>
<linearGradient id="paint1_linear_0_1" x1="97" y1="294" x2="97" y2="488" gradientUnits="userSpaceOnUse">
<stop stop-color="#EDFFFA"/>
<stop offset="1" stop-color="#D7FFAF"/>
</linearGradient>
<linearGradient id="paint2_linear_0_1" x1="271" y1="16" x2="271" y2="530" gradientUnits="userSpaceOnUse">
<stop stop-color="#FDEDFF"/>
<stop offset="1" stop-color="#E5F9FE"/>
</linearGradient>
<linearGradient id="paint3_linear_0_1" x1="238.627" y1="432.264" x2="249.116" y2="432.264" gradientUnits="userSpaceOnUse">
<stop stop-color="#FF9A6A"/>
<stop offset="0.9923" stop-color="#F17954"/>
</linearGradient>
<linearGradient id="paint4_linear_0_1" x1="329.678" y1="441.724" x2="362.325" y2="441.724" gradientUnits="userSpaceOnUse">
<stop offset="0.0153257" stop-color="#161C2C"/>
<stop offset="0.2728" stop-color="#1A1F2F"/>
<stop offset="0.5009" stop-color="#242A39"/>
<stop offset="0.7171" stop-color="#363C4A"/>
<stop offset="0.7789" stop-color="#3D4250"/>
<stop offset="1" stop-color="#70747E"/>
</linearGradient>
<linearGradient id="paint5_linear_0_1" x1="233.026" y1="144.239" x2="260.211" y2="144.239" gradientUnits="userSpaceOnUse">
<stop stop-color="#FF9A6A"/>
<stop offset="0.9923" stop-color="#F17954"/>
</linearGradient>
<linearGradient id="paint6_linear_0_1" x1="298.561" y1="187.744" x2="358.926" y2="187.744" gradientUnits="userSpaceOnUse">
<stop stop-color="#FF9A6A"/>
<stop offset="0.9923" stop-color="#F17954"/>
</linearGradient>
<linearGradient id="paint7_linear_0_1" x1="198.27" y1="203.053" x2="217.8" y2="203.053" gradientUnits="userSpaceOnUse">
<stop stop-color="#FF9A6A"/>
<stop offset="0.9923" stop-color="#F17954"/>
</linearGradient>
<linearGradient id="paint8_linear_0_1" x1="221.049" y1="150.255" x2="295.977" y2="229.974" gradientUnits="userSpaceOnUse">
<stop stop-color="#F6F5F3"/>
<stop offset="0.2481" stop-color="#F4F2F0"/>
<stop offset="0.4429" stop-color="#ECEAE6"/>
<stop offset="0.6197" stop-color="#DFDCD5"/>
<stop offset="0.7856" stop-color="#CDC9BE"/>
<stop offset="0.9427" stop-color="#B5B0A0"/>
<stop offset="1" stop-color="#ABA593"/>
</linearGradient>
<linearGradient id="paint9_linear_0_1" x1="298.561" y1="175.339" x2="316.774" y2="175.339" gradientUnits="userSpaceOnUse">
<stop stop-color="#F6F5F3"/>
<stop offset="0.3698" stop-color="#F4F2F0"/>
<stop offset="0.6602" stop-color="#ECEAE6"/>
<stop offset="0.9227" stop-color="#DFDCD5"/>
<stop offset="1" stop-color="#DAD7CF"/>
</linearGradient>
<linearGradient id="paint10_linear_0_1" x1="201.017" y1="194.765" x2="220.071" y2="194.765" gradientUnits="userSpaceOnUse">
<stop stop-color="#F6F5F3"/>
<stop offset="0.3698" stop-color="#F4F2F0"/>
<stop offset="0.6602" stop-color="#ECEAE6"/>
<stop offset="0.9227" stop-color="#DFDCD5"/>
<stop offset="1" stop-color="#DAD7CF"/>
</linearGradient>
<linearGradient id="paint11_linear_0_1" x1="188.378" y1="188.085" x2="208.87" y2="188.085" gradientUnits="userSpaceOnUse">
<stop offset="0.00766284" stop-color="#FFBD95"/>
<stop offset="0.2812" stop-color="#FFB88F"/>
<stop offset="0.6499" stop-color="#FFAB7E"/>
<stop offset="1" stop-color="#FF9A67"/>
</linearGradient>
<linearGradient id="paint12_linear_0_1" x1="235.326" y1="334.578" x2="338.84" y2="334.578" gradientUnits="userSpaceOnUse">
<stop offset="0.0153257" stop-color="#161C2C"/>
<stop offset="0.3474" stop-color="#1A1F2F"/>
<stop offset="0.6414" stop-color="#242A39"/>
<stop offset="0.9203" stop-color="#363C4A"/>
<stop offset="1" stop-color="#3D4250"/>
</linearGradient>
<linearGradient id="paint13_linear_0_1" x1="269.004" y1="138.433" x2="279.38" y2="232.5" gradientUnits="userSpaceOnUse">
<stop stop-color="#70747E"/>
<stop offset="0.2211" stop-color="#3D4250"/>
<stop offset="0.2829" stop-color="#363C4A"/>
<stop offset="0.4991" stop-color="#242A39"/>
<stop offset="0.7272" stop-color="#1A1F2F"/>
<stop offset="0.9847" stop-color="#161C2C"/>
</linearGradient>
<linearGradient id="paint14_linear_0_1" x1="222.768" y1="149.656" x2="250.5" y2="237.873" gradientUnits="userSpaceOnUse">
<stop stop-color="#70747E"/>
<stop offset="0.2211" stop-color="#3D4250"/>
<stop offset="0.2829" stop-color="#363C4A"/>
<stop offset="0.4991" stop-color="#242A39"/>
<stop offset="0.7272" stop-color="#1A1F2F"/>
<stop offset="0.9847" stop-color="#161C2C"/>
</linearGradient>
<linearGradient id="paint15_linear_0_1" x1="329.678" y1="435.634" x2="362.325" y2="435.634" gradientUnits="userSpaceOnUse">
<stop stop-color="#451603"/>
<stop offset="0.3975" stop-color="#51200E"/>
<stop offset="0.9885" stop-color="#5E2C1A"/>
</linearGradient>
<linearGradient id="paint16_linear_0_1" x1="229.094" y1="438.081" x2="248.619" y2="438.081" gradientUnits="userSpaceOnUse">
<stop offset="0.011494" stop-color="#693B2A"/>
<stop offset="0.3451" stop-color="#562816"/>
<stop offset="0.6962" stop-color="#491B08"/>
<stop offset="1" stop-color="#451603"/>
</linearGradient>
<linearGradient id="paint17_linear_0_1" x1="232.531" y1="118.196" x2="255.516" y2="114.343" gradientUnits="userSpaceOnUse">
<stop stop-color="#FF9A67"/>
<stop offset="0.3738" stop-color="#FFAD80"/>
<stop offset="0.7186" stop-color="#FFB990"/>
<stop offset="0.9923" stop-color="#FFBD95"/>
</linearGradient>
<linearGradient id="paint18_linear_0_1" x1="230.838" y1="100.227" x2="255.195" y2="115.548" gradientUnits="userSpaceOnUse">
<stop stop-color="#CD6E42"/>
<stop offset="1" stop-color="#AD5022"/>
</linearGradient>
<linearGradient id="paint19_linear_0_1" x1="259.876" y1="122.921" x2="255.341" y2="120.351" gradientUnits="userSpaceOnUse">
<stop stop-color="#FF9A67"/>
<stop offset="0.9923" stop-color="#FFBD95"/>
</linearGradient>
<linearGradient id="paint20_linear_0_1" x1="238.553" y1="125.408" x2="259.383" y2="125.408" gradientUnits="userSpaceOnUse">
<stop stop-color="#CD6E42"/>
<stop offset="1" stop-color="#AD5022"/>
</linearGradient>
<linearGradient id="paint21_linear_0_1" x1="247.806" y1="126.956" x2="255.384" y2="126.956" gradientUnits="userSpaceOnUse">
<stop stop-color="#CD6E42"/>
<stop offset="1" stop-color="#AD5022"/>
</linearGradient>
<linearGradient id="paint22_linear_0_1" x1="254.739" y1="127.764" x2="261.353" y2="127.764" gradientUnits="userSpaceOnUse">
<stop stop-color="#AD5022"/>
<stop offset="1" stop-color="#CD6E42"/>
</linearGradient>
<linearGradient id="paint23_linear_0_1" x1="256.368" y1="102.722" x2="264.907" y2="102.722" gradientUnits="userSpaceOnUse">
<stop stop-color="#AD5022"/>
<stop offset="1" stop-color="#CD6E42"/>
</linearGradient>
<linearGradient id="paint24_linear_0_1" x1="258.059" y1="102.156" x2="243.175" y2="102.156" gradientUnits="userSpaceOnUse">
<stop stop-color="#AD5022"/>
<stop offset="1" stop-color="#CD6E42"/>
</linearGradient>
<linearGradient id="paint25_linear_0_1" x1="250.925" y1="151.145" x2="252.322" y2="152.027" gradientUnits="userSpaceOnUse">
<stop stop-color="#C3BEB1"/>
<stop offset="1" stop-color="#C3BEB1"/>
</linearGradient>
<linearGradient id="paint26_linear_0_1" x1="247.817" y1="151.609" x2="249.214" y2="152.491" gradientUnits="userSpaceOnUse">
<stop stop-color="#C3BEB1"/>
<stop offset="1" stop-color="#C3BEB1"/>
</linearGradient>
<linearGradient id="paint27_linear_0_1" x1="251.145" y1="145.676" x2="263.184" y2="143.209" gradientUnits="userSpaceOnUse">
<stop stop-color="#F6F5F3"/>
<stop offset="0.09614" stop-color="#F2F1EE"/>
<stop offset="0.6503" stop-color="#E1DED7"/>
<stop offset="1" stop-color="#DAD7CF"/>
</linearGradient>
<linearGradient id="paint28_linear_0_1" x1="231.991" y1="149.731" x2="246.986" y2="146.658" gradientUnits="userSpaceOnUse">
<stop stop-color="#F6F5F3"/>
<stop offset="0.3671" stop-color="#EFEDEA"/>
<stop offset="0.977" stop-color="#DBD8D0"/>
<stop offset="1" stop-color="#DAD7CF"/>
</linearGradient>
<linearGradient id="paint29_linear_0_1" x1="257.209" y1="149.119" x2="251.017" y2="154.688" gradientUnits="userSpaceOnUse">
<stop stop-color="#8D3B2B"/>
<stop offset="0.2925" stop-color="#893A2A"/>
<stop offset="0.5764" stop-color="#7D3625"/>
<stop offset="0.8562" stop-color="#6A301E"/>
<stop offset="0.9885" stop-color="#5E2C1A"/>
</linearGradient>
<linearGradient id="paint30_linear_0_1" x1="248.341" y1="150.339" x2="242.18" y2="155.881" gradientUnits="userSpaceOnUse">
<stop stop-color="#8D3B2B"/>
<stop offset="0.2925" stop-color="#893A2A"/>
<stop offset="0.5764" stop-color="#7D3625"/>
<stop offset="0.8562" stop-color="#6A301E"/>
<stop offset="0.9885" stop-color="#5E2C1A"/>
</linearGradient>
<linearGradient id="paint31_linear_0_1" x1="250.406" y1="152.349" x2="248.204" y2="152.797" gradientUnits="userSpaceOnUse">
<stop stop-color="#8D3B2B"/>
<stop offset="0.2925" stop-color="#893A2A"/>
<stop offset="0.5764" stop-color="#7D3625"/>
<stop offset="0.8562" stop-color="#6A301E"/>
<stop offset="0.9885" stop-color="#5E2C1A"/>
</linearGradient>
<linearGradient id="paint32_linear_0_1" x1="252.352" y1="232.802" x2="246.68" y2="233.547" gradientUnits="userSpaceOnUse">
<stop offset="0.0153257" stop-color="#161C2C"/>
<stop offset="0.2728" stop-color="#1A1F2F"/>
<stop offset="0.5009" stop-color="#242A39"/>
<stop offset="0.7171" stop-color="#363C4A"/>
<stop offset="0.7789" stop-color="#3D4250"/>
<stop offset="1" stop-color="#70747E"/>
</linearGradient>
<linearGradient id="paint33_linear_0_1" x1="253.931" y1="241.138" x2="249.008" y2="241.784" gradientUnits="userSpaceOnUse">
<stop offset="0.0153257" stop-color="#161C2C"/>
<stop offset="0.2728" stop-color="#1A1F2F"/>
<stop offset="0.5009" stop-color="#242A39"/>
<stop offset="0.7171" stop-color="#363C4A"/>
<stop offset="0.7789" stop-color="#3D4250"/>
<stop offset="1" stop-color="#70747E"/>
</linearGradient>
<linearGradient id="paint34_linear_0_1" x1="254.196" y1="244.74" x2="251.248" y2="245.325" gradientUnits="userSpaceOnUse">
<stop offset="0.0153257" stop-color="#161C2C"/>
<stop offset="0.2728" stop-color="#1A1F2F"/>
<stop offset="0.5009" stop-color="#242A39"/>
<stop offset="0.7171" stop-color="#363C4A"/>
<stop offset="0.7789" stop-color="#3D4250"/>
<stop offset="1" stop-color="#70747E"/>
</linearGradient>
<linearGradient id="paint35_linear_0_1" x1="253.833" y1="237.737" x2="248.16" y2="238.482" gradientUnits="userSpaceOnUse">
<stop offset="0.0153257" stop-color="#161C2C"/>
<stop offset="0.2728" stop-color="#1A1F2F"/>
<stop offset="0.5009" stop-color="#242A39"/>
<stop offset="0.7171" stop-color="#363C4A"/>
<stop offset="0.7789" stop-color="#3D4250"/>
<stop offset="1" stop-color="#70747E"/>
</linearGradient>
<linearGradient id="paint36_linear_0_1" x1="275.966" y1="228.12" x2="280.999" y2="226.728" gradientUnits="userSpaceOnUse">
<stop offset="0.0153257" stop-color="#161C2C"/>
<stop offset="0.2728" stop-color="#1A1F2F"/>
<stop offset="0.5009" stop-color="#242A39"/>
<stop offset="0.7171" stop-color="#363C4A"/>
<stop offset="0.7789" stop-color="#3D4250"/>
<stop offset="1" stop-color="#70747E"/>
</linearGradient>
<linearGradient id="paint37_linear_0_1" x1="277.356" y1="236.504" x2="282.035" y2="235.209" gradientUnits="userSpaceOnUse">
<stop offset="0.0153257" stop-color="#161C2C"/>
<stop offset="0.2728" stop-color="#1A1F2F"/>
<stop offset="0.5009" stop-color="#242A39"/>
<stop offset="0.7171" stop-color="#363C4A"/>
<stop offset="0.7789" stop-color="#3D4250"/>
<stop offset="1" stop-color="#70747E"/>
</linearGradient>
<linearGradient id="paint38_linear_0_1" x1="278.219" y1="239.616" x2="281.203" y2="239.259" gradientUnits="userSpaceOnUse">
<stop offset="0.0153257" stop-color="#161C2C"/>
<stop offset="0.2728" stop-color="#1A1F2F"/>
<stop offset="0.5009" stop-color="#242A39"/>
<stop offset="0.7171" stop-color="#363C4A"/>
<stop offset="0.7789" stop-color="#3D4250"/>
<stop offset="1" stop-color="#70747E"/>
</linearGradient>
<linearGradient id="paint39_linear_0_1" x1="276.473" y1="233.241" x2="281.506" y2="231.848" gradientUnits="userSpaceOnUse">
<stop offset="0.0153257" stop-color="#161C2C"/>
<stop offset="0.2728" stop-color="#1A1F2F"/>
<stop offset="0.5009" stop-color="#242A39"/>
<stop offset="0.7171" stop-color="#363C4A"/>
<stop offset="0.7789" stop-color="#3D4250"/>
<stop offset="1" stop-color="#70747E"/>
</linearGradient>
<linearGradient id="paint40_linear_0_1" x1="328.587" y1="429.007" x2="340.647" y2="429.007" gradientUnits="userSpaceOnUse">
<stop stop-color="#FF9A6A"/>
<stop offset="0.9923" stop-color="#F17954"/>
</linearGradient>
<linearGradient id="paint41_linear_0_1" x1="221.536" y1="444.127" x2="250.332" y2="444.127" gradientUnits="userSpaceOnUse">
<stop stop-color="#70747E"/>
<stop offset="0.2211" stop-color="#3D4250"/>
<stop offset="0.2829" stop-color="#363C4A"/>
<stop offset="0.4991" stop-color="#242A39"/>
<stop offset="0.7272" stop-color="#1A1F2F"/>
<stop offset="0.9847" stop-color="#161C2C"/>
</linearGradient>
<linearGradient id="paint42_linear_0_1" x1="221.43" y1="441.365" x2="239.588" y2="441.365" gradientUnits="userSpaceOnUse">
<stop offset="0.00633936" stop-color="#6C3E2E"/>
<stop offset="0.3888" stop-color="#603221"/>
<stop offset="1" stop-color="#451603"/>
</linearGradient>
<linearGradient id="paint43_linear_0_1" x1="328.091" y1="428.693" x2="339.275" y2="425.699" gradientUnits="userSpaceOnUse">
<stop offset="0.0153257" stop-color="#161C2C"/>
<stop offset="0.2728" stop-color="#1A1F2F"/>
<stop offset="0.5009" stop-color="#242A39"/>
<stop offset="0.7171" stop-color="#363C4A"/>
<stop offset="0.7789" stop-color="#3D4250"/>
<stop offset="1" stop-color="#70747E"/>
</linearGradient>
<linearGradient id="paint44_linear_0_1" x1="238.447" y1="429.46" x2="250.012" y2="430.074" gradientUnits="userSpaceOnUse">
<stop stop-color="#70747E"/>
<stop offset="0.2211" stop-color="#3D4250"/>
<stop offset="0.2829" stop-color="#363C4A"/>
<stop offset="0.4991" stop-color="#242A39"/>
<stop offset="0.7272" stop-color="#1A1F2F"/>
<stop offset="0.9847" stop-color="#161C2C"/>
</linearGradient>
<linearGradient id="paint45_linear_0_1" x1="181.116" y1="152.307" x2="192.527" y2="159.605" gradientUnits="userSpaceOnUse">
<stop stop-color="#FF9A67"/>
<stop offset="0.2735" stop-color="#FF9F6D"/>
<stop offset="0.6422" stop-color="#FFAC7E"/>
<stop offset="0.9923" stop-color="#FFBD95"/>
</linearGradient>
<linearGradient id="paint46_linear_0_1" x1="189.372" y1="149.714" x2="193.274" y2="156.398" gradientUnits="userSpaceOnUse">
<stop stop-color="#FF9A67"/>
<stop offset="0.3501" stop-color="#FFAB7E"/>
<stop offset="0.7188" stop-color="#FFB88F"/>
<stop offset="0.9923" stop-color="#FFBD95"/>
</linearGradient>
<linearGradient id="paint47_linear_0_1" x1="189.469" y1="139.963" x2="184.061" y2="143.71" gradientUnits="userSpaceOnUse">
<stop stop-color="#70747E"/>
<stop offset="0.2211" stop-color="#3D4250"/>
<stop offset="0.2829" stop-color="#363C4A"/>
<stop offset="0.4991" stop-color="#242A39"/>
<stop offset="0.7272" stop-color="#1A1F2F"/>
<stop offset="0.9847" stop-color="#161C2C"/>
</linearGradient>
<linearGradient id="paint48_linear_0_1" x1="184.048" y1="141.235" x2="173.369" y2="148.635" gradientUnits="userSpaceOnUse">
<stop stop-color="#70747E"/>
<stop offset="0.2211" stop-color="#3D4250"/>
<stop offset="0.2829" stop-color="#363C4A"/>
<stop offset="0.4991" stop-color="#242A39"/>
<stop offset="0.7272" stop-color="#1A1F2F"/>
<stop offset="0.9847" stop-color="#161C2C"/>
</linearGradient>
<linearGradient id="paint49_linear_0_1" x1="172.914" y1="146.386" x2="179.756" y2="146.386" gradientUnits="userSpaceOnUse">
<stop offset="0.00766284" stop-color="#FFBD95"/>
<stop offset="0.2812" stop-color="#FFB88F"/>
<stop offset="0.6499" stop-color="#FFAB7E"/>
<stop offset="1" stop-color="#FF9A67"/>
</linearGradient>
<linearGradient id="paint50_linear_0_1" x1="184.427" y1="145.404" x2="190.057" y2="145.404" gradientUnits="userSpaceOnUse">
<stop offset="0.00766284" stop-color="#FFBD95"/>
<stop offset="0.2812" stop-color="#FFB88F"/>
<stop offset="0.6499" stop-color="#FFAB7E"/>
<stop offset="1" stop-color="#FF9A67"/>
</linearGradient>
<linearGradient id="paint51_linear_0_1" x1="177.49" y1="154.933" x2="187.6" y2="155.992" gradientUnits="userSpaceOnUse">
<stop stop-color="#FF9A67"/>
<stop offset="0.3501" stop-color="#FFAB7E"/>
<stop offset="0.7188" stop-color="#FFB88F"/>
<stop offset="0.9923" stop-color="#FFBD95"/>
</linearGradient>
<linearGradient id="paint52_linear_0_1" x1="330.497" y1="183.55" x2="356.828" y2="183.55" gradientUnits="userSpaceOnUse">
<stop stop-color="#FF9A6A"/>
<stop offset="0.9923" stop-color="#F17954"/>
</linearGradient>
<linearGradient id="paint53_linear_0_1" x1="290.118" y1="263.694" x2="354.471" y2="263.694" gradientUnits="userSpaceOnUse">
<stop offset="0.1916" stop-color="#F5443C"/>
<stop offset="1" stop-color="#B04242"/>
</linearGradient>
<linearGradient id="paint54_linear_0_1" x1="339.537" y1="268.151" x2="378.316" y2="268.151" gradientUnits="userSpaceOnUse">
<stop offset="0.0153257" stop-color="#161C2C"/>
<stop offset="0.2728" stop-color="#1A1F2F"/>
<stop offset="0.5009" stop-color="#242A39"/>
<stop offset="0.7171" stop-color="#363C4A"/>
<stop offset="0.7789" stop-color="#3D4250"/>
<stop offset="1" stop-color="#70747E"/>
</linearGradient>
<linearGradient id="paint55_linear_0_1" x1="209.209" y1="400.129" x2="221.139" y2="400.129" gradientUnits="userSpaceOnUse">
<stop stop-color="#FF9A6A"/>
<stop offset="0.9923" stop-color="#F17954"/>
</linearGradient>
<linearGradient id="paint56_linear_0_1" x1="210.771" y1="357.713" x2="248.365" y2="357.713" gradientUnits="userSpaceOnUse">
<stop offset="0.0114943" stop-color="#88A1CE"/>
<stop offset="0.2254" stop-color="#869DC7"/>
<stop offset="0.5321" stop-color="#8091B4"/>
<stop offset="0.8932" stop-color="#767D95"/>
<stop offset="0.9885" stop-color="#73778C"/>
</linearGradient>
<linearGradient id="paint57_linear_0_1" x1="209.647" y1="391.56" x2="225.725" y2="391.56" gradientUnits="userSpaceOnUse">
<stop offset="0.0114943" stop-color="#C5D2F2"/>
<stop offset="0.2254" stop-color="#C1CEEB"/>
<stop offset="0.5321" stop-color="#B5C4D8"/>
<stop offset="0.8932" stop-color="#A2B4B9"/>
<stop offset="0.9885" stop-color="#9CAFB0"/>
</linearGradient>
<linearGradient id="paint58_linear_0_1" x1="217.137" y1="356.555" x2="267.718" y2="356.555" gradientUnits="userSpaceOnUse">
<stop offset="0.0114943" stop-color="#9CAECE"/>
<stop offset="0.2254" stop-color="#98A8C7"/>
<stop offset="0.5321" stop-color="#8C99B4"/>
<stop offset="0.8932" stop-color="#797F95"/>
<stop offset="0.9885" stop-color="#73778C"/>
</linearGradient>
<linearGradient id="paint59_linear_0_1" x1="319.897" y1="318.972" x2="279.602" y2="222.747" gradientUnits="userSpaceOnUse">
<stop offset="0.162" stop-color="#664D4F"/>
<stop offset="0.388" stop-color="#6D5557"/>
<stop offset="0.7461" stop-color="#826C6E"/>
<stop offset="0.9808" stop-color="#927F81"/>
</linearGradient>
<linearGradient id="paint60_linear_0_1" x1="180.964" y1="410.717" x2="221.999" y2="410.717" gradientUnits="userSpaceOnUse">
<stop stop-color="#70747E"/>
<stop offset="0.2211" stop-color="#3D4250"/>
<stop offset="0.2829" stop-color="#363C4A"/>
<stop offset="0.4991" stop-color="#242A39"/>
<stop offset="0.7272" stop-color="#1A1F2F"/>
<stop offset="0.9847" stop-color="#161C2C"/>
</linearGradient>
<linearGradient id="paint61_linear_0_1" x1="184.705" y1="410.717" x2="225.74" y2="410.717" gradientUnits="userSpaceOnUse">
<stop stop-color="#70747E"/>
<stop offset="0.7726" stop-color="#3D4250"/>
<stop offset="0.7898" stop-color="#363C4A"/>
<stop offset="0.8498" stop-color="#242A39"/>
<stop offset="0.9132" stop-color="#1A1F2F"/>
<stop offset="0.9847" stop-color="#161C2C"/>
</linearGradient>
<linearGradient id="paint62_linear_0_1" x1="213.339" y1="399.696" x2="229.199" y2="399.696" gradientUnits="userSpaceOnUse">
<stop offset="0.00766284" stop-color="#FFBD95"/>
<stop offset="0.2812" stop-color="#FFB88F"/>
<stop offset="0.6499" stop-color="#FFAB7E"/>
<stop offset="1" stop-color="#FF9A67"/>
</linearGradient>
<linearGradient id="paint63_linear_0_1" x1="215.967" y1="395.322" x2="231.921" y2="395.322" gradientUnits="userSpaceOnUse">
<stop offset="0.0114943" stop-color="#C5D2F2"/>
<stop offset="0.2254" stop-color="#C1CEEB"/>
<stop offset="0.5321" stop-color="#B5C4D8"/>
<stop offset="0.8932" stop-color="#A2B4B9"/>
<stop offset="0.9885" stop-color="#9CAFB0"/>
</linearGradient>
<linearGradient id="paint64_linear_0_1" x1="289.331" y1="392.749" x2="314.967" y2="392.749" gradientUnits="userSpaceOnUse">
<stop stop-color="#555553"/>
<stop offset="0.0310797" stop-color="#6C6C6A"/>
<stop offset="0.1127" stop-color="#A3A3A2"/>
<stop offset="0.1735" stop-color="#C6C6C5"/>
<stop offset="0.2062" stop-color="#D3D3D2"/>
<stop offset="0.5309" stop-color="#5A5A5A"/>
<stop offset="0.6345" stop-color="#555555"/>
<stop offset="0.7614" stop-color="#484846"/>
<stop offset="0.7732" stop-color="#464644"/>
<stop offset="0.7946" stop-color="#4D4D4B"/>
<stop offset="0.825" stop-color="#5F5F5D"/>
<stop offset="0.8608" stop-color="#7D7D7C"/>
<stop offset="0.8969" stop-color="#A2A2A2"/>
<stop offset="0.9138" stop-color="#969696"/>
<stop offset="0.9441" stop-color="#787878"/>
<stop offset="0.9839" stop-color="#464646"/>
<stop offset="1" stop-color="#303030"/>
</linearGradient>
<linearGradient id="paint65_linear_0_1" x1="251.737" y1="447.468" x2="352.561" y2="447.468" gradientUnits="userSpaceOnUse">
<stop stop-color="#555553"/>
<stop offset="0.0310797" stop-color="#6C6C6A"/>
<stop offset="0.1127" stop-color="#A3A3A2"/>
<stop offset="0.1735" stop-color="#C6C6C5"/>
<stop offset="0.2062" stop-color="#D3D3D2"/>
<stop offset="0.5309" stop-color="#5A5A5A"/>
<stop offset="0.6345" stop-color="#555555"/>
<stop offset="0.7614" stop-color="#484846"/>
<stop offset="0.7732" stop-color="#464644"/>
<stop offset="0.8759" stop-color="#3F3F3E"/>
<stop offset="1" stop-color="#303030"/>
</linearGradient>
<linearGradient id="paint66_linear_0_1" x1="159" y1="378.511" x2="273.158" y2="378.511" gradientUnits="userSpaceOnUse">
<stop stop-color="#555553"/>
<stop offset="0.0310797" stop-color="#6C6C6A"/>
<stop offset="0.1127" stop-color="#A3A3A2"/>
<stop offset="0.1735" stop-color="#C6C6C5"/>
<stop offset="0.2062" stop-color="#D3D3D2"/>
<stop offset="0.5309" stop-color="#5A5A5A"/>
<stop offset="0.6345" stop-color="#555555"/>
<stop offset="0.7614" stop-color="#484846"/>
<stop offset="0.7732" stop-color="#464644"/>
<stop offset="0.7946" stop-color="#4D4D4B"/>
<stop offset="0.825" stop-color="#5F5F5D"/>
<stop offset="0.8608" stop-color="#7D7D7C"/>
<stop offset="0.8969" stop-color="#A2A2A2"/>
<stop offset="0.9138" stop-color="#969696"/>
<stop offset="0.9441" stop-color="#787878"/>
<stop offset="0.9839" stop-color="#464646"/>
<stop offset="1" stop-color="#303030"/>
</linearGradient>
<linearGradient id="paint67_linear_0_1" x1="252.706" y1="339.53" x2="361.035" y2="339.53" gradientUnits="userSpaceOnUse">
<stop offset="0.2211" stop-color="#3D4250"/>
<stop offset="0.2829" stop-color="#363C4A"/>
<stop offset="0.4991" stop-color="#242A39"/>
<stop offset="0.7272" stop-color="#1A1F2F"/>
<stop offset="0.9847" stop-color="#161C2C"/>
</linearGradient>
<linearGradient id="paint68_linear_0_1" x1="274.318" y1="310.948" x2="346.927" y2="310.948" gradientUnits="userSpaceOnUse">
<stop stop-color="#9B9591"/>
<stop offset="1" stop-color="#ACA6A2"/>
</linearGradient>
<linearGradient id="paint69_linear_0_1" x1="260.211" y1="283.911" x2="346.927" y2="283.911" gradientUnits="userSpaceOnUse">
<stop stop-color="#3D4250"/>
<stop offset="0.0797277" stop-color="#363C4A"/>
<stop offset="0.3586" stop-color="#242A39"/>
<stop offset="0.6526" stop-color="#1A1F2F"/>
<stop offset="0.9847" stop-color="#161C2C"/>
</linearGradient>
<linearGradient id="paint70_linear_0_1" x1="331.563" y1="328.389" x2="337.516" y2="328.389" gradientUnits="userSpaceOnUse">
<stop offset="0.0153257" stop-color="#161C2C"/>
<stop offset="0.2728" stop-color="#1A1F2F"/>
<stop offset="0.5009" stop-color="#242A39"/>
<stop offset="0.7171" stop-color="#363C4A"/>
<stop offset="0.7789" stop-color="#3D4250"/>
<stop offset="1" stop-color="#70747E"/>
</linearGradient>
<linearGradient id="paint71_linear_0_1" x1="360.175" y1="172.275" x2="340.614" y2="150.475" gradientUnits="userSpaceOnUse">
<stop offset="0.00515464" stop-color="#F1774A"/>
<stop offset="0.9923" stop-color="#FFBD95"/>
</linearGradient>
<linearGradient id="paint72_linear_0_1" x1="331.189" y1="152.901" x2="336.127" y2="153.951" gradientUnits="userSpaceOnUse">
<stop offset="0.00766284" stop-color="#F17954"/>
<stop offset="0.4406" stop-color="#FF9A6A"/>
<stop offset="0.9923" stop-color="#FFBD95"/>
</linearGradient>
<linearGradient id="paint73_linear_0_1" x1="334.56" y1="166.301" x2="334.123" y2="164.217" gradientUnits="userSpaceOnUse">
<stop offset="0.00766284" stop-color="#F17954"/>
<stop offset="1" stop-color="#FF9A6A"/>
</linearGradient>
<linearGradient id="paint74_linear_0_1" x1="337.65" y1="152.016" x2="344.295" y2="153.706" gradientUnits="userSpaceOnUse">
<stop stop-color="#8D3B2B"/>
<stop offset="0.2925" stop-color="#893A2A"/>
<stop offset="0.5764" stop-color="#7D3625"/>
<stop offset="0.8562" stop-color="#6A301E"/>
<stop offset="0.9885" stop-color="#5E2C1A"/>
</linearGradient>
<linearGradient id="paint75_linear_0_1" x1="333.576" y1="154.247" x2="371.022" y2="163.767" gradientUnits="userSpaceOnUse">
<stop stop-color="#8D3B2B"/>
<stop offset="0.2925" stop-color="#893A2A"/>
<stop offset="0.5764" stop-color="#7D3625"/>
<stop offset="0.8562" stop-color="#6A301E"/>
<stop offset="0.9885" stop-color="#5E2C1A"/>
</linearGradient>
<linearGradient id="paint76_linear_0_1" x1="344.388" y1="142.214" x2="361.935" y2="146.674" gradientUnits="userSpaceOnUse">
<stop stop-color="#8D3B2B"/>
<stop offset="0.2925" stop-color="#893A2A"/>
<stop offset="0.5764" stop-color="#7D3625"/>
<stop offset="0.8562" stop-color="#6A301E"/>
<stop offset="0.9885" stop-color="#5E2C1A"/>
</linearGradient>
<linearGradient id="paint77_linear_0_1" x1="259.377" y1="243.897" x2="364.565" y2="243.897" gradientUnits="userSpaceOnUse">
<stop offset="0.00766284" stop-color="#FFBD95"/>
<stop offset="0.9948" stop-color="#F1774A"/>
</linearGradient>
<linearGradient id="paint78_linear_0_1" x1="350.882" y1="196.618" x2="362.178" y2="252.255" gradientUnits="userSpaceOnUse">
<stop offset="0.019157" stop-color="#927F81"/>
<stop offset="0.4756" stop-color="#826D6F"/>
<stop offset="0.838" stop-color="#7B6567"/>
</linearGradient>
<clipPath id="clip0_0_1">
<rect width="224" height="362" fill="white" transform="translate(159 92)"/>
</clipPath>
</defs>
</svg>
