<svg width="56" height="56" viewBox="0 0 56 56" fill="none" xmlns="http://www.w3.org/2000/svg">
<g filter="url(#filter0_d_4_163)">
<circle cx="28" cy="20" r="17.5" stroke="url(#paint0_linear_4_163)" shape-rendering="crispEdges"/>
</g>
<path d="M21.334 20.0035C21.334 20.2399 21.4381 20.4763 21.6116 20.6452L26.1648 25.0632C26.3522 25.2456 26.5674 25.3334 26.7895 25.3334C27.3031 25.3334 27.664 24.9821 27.664 24.5093C27.664 24.2526 27.553 24.0499 27.3933 23.8878L25.8247 22.3543L24.0617 20.7803L25.6234 20.8681H33.7581C34.2995 20.8681 34.6673 20.5169 34.6673 20.0035C34.6673 19.4901 34.2995 19.1388 33.7581 19.1388H25.6234L24.0617 19.2198L25.8247 17.6526L27.3933 16.1124C27.5599 15.9503 27.664 15.7476 27.664 15.4909C27.664 15.0248 27.3031 14.6667 26.7895 14.6667C26.5674 14.6667 26.3522 14.7546 26.1509 14.9437L21.6116 19.3617C21.4381 19.5238 21.334 19.767 21.334 20.0035Z" fill="url(#paint1_linear_4_163)"/>
<defs>
<filter id="filter0_d_4_163" x="0" y="0" width="56" height="56" filterUnits="userSpaceOnUse" color-interpolation-filters="sRGB">
<feFlood flood-opacity="0" result="BackgroundImageFix"/>
<feColorMatrix in="SourceAlpha" type="matrix" values="0 0 0 0 0 0 0 0 0 0 0 0 0 0 0 0 0 0 127 0" result="hardAlpha"/>
<feMorphology radius="6" operator="erode" in="SourceAlpha" result="effect1_dropShadow_4_163"/>
<feOffset dy="8"/>
<feGaussianBlur stdDeviation="8"/>
<feComposite in2="hardAlpha" operator="out"/>
<feColorMatrix type="matrix" values="0 0 0 0 0.995833 0 0 0 0 0.43269 0 0 0 0 0.0248958 0 0 0 0.46 0"/>
<feBlend mode="normal" in2="BackgroundImageFix" result="effect1_dropShadow_4_163"/>
<feBlend mode="normal" in="SourceGraphic" in2="effect1_dropShadow_4_163" result="shape"/>
</filter>
<linearGradient id="paint0_linear_4_163" x1="-1.62832" y1="13.6283" x2="21.6283" y2="49.6283" gradientUnits="userSpaceOnUse">
<stop stop-color="#FF8800"/>
<stop offset="1" stop-color="#E63535"/>
</linearGradient>
<linearGradient id="paint1_linear_4_163" x1="17.0272" y1="18.1122" x2="23.1935" y2="30.0436" gradientUnits="userSpaceOnUse">
<stop stop-color="#FF8800"/>
<stop offset="1" stop-color="#E63535"/>
</linearGradient>
</defs>
</svg>
