<svg width="332" height="86" viewBox="0 0 332 86" fill="none" xmlns="http://www.w3.org/2000/svg">
<path d="M86.4009 85.546C86.4009 85.2962 86.3211 85.1396 86.2235 85.1982C86.126 85.2567 85.9245 85.0217 85.7758 84.6761C85.6188 84.3114 85.3768 84.0476 85.1993 84.0476C84.9575 84.0476 84.9379 83.9954 85.1062 83.7986C85.2697 83.6073 85.2643 83.5317 85.0828 83.4724C84.897 83.4118 84.9052 83.3261 85.1209 83.0713C85.3299 82.8244 85.3408 82.7295 85.1666 82.6726C85.0409 82.6315 84.9381 82.52 84.9381 82.4247C84.9381 82.3294 85.0194 82.3003 85.1188 82.36C85.2225 82.4221 85.2531 82.3509 85.1907 82.1929C85.1308 82.0414 85.1758 81.9174 85.2906 81.9174C85.4428 81.9174 85.4464 81.8211 85.3037 81.5624C85.1466 81.2772 85.1647 81.2074 85.396 81.2074C85.6286 81.2074 85.6399 81.1617 85.4549 80.9694C85.2182 80.7234 84.7584 80.9433 84.8184 81.2739C84.8339 81.3594 84.7503 81.4638 84.6325 81.506C84.4916 81.5564 84.4545 81.4482 84.5241 81.1897C84.5823 80.9736 84.5553 80.8392 84.464 80.8911C84.3728 80.943 84.1335 80.9267 83.9324 80.8548C83.6424 80.7513 83.7276 80.6975 84.3438 80.5952C84.8284 80.5147 85.1209 80.3717 85.1209 80.2154C85.1209 80.0775 85.2808 79.9648 85.4762 79.9648C85.6717 79.9648 85.9441 79.8087 86.0817 79.6181C86.3283 79.2762 87.2597 78.8097 87.5616 78.8768C87.6469 78.8958 88.1817 78.7973 88.7501 78.6581C89.3185 78.5188 90.298 78.3486 90.9267 78.2798C91.5554 78.211 92.1157 78.0826 92.1717 77.9946C92.2278 77.9066 92.4539 77.8328 92.6742 77.8306C92.8946 77.8283 93.5686 77.5905 94.172 77.302C94.7754 77.0135 95.4082 76.7756 95.5782 76.7734C95.7483 76.7712 95.9383 76.6896 96.0005 76.5919C96.0626 76.4943 96.0206 76.4144 95.9071 76.4144C95.6537 76.4144 95.7451 75.6205 96.0005 75.6033C96.101 75.5965 96.5441 75.4906 96.985 75.3681C97.4259 75.2456 97.9874 75.1942 98.2328 75.254C98.4782 75.3138 98.9403 75.2845 99.2597 75.1889C99.579 75.0932 100.299 74.9278 100.861 74.8212C102.401 74.5286 103.223 74.2842 103.223 74.119C103.223 73.9479 93.843 74.0673 91.5206 74.268C90.2971 74.3737 89.8303 74.3448 89.3264 74.1322C88.9745 73.9836 88.6453 73.8505 88.5951 73.8363C88.5448 73.8222 88.2632 73.7143 87.9693 73.5964C87.6753 73.4786 87.3051 73.4312 87.1464 73.4912C86.9878 73.5512 84.5541 73.6289 81.7382 73.664C78.9223 73.699 76.2481 73.8073 75.7956 73.9045C75.343 74.0017 73.9868 74.174 72.7818 74.2873C71.5767 74.4007 70.4333 74.5752 70.2409 74.6752C70.0485 74.7752 69.4892 74.8195 68.998 74.7737C68.5068 74.7278 68.0606 74.76 68.0064 74.8452C67.9521 74.9304 67.8312 74.9541 67.7376 74.898C67.644 74.8418 67.5674 74.8804 67.5674 74.9838C67.5674 75.0872 67.5056 75.156 67.4302 75.1366C67.1261 75.0584 65.556 75.3814 65.556 75.5221C65.556 75.6954 64.1748 75.9834 63.6525 75.919C63.4604 75.8954 63.1486 76.0371 62.9597 76.234C62.7708 76.4308 62.4754 76.6014 62.3033 76.6129C62.1312 76.6244 61.4967 76.6511 60.8933 76.6722C60.2899 76.6932 59.4671 76.8027 59.0648 76.9154C58.6626 77.0281 58.0226 77.1652 57.6427 77.2201C57.2628 77.275 56.9965 77.39 57.0511 77.4757C57.2213 77.7431 56.815 77.8131 53.6381 78.0639C53.4693 78.0772 53.3459 78.1638 53.3639 78.2563C53.3818 78.3488 53.2319 78.4714 53.0308 78.5289C52.8297 78.5864 52.4574 78.7706 52.2035 78.9382C51.8713 79.1576 51.1788 79.2752 49.735 79.3573C48.6312 79.4201 47.538 79.4632 47.3055 79.4529C47.0731 79.4427 46.6302 79.5612 46.3213 79.7163C46.0023 79.8764 45.711 79.9279 45.6469 79.8354C45.4895 79.6083 44.8457 79.3902 44.9867 79.6117C45.1354 79.8452 44.9574 79.8333 44.4706 79.5771C43.488 79.06 38.8361 79.453 38.3508 80.0941C38.2006 80.2926 38.1841 80.4265 38.3051 80.4657C38.4091 80.4993 38.4943 80.5976 38.4943 80.684C38.4943 80.7705 38.3792 80.7983 38.2385 80.7459C38.0978 80.6935 37.9284 80.7359 37.862 80.8402C37.6847 81.1187 38.7805 81.0783 39.3719 80.7846C39.6435 80.6497 40.2359 80.4805 40.6885 80.4086C41.141 80.3367 41.6553 80.252 41.8313 80.2203C42.0073 80.1886 42.1513 80.2673 42.1513 80.3952C42.1513 80.5597 42.3787 80.6104 42.9284 80.5686C43.5291 80.5229 43.632 80.5509 43.3817 80.6918C43.2035 80.7921 43.099 80.9388 43.1493 81.0179C43.2579 81.1884 42.2356 81.3598 40.2564 81.5031C39.1451 81.5835 38.7824 81.5516 38.6592 81.3628C38.5437 81.1857 38.4991 81.1796 38.4971 81.3405C38.4929 81.6673 37.3939 81.6145 37.0002 81.2686C36.8163 81.107 36.6658 81.0504 36.6658 81.1428C36.6658 81.2446 36.0723 81.2627 35.1573 81.1887C34.3276 81.1216 33.0316 81.0226 32.2774 80.9688C31.5231 80.915 30.6357 80.7782 30.3054 80.6646C29.9751 80.5511 29.5 80.4963 29.2497 80.5427C28.9993 80.5892 28.7426 80.5456 28.6792 80.4461C28.6083 80.3347 28.6561 80.3203 28.8032 80.4085C28.9521 80.4979 28.9982 80.4825 28.9252 80.3677C28.7875 80.1514 27.9154 79.9555 26.8833 79.909C26.2745 79.8815 26.1486 79.8121 26.1321 79.4946C26.1143 79.1536 26.2404 79.0987 27.3206 78.9772C27.9852 78.9024 28.7347 78.8585 28.9861 78.8796L29.4432 78.918L28.9581 78.662C28.1167 78.218 27.2964 78.0307 25.6948 77.9168C24.84 77.856 23.6058 77.6758 22.9521 77.5164C21.4486 77.1496 16.2317 77.1215 16.0042 77.4789C15.9259 77.6019 15.765 77.6445 15.6467 77.5735C15.3412 77.3902 11.9764 77.3285 12.0908 77.5083C12.1979 77.6764 12.1706 77.6793 9.77865 77.7498C8.09042 77.7995 7.37781 77.8602 4.84996 78.1693C3.69732 78.3102 3.02341 78.2295 2.36462 77.8715C2.08873 77.7216 2.14819 77.6364 2.81261 77.2292C3.34852 76.9008 4.00322 76.7076 4.99145 76.5863C6.67792 76.3793 8.28701 76.1186 9.44632 75.8644C10.1398 75.7124 10.2781 75.6185 10.2054 75.3487C10.1533 75.1551 10.0107 75.0583 9.86031 75.1143C9.71936 75.1668 9.60405 75.1214 9.60405 75.0133C9.60405 74.9052 9.74804 74.8156 9.92404 74.8141C10.1975 74.8118 10.2041 74.7864 9.96975 74.6393C9.79629 74.5304 9.77737 74.4662 9.9183 74.4645C10.0412 74.4629 10.0938 74.3419 10.0355 74.1945C9.96198 74.0085 10.1444 73.8347 10.6355 73.6228L11.3411 73.3184L9.55457 73.2114C8.57197 73.1525 7.27602 73.1124 6.67469 73.1223C6.07336 73.1322 5.58136 73.1303 5.58136 73.1181C5.58136 73.1059 5.74592 72.9117 5.94706 72.6866C6.14819 72.4614 6.31276 72.3312 6.31276 72.3972C6.31276 72.4632 6.49805 72.3995 6.72451 72.2553C6.95098 72.1113 7.74625 71.9015 8.4918 71.7892C9.23734 71.6769 10.1732 71.4734 10.5715 71.337C10.9698 71.2006 11.5939 71.0861 11.9584 71.0826C12.9767 71.0729 15.5417 70.4254 14.8 70.3653C14.7078 70.3578 14.4678 70.315 14.2667 70.27C14.0656 70.2251 13.8005 70.1669 13.6777 70.1408C13.2594 70.0518 13.2327 69.879 13.6189 69.76C13.8308 69.6947 14.2193 69.4477 14.4822 69.2112C14.745 68.9747 15.1437 68.7812 15.3681 68.7812C15.5925 68.7812 15.87 68.6714 15.9848 68.5372C16.1562 68.3367 16.0054 68.2724 15.1386 68.1766C14.5585 68.1124 13.837 68.0212 13.5353 67.9739C12.8175 67.8615 9.96139 67.8777 9.76522 67.9954C9.50056 68.1542 7.40986 68.2291 7.40986 68.0798C7.40986 68.0013 7.53328 67.8377 7.68413 67.7161C7.83498 67.5946 7.95841 67.4117 7.95841 67.3098C7.95841 67.2078 7.90426 67.177 7.83809 67.2412C7.77192 67.3055 7.60736 67.269 7.47239 67.1603C7.33652 67.0508 7.22701 67.0383 7.22701 67.1323C7.22701 67.2256 7.10358 67.3019 6.95273 67.3019C6.5136 67.3019 6.63406 67.1118 7.23751 66.8525C7.91613 66.5609 7.81896 66.4386 6.72492 66.2073C5.72689 65.9962 5.53663 65.6656 6.25218 65.3856C6.99271 65.0958 10.4719 64.7197 12.4607 64.7144C13.393 64.7118 14.374 64.6567 14.6408 64.5917L15.1258 64.4735L14.6048 64.0598C14.3183 63.8322 13.9447 63.6432 13.7747 63.6397C13.3413 63.6307 13.2095 63.3484 13.442 62.9266C13.6875 62.4813 15.278 61.6806 15.9171 61.6806C16.1865 61.6806 16.3423 61.604 16.2781 61.5031C16.2159 61.4055 16.0141 61.3256 15.8297 61.3256C15.5199 61.3256 15.1755 60.8824 15.2434 60.5711C15.3123 60.2547 12.4112 60.6086 12.1684 60.9462C11.983 61.204 7.31385 61.8779 6.85484 61.713L6.41773 61.556L6.84293 61.3351C7.07678 61.2136 8.59595 60.8993 10.2189 60.6366C13.1886 60.156 13.9114 59.8167 11.9654 59.8167C11.3674 59.8167 10.8174 59.7153 10.6385 59.5721C10.3845 59.3687 10.0329 59.3631 8.55148 59.5387C5.82752 59.8617 4.24445 60.0835 3.8732 60.1943C3.62723 60.2677 3.55326 60.215 3.59892 59.9992C3.66547 59.6846 4.23117 59.3155 5.11804 59.008C5.88142 58.7433 5.4069 58.51 4.43085 58.6701C4.00767 58.7395 3.29117 58.8525 2.83862 58.9213L2.01579 59.0463L2.70148 58.4084C3.07861 58.0575 3.38717 57.7419 3.38717 57.707C3.38717 57.6721 2.87693 57.5875 2.25331 57.5191C0.778835 57.3571 -0.0101163 56.9558 9.79412e-05 56.373C0.00546338 56.0656 1.18837 55.6533 2.28903 55.5751C2.74216 55.5429 3.77115 55.3896 4.57569 55.2345C5.38023 55.0794 6.61456 54.9165 7.31866 54.8726C8.02275 54.8287 9.09242 54.7086 9.6957 54.6057C13.4424 53.967 14.2857 53.8098 14.4472 53.7199C14.5464 53.6647 14.2584 53.5322 13.8072 53.4255C13.3531 53.3182 12.9868 53.1275 12.9868 52.9985C12.9868 52.6998 14.8297 52.0509 16.5023 51.7607C17.3159 51.6195 17.9179 51.4095 18.115 51.1981C18.2914 51.0088 18.9035 50.7702 19.5091 50.6545C20.8831 50.3921 20.846 50.1431 19.3531 49.6076C19.033 49.4928 18.8082 49.3064 18.8535 49.1935C18.9567 48.9365 19.8042 48.5444 20.2566 48.5444C20.4436 48.5444 20.5458 48.4645 20.4836 48.3669C20.4214 48.2693 19.7583 48.1894 19.01 48.1894C17.7771 48.1894 17.282 48.0079 17.878 47.7744C18.4106 47.5658 15.7421 47.6787 14.4241 47.9206C12.7827 48.2218 11.8897 48.0957 11.8897 47.5628C11.8897 47.3171 12.3673 46.9945 13.6844 46.3506C14.9252 45.7441 15.405 45.4267 15.2387 45.3224C14.9228 45.1244 15.2346 44.9219 16.4609 44.5287C18.1919 43.9736 19.5651 43.0432 19.3848 42.5476C19.2617 42.2091 19.9364 42.0244 22.7238 41.6338C24.1093 41.4397 25.4968 41.1578 25.8072 41.0075C26.1176 40.8572 26.7747 40.6873 27.2674 40.63C28.626 40.4719 31.2258 39.8334 31.6324 39.5579C31.8308 39.4235 32.2422 39.308 32.5466 39.3011C32.8511 39.2943 33.2648 39.22 33.4659 39.1361C33.7571 39.0146 33.6826 38.9782 33.1002 38.9574C31.5417 38.9016 30.7147 38.7525 30.508 38.4898C30.367 38.3105 30.1466 38.2553 29.8681 38.3296C29.5025 38.4272 29.4883 38.4155 29.7665 38.2464C29.9443 38.1382 30.2323 38.0725 30.4065 38.1003C30.5807 38.1281 30.8339 38.0836 30.9692 38.0012C31.1147 37.9127 31.3993 37.9473 31.6661 38.0859C32.0176 38.2685 32.1934 38.2739 32.463 38.1105C32.6819 37.9778 32.8496 37.9646 32.9197 38.0746C32.9806 38.1703 33.4986 38.2513 34.071 38.2548C34.6433 38.2582 35.3173 38.3753 35.5687 38.5148C36.1164 38.8188 36.3001 38.8411 36.3001 38.6036C36.3001 38.5059 36.1718 38.426 36.015 38.426C35.8582 38.426 35.775 38.3552 35.8301 38.2687C35.8852 38.1822 35.758 38.0676 35.5474 38.0141C35.3368 37.9607 35.2002 37.8118 35.2439 37.6833C35.3245 37.4462 36.1436 37.3073 38.6771 37.101C40.966 36.9146 41.6027 36.8142 41.6027 36.64C41.6027 36.5483 41.4793 36.4734 41.3284 36.4734C41.1761 36.4734 41.0542 36.3156 41.0542 36.1183C41.0542 35.858 41.1761 35.7633 41.5113 35.7633C42.0373 35.7633 42.127 35.4899 41.6414 35.3667C41.4616 35.321 40.5359 35.3263 39.5844 35.3784C36.813 35.5303 35.7044 35.4797 35.1247 35.1752C34.8302 35.0204 34.5365 34.9255 34.4721 34.9642C34.4076 35.0028 34.3889 34.8096 34.4305 34.5347C34.5211 33.935 34.2639 33.8415 32.3865 33.7913C31.2629 33.7613 31.1757 33.7344 31.5662 33.5379C32.2086 33.2147 34.5651 32.7508 35.9704 32.6709C36.6886 32.6301 37.367 32.4843 37.611 32.3184C38.1304 31.9652 38.4435 31.9608 38.7947 32.3017C38.9526 32.4551 39.3929 32.5664 39.833 32.5642C41.1882 32.5574 46.2446 32.0581 46.9311 31.8633C47.5722 31.6814 47.5916 31.652 47.4564 31.0698C47.3712 30.7029 47.3903 30.393 47.5052 30.2815C47.6356 30.1549 47.6299 30.0224 47.4871 29.8553C47.0503 29.3443 47.6059 29.2385 50.2744 29.3246C52.3477 29.3916 52.9945 29.3549 53.4152 29.1466C53.8604 28.9262 55.8672 28.6223 57.2364 28.5678C57.4375 28.5599 58.0135 28.4819 58.5163 28.3946L59.4306 28.2359L58.6077 28.1068C58.1552 28.0358 56.7975 28.0184 55.5907 28.0682C54.3839 28.118 52.656 28.1481 51.7509 28.1351C50.8458 28.1221 49.0767 28.2416 47.8196 28.4006C45.3323 28.7153 42.7671 28.9354 41.6629 28.9289C41.2778 28.9267 40.9111 28.9946 40.8479 29.0798C40.7847 29.1651 40.4762 29.2451 40.1622 29.2575C39.8483 29.27 39.5914 29.3463 39.5914 29.4272C39.5914 29.508 39.4062 29.5236 39.18 29.4618C38.8579 29.3738 38.8281 29.3899 39.0428 29.5359C39.2793 29.6966 39.273 29.7227 38.9971 29.725C38.8211 29.7266 38.6771 29.8168 38.6771 29.9257C38.6771 30.0472 38.5032 30.013 38.2264 29.8369C37.7259 29.5185 37.5064 29.4685 37.6586 29.7075C37.7137 29.7941 37.5951 29.9064 37.3951 29.9572C37.187 30.01 37.0315 29.9617 37.0314 29.8442C37.0314 29.7254 36.7427 29.639 36.3457 29.639C35.9099 29.639 35.6757 29.7167 35.7029 29.8524C35.7324 29.9993 35.5353 30.0396 35.0709 29.9819C34.3097 29.8873 33.5588 29.4737 33.5546 29.1467C33.5526 29.0069 33.4882 29.0243 33.3745 29.1952C33.2369 29.4018 33.1966 29.3496 33.1944 28.9616C33.1909 28.3213 33.4921 27.7751 33.8488 27.7751C34.0021 27.7751 34.0766 27.6952 34.0145 27.5975C33.9523 27.4999 34.0503 27.4139 34.2322 27.4064C34.8348 27.3817 35.2175 27.2741 35.6249 27.015C35.9902 26.7826 36.8486 26.872 36.8486 27.1425C36.8486 27.1914 36.7384 27.1903 36.6036 27.1399C36.4689 27.0897 36.2426 27.1874 36.1008 27.3571C35.8786 27.6229 35.8788 27.6445 36.1028 27.5135C36.3025 27.3967 36.3327 27.4367 36.2337 27.6872C36.1568 27.8819 36.1994 28.0708 36.3398 28.1573C36.6896 28.3728 36.9842 28.3323 36.666 28.1125C36.4596 27.9699 36.5656 27.9465 37.094 28.0179C37.4824 28.0704 37.9456 28.0222 38.1305 27.9101C38.3836 27.7567 38.5299 27.7599 38.7326 27.9232C38.9485 28.0972 39.0278 28.0779 39.1421 27.8238C39.2201 27.6504 39.2709 27.4487 39.2549 27.3755C39.2389 27.3022 39.3424 27.2423 39.4849 27.2423C39.6274 27.2423 39.7753 27.1509 39.8137 27.0393C39.852 26.9276 40.1248 26.8113 40.4198 26.7807C40.7148 26.7502 41.0482 26.6031 41.1605 26.454C41.2729 26.3048 41.4315 26.2414 41.513 26.3131C41.5945 26.3848 41.6095 26.3037 41.5464 26.1328C41.405 25.7504 41.7548 25.7147 41.9055 26.0961C42.0014 26.3386 42.0533 26.3354 42.3569 26.0686C42.6811 25.7838 42.7002 25.7858 42.7028 26.1053C42.7051 26.3886 42.7344 26.4003 42.8829 26.1772C43.1471 25.7802 43.1094 25.6938 42.62 25.5745C42.3096 25.4989 42.1831 25.3524 42.2033 25.0922C42.2355 24.6776 42.8724 24.3676 43.6063 24.4095C44.2903 24.4485 44.8942 24.2201 44.8942 23.9223C44.8942 23.7306 45.0759 23.6743 45.5799 23.71C46.3169 23.7623 47.5567 23.5625 48.0027 23.3196C48.2241 23.199 48.2066 23.1676 47.9112 23.1564C47.7101 23.1489 47.1341 23.1052 46.6313 23.0594C45.0765 22.9179 43.0083 22.9223 42.2622 23.0688C41.75 23.1694 41.5858 23.1525 41.6774 23.0086C41.7561 22.885 41.7066 22.8451 41.548 22.9042C41.3976 22.9602 41.1549 22.7977 40.962 22.5118C40.7264 22.1627 40.6954 22.0034 40.8532 21.9524C41.0013 21.9044 40.9655 21.7986 40.7441 21.6299C40.4436 21.4011 40.463 21.3871 40.963 21.4714C41.2647 21.5223 41.4086 21.5169 41.2829 21.4593C40.8199 21.2474 41.0749 21.0292 41.7857 21.0292C42.2475 21.0292 42.5182 21.1111 42.5199 21.2511C42.5219 21.4144 42.5643 21.4094 42.6799 21.2322C42.7787 21.0809 42.8799 21.0585 42.9521 21.172C43.0749 21.3648 43.3076 21.3498 43.8791 21.1123C44.0751 21.0308 44.5059 20.9589 44.8365 20.9523C45.5943 20.9374 45.8403 20.4967 45.0908 20.4967C44.7944 20.4967 44.522 20.3813 44.4623 20.2304C44.3913 20.0508 44.4712 19.9642 44.708 19.9642C44.901 19.9642 45.1246 19.8643 45.2051 19.7423C45.4148 19.424 46.1599 19.0471 46.3518 19.1622C46.4413 19.2159 46.5662 19.1788 46.6294 19.0795C46.6926 18.9803 46.9713 18.8991 47.2488 18.8991C47.5263 18.8991 48.2003 18.7693 48.7465 18.6108C49.6087 18.3605 49.6862 18.303 49.334 18.1748C49.1108 18.0935 47.5841 18.0379 45.9412 18.0511C44.2983 18.0644 42.8466 18.0107 42.7152 17.9318C42.5791 17.8502 42.4224 17.8731 42.3511 17.985C42.2042 18.2158 36.5201 18.3908 36.3788 18.1688C36.3292 18.0908 36.1608 18.0746 36.0048 18.1327C35.8126 18.2043 35.7873 18.2782 35.9264 18.3616C36.0394 18.4294 35.8817 18.4849 35.576 18.4849C35.2704 18.4849 35.0203 18.4085 35.0203 18.3152C35.0203 18.2219 34.8949 18.2466 34.7416 18.3701C34.5883 18.4936 34.4044 18.5378 34.3329 18.4684C34.2614 18.399 34.4074 18.1911 34.6573 18.0064L35.1117 17.6706L34.6546 17.756C34.254 17.8307 34.2427 17.8204 34.5632 17.6726C35.0905 17.4293 35.9572 17.4545 36.4652 17.7278C36.9603 17.9942 37.5802 17.9064 37.5802 17.5699C37.5802 17.4149 37.9412 17.3453 38.7687 17.3408C39.5144 17.3367 39.9572 17.4069 39.9572 17.5293C39.9572 17.6366 40.0601 17.5934 40.1858 17.4334C40.3509 17.2233 40.846 17.1109 41.9686 17.0286C42.8234 16.966 44.0422 16.802 44.677 16.6643C45.3117 16.5266 46.0934 16.4062 46.414 16.3968C46.7346 16.3874 47.4083 16.2707 47.9112 16.1374C48.7685 15.9101 48.6717 15.901 46.357 15.9918C44.9993 16.0451 43.7651 16.09 43.6142 16.0916C43.4634 16.0932 41.5709 16.2818 39.4087 16.5106C37.2465 16.7395 34.8892 16.9511 34.1703 16.9809C33.4514 17.0108 32.9008 17.0951 32.9468 17.1683C32.9929 17.2415 32.676 17.3017 32.2426 17.3021C31.8093 17.3021 30.7142 17.4186 29.8091 17.56C28.257 17.8026 24.606 18.0527 25.1018 17.8825C25.2282 17.8391 25.285 17.7306 25.2282 17.6413C25.1714 17.552 25.356 17.4751 25.6385 17.4704C25.921 17.4659 26.4401 17.3103 26.7921 17.125C27.1441 16.9398 27.5966 16.7137 27.7977 16.6227C28.4588 16.3234 39.2431 14.5913 41.7857 14.3761C42.54 14.3122 44.7205 14.1017 46.6312 13.9083C48.542 13.715 51.064 13.4792 52.2357 13.3845C53.4073 13.2897 54.7619 13.0965 55.2457 12.9552C55.8814 12.7694 56.1605 12.7531 56.2516 12.8961C56.3671 13.0776 58.2908 13.0279 60.6192 12.7834C60.9712 12.7464 62.082 12.6663 63.0877 12.6053C64.8922 12.4958 67.6416 12.1276 69.1804 11.7892C69.615 11.6937 70.0475 11.6617 70.1417 11.7182C70.2358 11.7747 71.5098 11.6449 72.9727 11.4297C75.1372 11.1114 75.7104 11.079 76.0509 11.256C76.3933 11.4339 76.8318 11.404 78.4639 11.0918C81.1807 10.572 84.7258 9.89625 86.4924 9.56144C87.297 9.40896 88.4658 9.1709 89.0899 9.03245C89.714 8.89397 90.4957 8.78107 90.827 8.78154C91.1583 8.78154 91.7996 8.66739 92.2522 8.52677C93.0149 8.28981 94.5764 8.02675 98.7434 7.43329C100.884 7.12841 101.315 7.05804 103.497 6.65757C104.503 6.47302 106.149 6.19019 107.154 6.02904C108.16 5.86789 109.23 5.69642 109.531 5.648C111.666 5.30546 112.073 5.31182 112.498 5.69449C112.727 5.90096 112.914 6.16058 112.914 6.27142C112.914 6.38226 112.976 6.46349 113.051 6.45193C113.127 6.44048 113.377 6.44048 113.606 6.45193C113.956 6.46949 113.994 6.52726 113.841 6.80463C113.617 7.2107 113.797 7.42972 114.132 7.15974C114.509 6.85597 114.423 7.1292 113.989 7.61352C113.761 7.86756 113.305 8.09533 112.884 8.16431C112.27 8.26502 112.2 8.32053 112.397 8.55051C112.692 8.89568 112.442 8.91709 124.159 7.54071C124.964 7.44619 126.404 7.33056 127.359 7.28374C128.315 7.23693 130.043 7.11453 131.199 7.01176C132.356 6.909 133.878 6.79327 134.582 6.75459C135.286 6.71592 136.187 6.60151 136.585 6.50035C136.983 6.39921 138.56 6.31153 140.091 6.30554C141.622 6.29955 142.983 6.25903 143.116 6.2155C143.445 6.10813 147.73 5.89021 148.75 5.92901C149.2 5.94621 149.695 6.07073 149.849 6.20585C150.193 6.50861 151.071 6.53896 155.152 6.38929C157.029 6.32046 158.751 6.16399 159.317 6.01104C160.055 5.81146 161.28 5.75682 164.528 5.77852C166.864 5.79421 170.75 5.74659 173.163 5.67294C178.054 5.52365 177.793 5.52195 182.854 5.73526C186.131 5.87335 188.022 5.87909 190.9 5.75966C191.402 5.73879 191.67 5.68518 191.494 5.64053C191.318 5.59589 191.174 5.47584 191.174 5.37379C191.174 5.25138 191.687 5.22342 192.682 5.29164C193.512 5.34852 196.001 5.476 198.214 5.57495C200.426 5.6739 203.265 5.83681 204.522 5.93696C209.572 6.33936 211.498 6.48118 214.121 6.64374C220.681 7.05034 224.14 7.21235 227.744 7.28195C229.403 7.314 231.46 7.39466 232.315 7.46116C233.17 7.52768 234.445 7.57494 235.149 7.56618C235.853 7.55756 237.252 7.62881 238.258 7.72485C239.263 7.82089 242.52 7.93463 245.495 7.97763C248.47 8.02063 251.268 8.13367 251.712 8.22883C252.156 8.32399 253.166 8.44513 253.956 8.498C254.746 8.55088 255.652 8.63524 255.968 8.68546C257.049 8.85721 258.737 8.97398 261.205 9.04778C263.379 9.11277 265.491 9.26875 268.611 9.59474C269.113 9.64725 269.813 9.71253 270.165 9.73977C270.517 9.76703 271.422 9.84058 272.176 9.90326C272.93 9.96593 274.206 10.0661 275.01 10.1258C275.814 10.1855 276.514 10.259 276.564 10.2891C276.615 10.3192 277.124 10.392 277.696 10.4511C278.268 10.5101 278.856 10.6033 279.004 10.6582C279.151 10.713 279.999 10.7817 280.889 10.8108C283.333 10.8907 283.33 10.8902 283.33 11.1771C283.33 11.3236 283.417 11.4434 283.524 11.4434C283.63 11.4434 283.658 11.3499 283.585 11.2357C283.495 11.0941 283.554 11.0659 283.772 11.147C283.948 11.2124 284.273 11.2659 284.495 11.2659C284.767 11.2659 284.907 11.3813 284.925 11.6209C284.958 12.0453 284.859 12.0656 284.492 11.7097C284.11 11.3381 283.681 11.366 283.81 11.7541C283.873 11.9452 283.854 11.9884 283.759 11.8663C283.653 11.7311 283.138 11.7057 282.141 11.7866C280.425 11.9259 279.13 11.8876 276.747 11.6271C275.792 11.5226 274.558 11.3942 274.005 11.3417C273.452 11.2892 272.903 11.2158 272.786 11.1785C272.668 11.1413 272.524 11.2319 272.466 11.38C272.387 11.5794 272.213 11.6181 271.796 11.5291C271.141 11.3895 270.72 11.3364 268.976 11.1734C268.272 11.1076 267.647 11.0244 267.587 10.9885C267.459 10.912 265.013 10.8994 261.662 10.958C259.536 10.9952 258.037 10.8936 256.919 10.6365C256.289 10.4916 251.88 10.429 251.88 10.5649C251.88 10.6348 252.435 10.7497 253.114 10.8202C253.793 10.8908 254.513 10.98 254.714 11.0185C256.125 11.2887 259.904 11.5915 262.942 11.6779C263.646 11.6979 264.309 11.7684 264.416 11.8345C264.592 11.9444 270.191 12.3683 270.492 12.2945C270.563 12.2769 271.239 12.3184 271.993 12.3867C273.159 12.4923 276.137 12.7048 276.885 12.7357C277.155 12.7469 277.187 12.976 276.939 13.1248C276.761 13.2316 275.382 13.2562 274.135 13.1749C273.754 13.1501 273.376 13.0247 273.294 12.8962C273.183 12.7223 272.869 12.6933 272.066 12.7828C271.473 12.849 270.933 12.9348 270.865 12.9737C270.798 13.0125 270.618 12.9231 270.465 12.775C270.313 12.627 270.145 12.5742 270.091 12.6578C269.988 12.82 266.298 12.7509 265.228 12.5667C264.876 12.5061 264.255 12.4401 263.849 12.4199C263.443 12.3998 262.929 12.2889 262.706 12.1734C262.383 12.0055 262.302 12.011 262.302 12.2005C262.302 12.34 262.058 12.4567 261.708 12.4841C260.262 12.5973 258.238 12.5866 256.634 12.4572C255.48 12.3641 254.987 12.3757 255.166 12.4919C255.887 12.9604 254.534 13.1915 252.428 12.9597C250.561 12.7541 250.228 12.7433 249.421 12.8622C249.005 12.9235 248.421 12.9104 248.123 12.8331C247.34 12.6294 243.27 12.2687 241.457 12.2423C240.603 12.2299 239.368 12.1651 238.715 12.0984C238.061 12.0316 236.744 11.936 235.789 11.8859C234.834 11.8358 232.571 11.6773 230.761 11.5338C228.951 11.3903 226.258 11.2191 224.777 11.1535C222.365 11.0466 222.073 11.0649 221.968 11.3299C221.869 11.5819 221.551 11.6244 219.815 11.6179C218.695 11.6139 217.408 11.6752 216.956 11.7544L216.133 11.8984L217.504 12.0963C218.258 12.2052 219.163 12.2921 219.515 12.2894C219.867 12.2865 221.307 12.4082 222.715 12.5594C224.123 12.7106 226.797 12.9235 228.658 13.0325C230.518 13.1415 232.224 13.2689 232.447 13.3156C232.671 13.3624 234.522 13.4784 236.562 13.5734C240.226 13.7442 242.794 13.8836 244.749 14.0179C245.302 14.0559 247.199 14.1679 248.965 14.2668C250.731 14.3657 252.295 14.4821 252.439 14.5256C252.584 14.5691 252.867 14.6651 253.068 14.7389C253.27 14.8128 253.75 14.8953 254.137 14.9224C254.524 14.9496 254.935 15.0984 255.052 15.2532C255.22 15.4767 255.697 15.5441 257.366 15.5805C258.522 15.6058 259.55 15.6756 259.651 15.7356C259.752 15.7956 260.451 15.8916 261.205 15.9489C264.811 16.2228 268.415 16.4452 270.073 16.4962C271.079 16.5272 273.218 16.6919 274.827 16.8624C276.437 17.0329 278.494 17.1989 279.399 17.2313C285.663 17.4556 290.666 17.7381 293.295 18.0159C294.2 18.1115 295.787 18.2411 296.821 18.3039C297.855 18.3667 298.744 18.4864 298.797 18.5698C298.85 18.6533 298.621 18.7281 298.289 18.736C297.956 18.744 297.451 18.7668 297.167 18.7868C296.884 18.8068 296.616 18.767 296.572 18.6983C296.528 18.6297 296.188 18.655 295.817 18.7546C295.44 18.8557 294.612 18.8839 293.944 18.8185C293.285 18.754 289.785 18.67 286.164 18.6318C282.544 18.5936 278.224 18.5107 276.565 18.4477C273.607 18.3353 272.769 18.4041 274.709 18.5998C275.247 18.6542 275.727 18.7373 275.776 18.7845C275.906 18.9111 275.238 19.2243 274.683 19.2964C274.037 19.3804 273.833 19.6053 274.386 19.6246C274.629 19.6331 275.897 19.7144 277.204 19.8054C278.512 19.8964 281.083 20.0181 282.919 20.0758C285.936 20.1706 286.256 20.2105 286.256 20.4918C286.256 20.8822 286.992 20.9746 291.428 21.1406C293.217 21.2075 294.723 21.3297 294.776 21.4121C294.828 21.4944 295.232 21.5619 295.672 21.5619C297.174 21.5619 296.753 22.052 294.908 22.4514C294.387 22.5641 293.688 22.6416 293.354 22.6236C291.127 22.5038 291.711 22.8533 294.21 23.1355C295.215 23.2491 296.614 23.3808 297.318 23.4281C298.022 23.4754 299.297 23.5937 300.152 23.691C301.007 23.7883 302.735 23.9206 303.992 23.985C305.54 24.0643 306.337 24.1771 306.46 24.3347C306.562 24.4635 307.214 24.6188 307.923 24.6829C308.627 24.7464 309.285 24.896 309.386 25.0152C309.487 25.1344 310.17 25.2858 310.904 25.3517C311.639 25.4176 312.424 25.5888 312.65 25.7322C312.908 25.8965 313.699 26.0218 314.788 26.071C317.138 26.1771 318.978 26.3772 319.08 26.5374C319.188 26.7059 317.587 26.9465 317.341 26.7989C317.24 26.7384 317.157 26.7646 317.157 26.8571C317.157 26.9496 317.445 27.0778 317.797 27.1419C318.492 27.2685 318.623 27.4893 318.117 27.6798C317.52 27.9047 318.356 28.2609 320.236 28.5822C321.814 28.8521 322.812 29.1856 322.085 29.2004C321.401 29.2144 322.457 29.5273 323.555 29.6364C324.207 29.7012 324.837 29.8312 324.953 29.9254C325.07 30.0196 325.686 30.178 326.322 30.2774C328.09 30.5538 328.071 30.7758 326.268 30.9133C325.594 30.9647 324.978 31.117 324.793 31.2779C324.533 31.5037 324.216 31.5307 323.056 31.4256C320.698 31.2119 320.232 31.2534 319.878 31.7089C319.704 31.9318 319.598 32.17 319.642 32.2383C319.685 32.3066 320.275 32.4184 320.953 32.4867C321.631 32.5551 322.268 32.6737 322.368 32.7503C322.469 32.8269 322.942 32.9461 323.42 33.0152C324.731 33.2046 324.462 33.4554 322.947 33.4554C322.21 33.4554 321.544 33.5153 321.468 33.5886C321.392 33.6618 320.625 33.7217 319.764 33.7217C318.675 33.7217 318.174 33.7893 318.119 33.9436C318.066 34.0957 318.262 34.1658 318.742 34.1665C319.127 34.1668 319.731 34.2407 320.083 34.3303C320.435 34.4199 321.419 34.5437 322.27 34.6054C323.122 34.6672 323.911 34.7925 324.024 34.8839C324.138 34.9752 324.278 35.0034 324.337 34.9466C324.396 34.8897 324.635 34.9095 324.869 34.9906C325.197 35.1045 325.002 35.1638 324.014 35.2511C322.848 35.3542 321.518 35.6132 320.814 35.8744C320.368 36.0401 321.062 36.2223 323.145 36.486C324.176 36.6165 325.02 36.7706 325.02 36.8285C325.02 36.8864 325.555 36.9007 326.208 36.8603C327.163 36.8013 327.397 36.8378 327.397 37.0463C327.397 37.3681 326.818 37.8943 326.468 37.8906C326.253 37.8884 326.256 37.8582 326.482 37.7158C326.716 37.5694 326.708 37.5433 326.431 37.541C326.252 37.5394 326.056 37.6623 325.996 37.8138C325.903 38.0485 325.573 38.0755 323.762 37.9964C321.493 37.8973 320.935 38.0148 321.353 38.5038C322.053 39.3229 324.909 40.201 326.871 40.201C328.057 40.201 328.677 40.4163 328.677 40.8286C328.677 41.0349 328.384 41.0877 327.259 41.0844C326.48 41.0821 325.513 40.996 325.111 40.8932C324.709 40.7904 322.813 40.67 320.899 40.6258C317.514 40.5476 317.418 40.5552 317.391 40.9023C317.364 41.2436 317.588 41.4895 317.98 41.5511C318.08 41.5669 318.869 41.7091 319.733 41.8671C322.559 42.3841 325.068 42.699 327.637 42.859C330.016 43.0073 330.828 43.2106 330.582 43.5969C330.526 43.685 330.401 43.71 330.305 43.6523C330.209 43.5946 330.153 43.6533 330.181 43.7825C330.208 43.9126 330.089 44.0068 329.913 43.9933C329.738 43.9799 329.634 44.0311 329.683 44.107C329.731 44.1829 329.491 44.2958 329.15 44.358C328.412 44.4924 328.237 44.8124 328.615 45.3363C328.816 45.6154 328.838 45.7818 328.694 45.9499C328.458 46.2255 328.612 46.4141 329.073 46.4141C329.257 46.4141 329.408 46.4475 329.408 46.4883C329.408 46.5292 329.462 46.7008 329.529 46.8696C329.641 47.1518 329.518 47.1671 328.021 47.059C327.124 46.9943 326.082 46.8938 325.705 46.8358C325.159 46.7518 325.02 46.7868 325.02 47.0072C325.02 47.1594 324.887 47.3561 324.725 47.4442C324.306 47.6716 324.557 48.6944 325.082 48.9C325.458 49.0469 325.459 49.0555 325.111 49.0781C324.745 49.1018 324.745 49.1018 325.111 49.2544C325.468 49.4032 324.969 49.4668 323.1 49.5111C322.32 49.5296 321.728 49.7685 321.728 50.0651C321.728 50.2236 321.539 50.3204 321.225 50.3219C320.949 50.3235 320.535 50.3729 320.307 50.4324C319.917 50.5338 319.911 50.5554 320.215 50.7794C320.394 50.9107 320.765 51.0208 321.04 51.0239C321.315 51.0271 322.083 51.3091 322.746 51.6508C323.416 51.9955 324.219 52.2721 324.551 52.2721C325.659 52.2721 327.387 52.4981 327.302 52.6319C327.256 52.7049 327.358 52.7536 327.529 52.7402C327.7 52.7269 327.869 52.8536 327.905 53.0218C327.988 53.4124 326.908 54.0858 326.352 53.9906C326.129 53.9525 325.917 54.0085 325.88 54.115C325.794 54.3661 323.66 54.4371 322.806 54.2173C322.444 54.1239 320.572 54.0259 318.646 53.9994C315.391 53.9547 314.431 54.0453 315.648 54.2825C315.925 54.3364 316.522 54.4618 316.974 54.5612C317.427 54.6606 318.147 54.7454 318.574 54.7496C319.001 54.7539 319.351 54.8372 319.351 54.9349C319.351 55.0325 319.48 55.1124 319.637 55.1124C319.795 55.1124 320.093 55.2001 320.299 55.3074C320.67 55.5003 320.67 55.5047 320.241 55.7121C319.491 56.0751 319.724 56.4176 320.984 56.8068C321.631 57.0064 322.199 57.286 322.246 57.4281C322.293 57.5701 322.404 57.7327 322.493 57.7893C322.773 57.9675 322.438 58.5152 322.122 58.3972C321.962 58.3377 321.881 58.3379 321.943 58.3979C322.005 58.4578 321.848 58.7081 321.594 58.9542C321.261 59.278 320.917 59.4098 320.351 59.4311C319.92 59.4473 319.601 59.5127 319.642 59.5766C319.683 59.6404 318.929 59.6535 317.966 59.6057C316.567 59.5361 316.155 59.5726 315.909 59.7878C315.569 60.0866 313.773 60.2098 312.836 59.9986C312.479 59.918 312.218 59.9429 312.14 60.065C312.072 60.1725 311.821 60.2604 311.584 60.2604C311.034 60.2604 310.574 60.4307 310.574 60.6345C310.574 60.7216 310.694 60.793 310.84 60.793C310.985 60.793 311.175 60.9141 311.26 61.0621C311.356 61.2291 312.071 61.4552 313.143 61.6577C315.256 62.0567 316.811 62.6668 316.664 63.0388C316.607 63.1817 316.444 63.255 316.301 63.2017C316.158 63.1484 316.087 63.177 316.143 63.2652C316.199 63.3535 316.029 63.6745 315.766 63.9787C315.413 64.3858 315.189 64.5019 314.919 64.4185C314.715 64.3558 314.597 64.3773 314.654 64.4669C314.711 64.5558 314.471 64.6365 314.121 64.6461C313.771 64.6557 312.908 64.801 312.202 64.9689L310.918 65.2743L311.327 65.6964C311.551 65.9285 311.811 66.1185 311.904 66.1185C311.997 66.1185 312.356 66.2486 312.701 66.4075C313.303 66.6848 313.317 66.7135 313.051 67.1084C312.875 67.3678 312.841 67.5609 312.956 67.6304C313.058 67.691 313.087 67.8235 313.023 67.9248C312.947 68.0437 312.849 68.0236 312.746 67.8682C312.642 67.7119 312.538 67.6909 312.449 67.8085C312.373 67.9081 312.065 68.1052 311.763 68.2464L311.214 68.5033L311.793 68.5636C312.42 68.6289 312.755 69.0844 312.3 69.2536C312.147 69.3108 311.976 69.3135 311.92 69.2595C311.865 69.2055 311.545 69.3107 311.211 69.4933C310.876 69.6758 310.289 69.8821 309.907 69.9517C309.525 70.0213 309.101 70.1859 308.966 70.3173C308.645 70.6287 308.52 70.6219 306.821 70.2C305.296 69.8214 304.866 69.8567 304.24 70.4118C303.888 70.725 303.745 70.7404 302.79 70.569C301.537 70.344 299.176 70.3152 299.31 70.5265C299.362 70.6077 300.004 70.7735 300.738 70.895C302.607 71.2044 302.817 71.2709 302.511 71.455C301.978 71.7742 304.361 72.5278 306.689 72.7768C307.318 72.844 307.872 72.9616 307.921 73.0382C307.97 73.1147 307.837 73.3903 307.626 73.6507C307.272 74.0879 307.265 74.1481 307.537 74.4399C307.699 74.6137 307.832 74.7996 307.832 74.853C307.832 75.0724 304.735 74.7567 303.718 74.4336C302.254 73.9689 299.29 73.6297 299.016 73.8956C298.871 74.0362 298.87 74.1569 299.012 74.3226C299.203 74.5462 299.496 74.6419 301.935 75.2763C302.695 75.4741 303.077 75.663 303.077 75.841C303.077 76.0658 302.862 76.0893 301.721 75.989C300.852 75.9125 300.322 75.9356 300.247 76.0532C300.183 76.1542 300.231 76.2369 300.354 76.2369C300.478 76.2369 300.536 76.2782 300.484 76.3287C300.361 76.4478 297.772 75.9202 297.514 75.7237C297.312 75.5693 294.642 75.17 294.072 75.209C293.896 75.2211 293.752 75.3309 293.752 75.4531C293.752 75.5753 293.71 75.783 293.658 75.9146C293.568 76.1419 295.801 76.6015 299.649 77.1477C300.227 77.2298 300.998 77.4179 301.362 77.5657C301.727 77.7135 302.282 77.8349 302.597 77.8355C303.425 77.8371 304.615 78.1885 304.422 78.3751C304.333 78.4615 303.22 78.5549 301.948 78.5827C300.676 78.6105 299.649 78.6469 299.665 78.6634C299.682 78.68 300.102 78.8486 300.599 79.0381C301.465 79.3682 301.486 79.3918 301.09 79.5972C300.78 79.7581 300.449 79.7643 299.766 79.6219C298.653 79.3902 298.506 79.3871 298.506 79.5955C298.506 79.6854 298.752 79.8114 299.053 79.8755C300.052 80.0886 299.836 80.3197 298.637 80.3197C297.939 80.3197 297.233 80.4323 296.89 80.5983C296.543 80.7663 296.154 80.8275 295.91 80.7523C295.388 80.5916 286.803 80.5303 286.904 80.688C287.116 81.0221 284.718 81.0204 282.671 80.6848C278.526 80.0055 274.999 79.6193 272.724 79.5957C271.467 79.5827 269.575 79.4622 268.519 79.3281C267.463 79.1939 265.582 79.0018 264.339 78.9011C263.095 78.8004 262.026 78.6874 261.961 78.6498C261.897 78.6123 261.228 78.5305 260.474 78.4682C259.719 78.4059 258.814 78.3211 258.462 78.2798C257.729 78.1938 254.393 78.0132 251.971 77.9284C250.219 77.8671 247.556 77.7038 245.754 77.5472C245.151 77.4947 242.806 77.4178 240.543 77.3761C238.28 77.3345 235.606 77.2349 234.6 77.1549C233.595 77.0749 230.813 77.0174 228.42 77.0271C224.799 77.0417 224.038 77.0888 223.894 77.3064C223.747 77.5284 223.696 77.5305 223.556 77.3203C223.447 77.1553 223.212 77.1077 222.852 77.1776C222.554 77.2354 222.222 77.1953 222.111 77.0882C222.001 76.9813 221.639 76.8771 221.307 76.8565C220.975 76.8359 220.539 76.7717 220.338 76.7139C219.242 76.3989 218.101 76.3073 217.641 76.4975C217.271 76.6502 216.35 76.4698 216.477 76.2698C216.524 76.1961 215.643 76.1143 214.519 76.0881C211.493 76.0174 211.179 75.9851 210.836 75.7092C210.558 75.4848 210.53 75.4951 210.585 75.8024C210.627 76.0366 210.559 76.1276 210.373 76.0848C210.222 76.0501 209.913 76.0202 209.687 76.0182C209.461 76.0163 209.276 75.9534 209.276 75.8784C209.276 75.8034 209.143 75.6927 208.981 75.6323C208.767 75.5526 208.716 75.5985 208.796 75.8001C208.872 75.9913 208.835 76.0341 208.679 75.9379C208.555 75.861 207.671 75.7731 206.716 75.7424C204.707 75.6779 205.005 75.6788 195.562 75.7111C191.59 75.7247 187.831 75.6781 187.209 75.6076C186.587 75.5371 185.94 75.531 185.771 75.5939C185.46 75.7099 179.486 75.9388 177.651 75.9051C176.216 75.8788 174.588 76.6979 175.494 76.9909C175.629 77.0345 175.535 77.1602 175.265 77.2985C175.014 77.4271 174.763 77.5998 174.707 77.6822C174.505 77.98 172.953 78.1462 172.512 77.9172C172.234 77.7728 171.498 77.721 170.34 77.7642C169.377 77.8002 166.212 77.8718 163.308 77.9233C160.405 77.9748 157.829 78.0657 157.585 78.1252C157.34 78.1847 156.302 78.2456 155.278 78.2605C154.253 78.2755 153.251 78.3775 153.049 78.4873C152.69 78.6836 150.994 79.0059 150.71 78.9319C150.36 78.8407 149.711 78.8637 149.118 78.9881C148.766 79.062 148.314 79.1092 148.113 79.0928C147.911 79.0764 147.582 79.049 147.381 79.0317C147.18 79.0145 146.234 79.0942 145.278 79.2089C144.323 79.3235 143.186 79.4157 142.751 79.4137C142.316 79.4117 141.863 79.4856 141.745 79.5779C141.627 79.6703 141.263 79.8014 140.936 79.8693C140.449 79.9702 140.341 79.9381 140.341 79.6922C140.341 79.4261 140.19 79.4062 139.016 79.5175C138.287 79.5866 136.374 79.6615 134.764 79.684C133.155 79.7065 131.396 79.8187 130.854 79.9334C130.312 80.0481 129.829 80.1419 129.78 80.1419C129.731 80.1419 129.794 80.2618 129.919 80.4082C130.044 80.5547 130.425 80.6745 130.764 80.6745C131.104 80.6745 131.382 80.7079 131.382 80.7487C131.382 80.7896 131.432 80.9493 131.493 81.1038C131.645 81.4889 131.13 81.4699 130.724 81.0755C130.494 80.852 130.384 80.8277 130.329 80.9878C130.288 81.1096 130.178 81.1641 130.086 81.1089C129.994 81.0537 129.919 81.0732 129.919 81.1522C129.919 81.2312 129.734 81.3056 129.508 81.3176C129.281 81.3295 128.027 81.4298 126.719 81.5403C125.412 81.6508 122.779 81.7732 120.868 81.8123C118.957 81.8514 117.188 81.9272 116.937 81.9807C116.085 82.1621 111.401 82.5827 108.891 82.7032C104.241 82.9265 100.715 83.5723 99.9877 84.3339C99.7603 84.5721 99.3596 84.7644 99.0719 84.7735C96.7057 84.8482 93.4198 85.0874 91.9777 85.29C91.3743 85.3748 90.3158 85.4931 89.6254 85.553C88.9351 85.6129 87.957 85.7379 87.452 85.8309C86.947 85.9239 86.5038 86 86.4673 86C86.4307 86 86.4008 85.7956 86.4008 85.5457L86.4009 85.546ZM86.4009 83.9309C86.4009 83.7367 86.3199 83.7222 86.042 83.8666C85.8275 83.978 85.7257 84.1609 85.789 84.3211C85.8707 84.5277 85.953 84.5425 86.1479 84.3854C86.287 84.2734 86.4009 84.0688 86.4009 83.9309ZM117.211 81.2906C117.926 81.0415 117.908 81.0379 116.388 81.1244C112.907 81.3226 111.817 81.423 111.817 81.5454C111.817 81.777 116.442 81.5585 117.211 81.2906ZM32.2774 79.1469C32.2774 79.1086 32.154 79.0772 32.0031 79.0772C31.8523 79.0772 31.7288 79.1545 31.7288 79.2491C31.7288 79.3437 31.8523 79.3751 32.0031 79.3189C32.154 79.2627 32.2774 79.1853 32.2774 79.1469ZM45.534 78.5446C45.5978 78.4444 45.4481 78.3671 45.1899 78.3671C44.9385 78.3671 44.6819 78.447 44.6197 78.5446C44.5559 78.6449 44.7057 78.7221 44.9639 78.7221C45.2153 78.7221 45.4718 78.6423 45.534 78.5446ZM36.8486 77.6363C36.8486 77.4532 36.6297 77.436 36.2236 77.5873C35.7648 77.7582 35.8879 77.9715 36.3915 77.878C36.6429 77.8313 36.8486 77.7226 36.8486 77.6363ZM140.311 77.6074C140.935 77.4387 141.021 77.3739 140.714 77.3032C140.226 77.1909 134.408 77.4281 131.29 77.6875C130.443 77.7579 136.986 77.93 138.33 77.8726C138.984 77.8447 139.875 77.7254 140.311 77.6074ZM146.65 77.0611C146.851 77.0149 146.481 76.9836 145.827 76.9916C144.267 77.0106 143.649 77.1737 144.638 77.3054C145.041 77.359 145.576 77.3448 145.827 77.274C146.078 77.2031 146.449 77.1073 146.65 77.0611V77.0611ZM29.961 77.1133C30.3375 77.1026 30.3351 77.0933 29.9123 76.9293C29.4138 76.736 28.9861 76.8323 28.9861 77.1379C28.9861 77.2493 29.116 77.2916 29.2753 77.2323C29.4344 77.173 29.743 77.1195 29.961 77.1133ZM149.397 76.9134C149.446 76.866 149.12 76.8137 148.673 76.7973C148.227 76.7809 147.804 76.8568 147.735 76.9659C147.646 77.1054 147.861 77.1399 148.458 77.0821C148.925 77.0368 149.348 76.9609 149.397 76.9134ZM292.381 74.8168C292.451 74.7069 292.159 74.6473 291.615 74.6603C290.834 74.6789 290.797 74.6965 291.284 74.8168C292.084 75.0145 292.255 75.0145 292.381 74.8168ZM10.5526 72.2103C10.4206 72.159 10.2629 72.1653 10.2021 72.2243C10.1414 72.2833 10.2494 72.3253 10.4421 72.3176C10.6551 72.3091 10.6985 72.267 10.5526 72.2103V72.2103ZM12.7125 71.9765C13.08 71.8623 13.0979 71.8334 12.8039 71.8292C12.6028 71.8263 12.2737 71.8926 12.0725 71.9765C11.6066 72.1709 12.0873 72.1709 12.7125 71.9765ZM15.166 72.0463C15.3251 71.9871 15.4552 71.795 15.4552 71.6194C15.4552 71.3475 15.3402 71.3142 14.6781 71.3946C13.8379 71.4965 13.2897 71.799 13.9451 71.799C14.1604 71.799 14.3874 71.8789 14.4496 71.9765C14.5796 72.1809 14.7582 72.1983 15.166 72.0463ZM312.22 68.9588C312.22 68.8612 312.076 68.7825 311.9 68.784C311.627 68.7862 311.62 68.8117 311.854 68.9588C312.199 69.1753 312.22 69.1753 312.22 68.9588ZM19.6951 61.7369C19.5631 61.6856 19.4054 61.6919 19.3446 61.7509C19.2838 61.8099 19.3918 61.8518 19.5846 61.8441C19.7976 61.8356 19.8409 61.7936 19.6951 61.7369V61.7369ZM18.198 61.219C18.198 60.9296 17.6894 60.8971 17.0214 61.1437C16.2941 61.4121 16.4667 61.601 17.3752 61.5309C17.9272 61.4883 18.198 61.3856 18.198 61.219ZM21.5943 61.347C21.4118 61.0602 20.7579 60.9871 20.7579 61.2535C20.7579 61.403 20.9456 61.5031 21.2258 61.5031C21.4831 61.5031 21.649 61.4329 21.5943 61.347ZM20.2093 61.1481C20.4133 61.0201 20.308 60.9753 19.7979 60.9733C19.4208 60.9717 19.1122 61.0505 19.1122 61.1481C19.1122 61.3742 19.849 61.3742 20.2093 61.1481ZM325.02 40.3787C325.02 40.2811 324.937 40.2012 324.837 40.2012C324.736 40.2012 324.654 40.2811 324.654 40.3787C324.654 40.4763 324.736 40.5562 324.837 40.5562C324.937 40.5562 325.02 40.4763 325.02 40.3787ZM326.345 37.0659C326.219 37.0166 326.014 37.0166 325.888 37.0659C325.762 37.1151 325.865 37.1554 326.117 37.1554C326.368 37.1554 326.471 37.1151 326.345 37.0659ZM323.602 34.928C323.376 34.8856 323.006 34.8856 322.78 34.928C322.553 34.9703 322.738 35.0049 323.191 35.0049C323.644 35.0049 323.829 34.9703 323.602 34.928ZM315.146 33.4949C315.146 33.4189 314.467 33.262 313.637 33.1462C312.807 33.0304 311.931 32.8803 311.689 32.8126C311.415 32.7362 311.291 32.7562 311.36 32.8652C311.422 32.9618 312.196 33.1425 313.08 33.2667C313.965 33.3909 314.771 33.5179 314.871 33.5488C314.972 33.5798 315.075 33.6114 315.1 33.6191C315.125 33.6268 315.146 33.5709 315.146 33.4949ZM48.4596 31.8579C48.7861 31.7217 48.7726 31.704 48.3332 31.6929C48.0626 31.686 47.7903 31.7603 47.7282 31.8579C47.5933 32.0699 47.9516 32.0699 48.4596 31.8579ZM313.866 30.8179C313.866 30.7341 313.04 30.5743 312.031 30.4629C309.757 30.2119 309.349 30.2069 309.582 30.4325C309.679 30.5272 310.662 30.6758 311.767 30.7627C312.871 30.8496 313.795 30.9319 313.82 30.9456C313.845 30.9592 313.866 30.9018 313.866 30.8179V30.8179ZM38.2012 28.6922C38.253 28.6109 38.1756 28.5443 38.0291 28.5443C37.8827 28.5443 37.7629 28.6109 37.7629 28.6922C37.7629 28.7736 37.8403 28.8402 37.9349 28.8402C38.0296 28.8402 38.1494 28.7736 38.2012 28.6922ZM62.6647 28.3639C62.5327 28.3126 62.375 28.3189 62.3142 28.3779C62.2535 28.4369 62.3615 28.4788 62.5542 28.4711C62.7672 28.4626 62.8106 28.4205 62.6647 28.3639V28.3639ZM34.2887 28.1301C34.2887 28.0325 34.1448 27.9538 33.9688 27.9553C33.6953 27.9576 33.6886 27.983 33.923 28.1301C34.2681 28.3466 34.2887 28.3466 34.2887 28.1301ZM35.0201 27.8534C35.0201 27.8103 34.9379 27.7751 34.8373 27.7751C34.7367 27.7751 34.6544 27.8597 34.6544 27.9631C34.6544 28.0665 34.7367 28.1017 34.8373 28.0414C34.9379 27.981 35.0201 27.8964 35.0201 27.8534ZM45.4426 26.6174C45.694 26.5491 46.4757 26.4266 47.1796 26.3452C47.8836 26.2637 48.7476 26.1126 49.0996 26.0094C49.4515 25.9062 49.7395 25.8284 49.7395 25.8366C49.7395 25.9046 50.992 25.5248 51.6137 25.2682C52.5571 24.8788 52.6166 24.5798 51.7509 24.5798C51.3039 24.5798 51.1109 24.4995 51.1109 24.3135C51.1109 24.0405 51.9293 23.9326 53.2877 24.0265C53.8795 24.0673 55.568 23.7614 55.9546 23.5432C56.2433 23.3803 55.3206 23.1966 54.1169 23.1774C53.3338 23.1648 52.6666 23.2898 51.8423 23.6034C51.2008 23.8475 50.5063 24.0485 50.2991 24.05C49.999 24.0522 49.9764 24.0859 50.1879 24.2158C50.334 24.3055 50.5191 24.3395 50.5993 24.2913C50.6796 24.2432 50.7452 24.2794 50.7452 24.3716C50.7452 24.5306 50.345 24.6428 48.9484 24.8755C48.6138 24.9312 48.2956 25.0892 48.2413 25.2266C48.1606 25.4309 48.0902 25.4351 47.8554 25.25C47.6149 25.0604 47.5858 25.069 47.676 25.3033C47.7548 25.5079 47.678 25.575 47.3902 25.5534C47.1738 25.5371 46.7238 25.5962 46.39 25.6847C45.9693 25.7964 45.7031 25.7811 45.5215 25.6348C45.3743 25.5162 45.2597 25.5005 45.2597 25.599C45.2597 25.7949 43.8665 26.355 43.3794 26.355C43.2068 26.355 43.0655 26.4642 43.0655 26.5977C43.0655 26.7783 43.3107 26.8277 44.0255 26.7909C44.5535 26.7637 45.1911 26.6856 45.4426 26.6174V26.6174ZM52.9644 20.1796C52.8325 20.1369 52.6376 20.1863 52.5314 20.2895C52.3957 20.4212 52.4671 20.4443 52.7712 20.3671C53.0185 20.3043 53.1013 20.2239 52.9644 20.1796ZM273.821 19.4762C273.821 19.403 273.571 19.3261 273.266 19.3053C272.949 19.2837 272.758 19.3407 272.82 19.4385C272.948 19.6387 273.822 19.6717 273.821 19.4762ZM53.4879 18.3579L53.9451 18.3442L53.5186 18.1783C53.0367 17.9908 52.208 18.1352 52.208 18.4067C52.208 18.5057 52.3919 18.5378 52.6194 18.4786C52.8457 18.4197 53.2365 18.3654 53.4879 18.3579ZM272.359 18.3963C272.359 18.315 272.235 18.2484 272.085 18.2484C271.934 18.2484 271.81 18.315 271.81 18.3963C271.81 18.4777 271.934 18.5442 272.085 18.5442C272.235 18.5442 272.359 18.4777 272.359 18.3963ZM273.125 18.423C272.993 18.3717 272.835 18.378 272.774 18.437C272.713 18.496 272.821 18.5379 273.014 18.5302C273.227 18.5217 273.27 18.4796 273.125 18.423V18.423ZM56.6307 18.0679C56.4987 18.0166 56.341 18.023 56.2802 18.0819C56.2195 18.1409 56.3274 18.1829 56.5202 18.1752C56.7332 18.1667 56.7765 18.1246 56.6307 18.0679V18.0679ZM36.1172 17.8342C36.1172 17.7365 36.035 17.6567 35.9344 17.6567C35.8338 17.6567 35.7515 17.7365 35.7515 17.8342C35.7515 17.9318 35.8338 18.0117 35.9344 18.0117C36.035 18.0117 36.1172 17.9318 36.1172 17.8342ZM40.8713 17.3687C40.8713 17.1698 40.5279 17.3442 40.4296 17.593C40.3333 17.8366 40.36 17.8476 40.5929 17.66C40.746 17.5366 40.8713 17.4055 40.8713 17.3687ZM42.6998 17.3904C42.6998 17.2439 42.6675 17.1241 42.628 17.1241C42.5884 17.1241 42.5087 17.2439 42.4508 17.3904C42.393 17.5368 42.4253 17.6567 42.5227 17.6567C42.6201 17.6567 42.6998 17.5368 42.6998 17.3904ZM282.084 11.3224C281.952 11.2711 281.794 11.2774 281.734 11.3363C281.673 11.3953 281.781 11.4373 281.974 11.4296C282.187 11.4211 282.23 11.379 282.084 11.3223V11.3224ZM113.729 7.72801C113.787 7.63712 113.759 7.51776 113.668 7.46276C113.576 7.40775 113.454 7.48212 113.396 7.62801C113.282 7.91561 113.557 7.99811 113.729 7.72801ZM26.9385 83.9145C26.8332 83.7924 26.8189 83.6901 26.9067 83.6872C26.9944 83.6843 26.9123 83.595 26.7243 83.4889C26.2418 83.2168 26.6692 82.9836 27.6147 83.0029C28.1086 83.013 28.2274 83.0554 27.9804 83.1333C27.632 83.2433 27.3723 83.6952 27.6605 83.6902C28.1973 83.6806 28.5851 83.4486 28.5014 83.1869C28.4197 82.9314 28.4415 82.9336 28.6714 83.2044C28.9837 83.5724 30.3751 83.6401 30.4954 83.2932C30.5564 83.117 30.6308 83.1181 30.8565 83.299C31.2125 83.5842 31.4225 84.277 31.1202 84.1687C31.0024 84.1265 30.9327 83.9844 30.9653 83.8529C31.0067 83.6857 30.9228 83.7032 30.6861 83.9111C30.4159 84.1485 30.0237 84.2012 28.7388 84.1724C27.717 84.1496 27.06 84.0554 26.9385 83.9145L26.9385 83.9145ZM24.4284 83.5232C24.1849 83.3771 24.302 82.9825 24.5889 82.9825C24.7975 82.9825 24.9806 83.4838 24.8096 83.5864C24.7337 83.6319 24.5622 83.6035 24.4284 83.5232ZM28.2971 82.0949C28.0949 81.7805 28.116 81.7368 28.4817 81.7129C28.7089 81.698 29.0181 81.6728 29.169 81.6568C29.6567 81.6053 29.7485 81.7675 29.4268 82.1126C29.0204 82.5485 28.5845 82.5417 28.2971 82.0949ZM139.062 80.774C139.062 80.731 139.144 80.6464 139.244 80.586C139.345 80.5257 139.427 80.5609 139.427 80.6643C139.427 80.7677 139.345 80.8523 139.244 80.8523C139.144 80.8523 139.062 80.8171 139.062 80.774ZM141.207 80.6528C141.331 80.5315 141.479 80.4769 141.535 80.5316C141.591 80.5862 141.49 80.6855 141.309 80.7522C141.049 80.8485 141.028 80.8281 141.207 80.6528ZM43.0655 80.164C43.0655 80.0783 43.1924 79.906 43.3475 79.781C43.5668 79.6043 43.6784 79.6011 43.8489 79.7666C44.0193 79.9322 44.0074 80.0168 43.7954 80.1469C43.4506 80.3586 43.0655 80.3676 43.0655 80.164V80.164ZM249.503 78.5446C249.503 78.447 249.621 78.3671 249.766 78.3671C249.911 78.3671 250.08 78.447 250.143 78.5446C250.205 78.6423 250.086 78.7221 249.879 78.7221C249.672 78.7221 249.503 78.6423 249.503 78.5446ZM246.394 78.3561C246.394 78.154 246.885 78.1334 247.011 78.3302C247.06 78.4076 246.941 78.4825 246.747 78.4967C246.553 78.5109 246.394 78.4476 246.394 78.3561ZM65.0613 78.0696C64.8967 77.6533 65.1474 77.5923 65.7794 77.8947C66.1091 78.0524 66.2966 78.1935 66.196 78.2082C65.4254 78.3207 65.1471 78.2867 65.0613 78.0696ZM223.172 77.657C223.172 77.5594 223.209 77.4795 223.253 77.4795C223.297 77.4795 223.384 77.5594 223.447 77.657C223.509 77.7547 223.472 77.8346 223.366 77.8346C223.259 77.8346 223.172 77.7547 223.172 77.657ZM220.536 77.5033C220.457 77.3796 220.442 77.2304 220.503 77.1719C220.666 77.013 220.845 77.2466 220.756 77.5041C220.694 77.6844 220.651 77.6843 220.536 77.5031V77.5033ZM221.207 77.5395C220.832 77.3928 220.948 77.15 221.344 77.2506C221.545 77.3016 221.71 77.414 221.71 77.5002C221.71 77.6695 221.567 77.6806 221.207 77.5395ZM308.868 76.6511C308.657 76.4469 308.735 76.2369 309.02 76.2369C309.171 76.2369 309.294 76.3567 309.294 76.5032C309.294 76.7804 309.078 76.8554 308.868 76.6511ZM81.9445 75.5637C81.8953 75.4863 82.0156 75.4113 82.2119 75.3969C82.4083 75.3826 82.5211 75.4459 82.4628 75.5376C82.3332 75.7411 82.066 75.7546 81.9445 75.5637ZM83.5927 75.2588C83.6502 75.1133 83.8324 74.9881 83.9977 74.9806C84.1629 74.9731 84.6684 74.931 85.1209 74.887C85.7143 74.8293 85.8673 74.8571 85.6695 74.9867C85.4432 75.1349 85.4405 75.1669 85.6542 75.1691C85.7967 75.1707 85.862 75.2216 85.7993 75.2824C85.7366 75.3433 85.191 75.4223 84.5868 75.4582C83.6715 75.5124 83.5056 75.4791 83.5927 75.2588ZM8.9719 74.8291C8.83667 74.6166 9.18064 74.4062 9.42419 74.5523C9.62868 74.675 9.49444 74.9943 9.23836 74.9943C9.14966 74.9943 9.02975 74.9199 8.9719 74.8291ZM10.7012 70.2118C10.7012 70.12 10.7825 69.996 10.8819 69.9364C10.9856 69.8742 11.0162 69.9454 10.9538 70.1034C10.8322 70.4109 10.7012 70.4672 10.7012 70.2118ZM12.0421 70.1204C12.0421 69.9783 12.112 69.9039 12.1974 69.9552C12.2829 70.0064 12.3054 70.1227 12.2476 70.2136C12.0997 70.4459 12.0421 70.4197 12.0421 70.1204ZM330.688 46.9468C330.537 46.8521 330.496 46.7747 330.596 46.7747C330.697 46.7747 330.903 46.8521 331.054 46.9468C331.204 47.0414 331.246 47.1189 331.145 47.1189C331.044 47.1189 330.839 47.0414 330.688 46.9468ZM30.2661 33.7728C30.2661 33.696 30.4306 33.6331 30.6318 33.6331C30.8329 33.6331 30.9975 33.708 30.9975 33.7996C30.9975 33.8911 30.8329 33.954 30.6318 33.9393C30.4306 33.9246 30.2661 33.8497 30.2661 33.7728ZM37.9232 31.1658L37.4944 30.8288L38.5886 30.6877C39.1904 30.6102 40.1147 30.5422 40.6425 30.5366C41.1704 30.5311 41.6024 30.4722 41.6025 30.4058C41.6027 30.2676 42.6918 30.5429 42.8618 30.7241C42.9236 30.7899 42.7203 30.797 42.41 30.7399C42.0628 30.6759 41.6411 30.7412 41.3129 30.9094C41.0198 31.0599 40.3479 31.1907 39.8199 31.2001C39.292 31.2096 38.86 31.2816 38.86 31.3601C38.86 31.6146 38.3629 31.5115 37.9232 31.1658V31.1658ZM35.6182 31.2181C35.679 31.1591 35.8367 31.1528 35.9687 31.2041C36.1145 31.2608 36.0712 31.3029 35.8582 31.3114C35.6655 31.3191 35.5575 31.2771 35.6182 31.2181V31.2181ZM32.2918 28.7662C32.2839 28.5791 32.3271 28.4742 32.3879 28.5332C32.4486 28.5922 32.4551 28.7453 32.4023 28.8734C32.3439 29.015 32.3006 28.973 32.2918 28.7662H32.2918ZM37.2856 27.2742C37.3367 27.1939 37.2101 26.9883 37.0043 26.8173C36.6361 26.5112 36.6482 26.4979 37.7615 25.9868C39.1022 25.3712 39.2257 25.3573 39.2257 25.8224C39.2257 26.0411 39.1028 26.1785 38.9057 26.1801C38.6463 26.1824 38.6347 26.213 38.8444 26.3418C38.9867 26.4292 39.2541 26.4725 39.4387 26.4381C39.6232 26.4035 39.7742 26.4567 39.7742 26.5562C39.7742 26.6557 39.5068 26.7229 39.18 26.7056C38.8531 26.6882 38.4211 26.6833 38.22 26.6947C37.9153 26.712 37.9001 26.7442 38.1286 26.8875C38.363 27.0346 38.3563 27.06 38.0829 27.0623C37.9069 27.0639 37.7629 27.1449 37.7629 27.2425C37.7629 27.3402 37.6346 27.4201 37.4778 27.4201C37.321 27.4201 37.2345 27.3544 37.2856 27.2742V27.2742ZM39.6236 25.8417C39.4398 25.7314 39.4469 25.6574 39.6579 25.4874C39.9537 25.249 40.1895 25.4573 39.9859 25.7771C39.9133 25.8911 39.7535 25.9196 39.6236 25.8417ZM33.2831 18.3667C33.2209 18.2691 33.2935 18.1892 33.4443 18.1892C33.5952 18.1892 33.7695 18.2691 33.8316 18.3667C33.8938 18.4643 33.8212 18.5442 33.6704 18.5442C33.5195 18.5442 33.3452 18.4643 33.2831 18.3667ZM37.028 17.5719C37.2913 17.2639 37.3972 17.2319 37.3972 17.4601C37.3972 17.5473 37.2621 17.669 37.097 17.7305C36.8461 17.824 36.8348 17.798 37.028 17.5719ZM295.449 14.7072C295.664 14.4991 296.834 14.3361 297.071 14.4814C297.207 14.565 297.236 14.6426 297.135 14.6538C296.151 14.7633 295.366 14.7882 295.449 14.7072ZM294.339 14.4882C294.187 14.3946 294.301 14.343 294.659 14.343C294.965 14.343 295.215 14.4096 295.215 14.4909C295.215 14.6799 294.648 14.6781 294.339 14.488V14.4882ZM289.638 14.2616C288.855 14.0915 286.955 13.9695 283.405 13.8614C282.189 13.8243 281.018 13.7026 280.803 13.5909C280.569 13.4694 279.75 13.4075 278.762 13.4369C277.855 13.4639 277.113 13.4678 277.113 13.4455C277.113 13.3838 278.177 12.8636 278.303 12.8636C278.364 12.8636 278.364 12.9435 278.302 13.0411C278.236 13.1447 278.422 13.2186 278.748 13.2186C279.055 13.2186 279.307 13.1387 279.307 13.0411C279.307 12.9435 279.394 12.8636 279.501 12.8636C279.607 12.8636 279.633 12.9634 279.557 13.0855C279.456 13.2495 279.489 13.2605 279.683 13.1276C279.828 13.0287 280.112 12.957 280.313 12.9682C280.514 12.9794 281.115 13.0004 281.649 13.0148C282.183 13.0293 282.582 13.101 282.535 13.1742C282.488 13.2474 282.957 13.2957 283.576 13.2814C284.195 13.2669 284.845 13.3298 285.021 13.4208C285.235 13.5312 285.341 13.5215 285.341 13.3919C285.341 13.2851 285.441 13.2574 285.562 13.3303C285.684 13.4032 286.486 13.4847 287.345 13.5114C288.204 13.538 288.907 13.5692 288.907 13.5808C288.907 13.5924 289.318 13.6277 289.821 13.6594C290.324 13.691 290.756 13.7346 290.781 13.7562C290.824 13.7931 291.012 13.8469 291.33 13.9128C291.475 13.943 290.617 14.4586 290.461 14.4345C290.411 14.4267 290.04 14.3489 289.638 14.2615L289.638 14.2616ZM282.233 13.3741C282.233 13.2886 282.073 13.2187 281.878 13.2187C281.683 13.2187 281.478 13.2886 281.424 13.3741C281.37 13.4595 281.529 13.5294 281.779 13.5294C282.029 13.5294 282.233 13.4595 282.233 13.3741ZM292.013 12.8608C291.95 12.7616 291.822 12.7264 291.728 12.7825C291.635 12.8387 291.558 12.8048 291.558 12.7071C291.558 12.3635 291.853 12.358 292.072 12.6977C292.193 12.8867 292.256 13.0413 292.21 13.0413C292.165 13.0413 292.077 12.9601 292.013 12.8609V12.8608ZM288.099 12.1684C287.906 11.9813 287.711 11.8652 287.664 11.9105C287.617 11.9558 287.178 12.0196 286.689 12.0523C285.84 12.109 284.789 11.7433 285.055 11.4844C285.269 11.2772 286.531 11.3257 286.807 11.5517C287.09 11.7831 287.604 11.7908 287.835 11.567C288.029 11.3786 288.962 11.4199 289.091 11.6226C289.266 11.8985 289.005 12.5086 288.712 12.5086C288.568 12.5086 288.292 12.3555 288.099 12.1683V12.1684ZM289.986 12.3037C289.909 12.1814 289.936 12.1468 290.054 12.2179C290.164 12.2834 290.305 12.2558 290.368 12.1565C290.538 11.8889 290.766 11.938 290.766 12.2424C290.766 12.5551 290.176 12.6015 289.986 12.3037ZM76.2108 10.9813C76.2716 10.9223 76.4293 10.916 76.5613 10.9673C76.7071 11.024 76.6638 11.066 76.4508 11.0746C76.258 11.0823 76.1501 11.0403 76.2108 10.9813V10.9813ZM113.097 5.94058C113.097 5.84295 113.133 5.76307 113.178 5.76307C113.222 5.76307 113.309 5.84295 113.371 5.94058C113.433 6.03822 113.397 6.11809 113.291 6.11809C113.184 6.11809 113.097 6.03822 113.097 5.94058ZM117.361 5.95854C117.065 5.748 117.136 5.44546 117.461 5.52797C117.668 5.58061 117.801 5.50819 117.821 5.33226C117.837 5.17867 117.865 4.93318 117.881 4.78673C117.898 4.64028 118.063 4.51049 118.247 4.49827C118.432 4.48602 118.644 4.45959 118.72 4.43943C118.795 4.41924 119.104 4.33836 119.405 4.25962C120.076 4.08456 120.441 3.82306 120.307 3.61277C120.252 3.5262 120.369 3.45538 120.568 3.45538C120.766 3.45538 120.971 3.55522 121.022 3.67727C121.086 3.83145 121.161 3.84102 121.265 3.70871C121.534 3.37023 122.094 3.26459 122.389 3.49672C122.626 3.68303 122.648 3.67838 122.519 3.46958C122.4 3.27811 122.439 3.2461 122.681 3.33644C122.857 3.40186 123.112 3.45537 123.248 3.45537C123.384 3.45537 123.544 3.60693 123.605 3.79218C123.676 4.00868 123.832 4.09914 124.044 4.04548C124.51 3.92699 124.462 3.48807 123.992 3.57213C123.62 3.63854 123.62 3.63611 123.976 3.47148C124.178 3.37871 124.621 3.29719 124.961 3.29033C125.301 3.28342 126.083 3.1995 126.698 3.10373C128.292 2.85556 132.299 2.42065 134.125 2.29769C134.979 2.24013 136.049 2.16137 136.502 2.12265C137.455 2.04111 139.337 1.91129 141.804 1.75696C142.76 1.69719 144.076 1.60429 144.73 1.55053C146.301 1.42132 148.774 1.41168 149.118 1.53349C149.269 1.58687 149.742 1.69187 150.17 1.76686C150.597 1.84182 150.947 1.96195 150.947 2.03379C150.947 2.10562 150.743 2.36189 150.495 2.60325C150.127 2.96054 149.872 3.03887 149.123 3.02464C148.575 3.01413 148.227 3.08005 148.264 3.18693C148.298 3.28578 148.959 3.37325 149.734 3.38127C150.95 3.39385 151.759 3.62353 151.483 3.87729C151.359 3.99084 148.935 4.10303 148.936 3.9952C148.936 3.9424 148.381 3.92419 147.702 3.95473C147.023 3.98528 145.995 3.93773 145.418 3.84885C144.841 3.76007 144.33 3.72532 144.282 3.77166C144.235 3.81796 143.843 3.8727 143.411 3.8933C142.98 3.91392 142.4 3.99247 142.122 4.06793C141.821 4.14952 141.523 4.1293 141.384 4.01802C141.257 3.91512 140.357 3.81246 139.384 3.78989C138.181 3.76198 137.654 3.68788 137.734 3.55775C137.799 3.45267 137.712 3.47667 137.541 3.6111C137.328 3.77924 136.999 3.81949 136.487 3.74005C135.999 3.66422 135.783 3.68696 135.859 3.80628C135.988 4.00966 135.964 4.01355 134.307 4.05677C133.654 4.07381 132.934 4.15058 132.708 4.22735C132.481 4.30413 132.296 4.30164 132.296 4.22185C132.296 4.14205 132.09 4.07675 131.839 4.07675C131.588 4.07675 131.382 4.13666 131.382 4.20989C131.382 4.28311 131.254 4.34303 131.097 4.34303C130.94 4.34303 130.855 4.27556 130.907 4.19306C131.034 3.99372 129.156 4.28648 129.019 4.4873C128.77 4.85494 125.348 5.22748 125.348 4.88703C125.348 4.78312 125.261 4.69806 125.154 4.69806C125.048 4.69806 125.008 4.77243 125.066 4.86332C125.231 5.12314 124.81 5.28311 124.538 5.06386C124.356 4.91678 124.27 4.92577 124.201 5.09914C124.142 5.24882 123.841 5.3172 123.357 5.29091C122.944 5.26847 122.605 5.3247 122.605 5.41589C122.605 5.70945 121.666 5.51666 121.483 5.18567C121.386 5.00966 121.227 4.91334 121.13 4.97163C121.033 5.02993 120.995 5.14362 121.047 5.22428C121.098 5.30493 121.02 5.41575 120.873 5.47053C120.726 5.52533 120.556 5.4925 120.496 5.39757C120.429 5.29234 120.194 5.3285 119.895 5.49018C119.333 5.79445 117.584 6.11772 117.361 5.95862L117.361 5.95854ZM114.743 5.15225C114.743 4.84044 114.852 4.79454 115.009 5.04075C115.067 5.13164 115.031 5.25619 114.928 5.31749C114.826 5.37882 114.743 5.30463 114.743 5.15225ZM115.432 4.84561C115.538 4.74244 115.733 4.69297 115.865 4.73566C116.002 4.77998 115.919 4.86045 115.671 4.92321C115.367 5.00043 115.296 4.97732 115.432 4.84561ZM178.42 4.39519C178.194 4.35288 178.008 4.25728 178.008 4.18277C178.008 3.96552 178.803 4.08361 178.882 4.31254C178.921 4.4269 178.926 4.50958 178.892 4.49628C178.859 4.48293 178.646 4.4375 178.42 4.39519H178.42ZM174.626 3.98791C175.128 3.77822 175.417 3.77822 175.083 3.98791C174.932 4.08257 174.685 4.15562 174.534 4.15024C174.354 4.14381 174.385 4.08851 174.626 3.98791ZM175.733 4.00443C175.677 3.9159 175.796 3.88529 175.997 3.93639C176.424 4.04479 176.478 4.16541 176.099 4.16541C175.954 4.16541 175.79 4.09296 175.733 4.00443ZM152.194 3.60271C151.906 3.32187 152.037 3.30239 154.297 3.28917C155.622 3.28133 156.89 3.24065 157.114 3.19859C157.338 3.15653 157.564 3.18917 157.616 3.27108C157.669 3.353 157.963 3.40311 158.271 3.38241C159.103 3.3265 159.107 3.58494 158.275 3.66195C157.882 3.69836 157.599 3.66668 157.647 3.59174C157.797 3.35596 157.515 3.44344 157.229 3.72161C156.918 4.02361 156.145 4.07798 155.975 3.8099C155.9 3.69171 155.741 3.69445 155.503 3.81806C155.098 4.0284 154.717 3.88546 154.903 3.59311C154.985 3.46526 154.94 3.45311 154.769 3.55695C154.628 3.64303 154.06 3.75592 153.507 3.80781C152.715 3.88204 152.436 3.83839 152.194 3.60268V3.60271ZM166.855 3.81035C166.855 3.71272 166.891 3.63285 166.935 3.63285C166.98 3.63285 167.067 3.71272 167.129 3.81035C167.191 3.90799 167.155 3.98787 167.048 3.98787C166.942 3.98787 166.855 3.90799 166.855 3.81035ZM159.541 3.45532C159.376 3.35193 159.353 3.28215 159.484 3.28052C159.604 3.27891 159.753 3.35768 159.815 3.45532C159.955 3.67572 159.892 3.67572 159.541 3.45532ZM230.959 3.43111C231.053 3.2825 230.357 3.10768 230.216 3.24466C230.019 3.43552 229.206 3.47157 229.206 3.28942C229.206 3.17675 228.686 3.14961 227.789 3.2155C226.69 3.29629 226.229 3.25466 225.732 3.02982C225.38 2.87044 225.231 2.77666 225.4 2.82143C225.57 2.86619 225.734 2.83335 225.766 2.74858C225.798 2.66376 225.947 2.56841 226.098 2.53666C226.249 2.50496 226.433 2.3991 226.507 2.30146C226.58 2.20382 226.642 2.29888 226.644 2.51283C226.646 2.88045 226.674 2.88777 227.149 2.64669C227.6 2.41792 227.678 2.42357 227.905 2.70159C228.146 2.99637 228.153 2.99633 228.048 2.70159C227.963 2.46185 228.039 2.39095 228.38 2.39095C228.623 2.39095 228.906 2.53074 229.009 2.70159C229.112 2.874 229.198 2.9135 229.201 2.79036C229.207 2.5579 229.755 2.47006 229.755 2.70159C229.755 2.77482 230.377 2.83011 231.137 2.82448C231.897 2.81882 232.561 2.87873 232.611 2.95761C232.661 3.03648 232.878 3.101 233.094 3.101C233.407 3.101 233.439 3.14538 233.256 3.32289C233.028 3.54506 230.82 3.64974 230.959 3.43184V3.43111ZM233.96 3.42577C233.96 3.3444 234.022 3.27245 234.098 3.26586C234.173 3.25927 234.498 3.22044 234.82 3.17959C235.543 3.08769 235.801 3.39223 235.105 3.51665C234.417 3.63966 233.96 3.60344 233.96 3.42577ZM220.795 2.83403C220.795 2.73641 220.487 2.65653 220.11 2.65653C219.733 2.65653 219.363 2.73641 219.29 2.83403C219.2 2.95238 219.154 2.95238 219.152 2.83403C219.148 2.61164 218.053 2.55903 218.053 2.78125C218.053 2.87063 217.978 2.8989 217.886 2.84405C217.712 2.73957 216.104 2.57181 214.396 2.47995C213.842 2.4502 213.39 2.40794 213.39 2.386C213.39 2.26702 210.984 2.26519 210.83 2.38407C210.555 2.59626 208.727 2.7443 208.727 2.55434C208.727 2.46409 208.604 2.39027 208.453 2.39027C208.302 2.39027 208.179 2.46735 208.179 2.56158C208.179 2.66853 206.891 2.70131 204.75 2.64887C202.865 2.60268 201.123 2.56572 200.881 2.56674C200.638 2.56835 200.165 2.49495 199.829 2.40497C199.462 2.30659 199.219 2.30598 199.219 2.40336C199.219 2.56468 198.58 2.53855 198.406 2.37013C198.356 2.32156 197.524 2.31021 196.557 2.34493C195.392 2.38677 194.712 2.33786 194.54 2.19987C194.339 2.03771 194.281 2.04556 194.279 2.23531C194.277 2.38924 194.227 2.41067 194.142 2.2935C194.062 2.1822 193.021 2.09924 191.539 2.08597C190.182 2.07388 186.068 2.01814 182.397 1.96231C178.726 1.9065 174.016 1.85017 171.929 1.83717C169.842 1.82431 168.134 1.76355 168.134 1.70247C168.134 1.64134 167.681 1.59135 167.128 1.59135C166.576 1.59135 166.123 1.65127 166.123 1.72449C166.123 1.79772 166.036 1.85763 165.93 1.85763C165.823 1.85763 165.787 1.77775 165.849 1.68011C165.911 1.58248 165.834 1.5026 165.677 1.5026C165.52 1.50268 165.392 1.4228 165.392 1.32518C165.392 1.22754 165.305 1.14765 165.198 1.14765C165.092 1.14765 165.055 1.22754 165.118 1.32518C165.184 1.43002 164.983 1.50158 164.626 1.49996C164.168 1.49771 164.087 1.45541 164.295 1.32518C164.497 1.19808 164.506 1.15238 164.327 1.15037C164.141 1.14812 164.149 1.08644 164.36 0.881377C164.511 0.734928 164.805 0.615102 165.013 0.615102C165.221 0.615102 165.392 0.529833 165.392 0.425616C165.392 0.313219 165.55 0.284853 165.78 0.355897C166.042 0.436469 166.128 0.411346 166.044 0.279104C165.975 0.170993 165.967 0.0825526 166.027 0.0825526C166.086 0.0825526 166.198 0.246841 166.274 0.447645L166.413 0.812752L166.895 0.44452C167.226 0.192124 167.418 0.139072 167.505 0.2759C167.595 0.417419 167.676 0.405427 167.785 0.234658C167.91 0.0389239 169.164 -0.00495969 174.482 0.000426088C178.081 0.0041881 182.507 0.0583463 184.317 0.121082C186.127 0.183804 189.13 0.281441 190.991 0.338058C197.709 0.542441 199.439 0.616722 199.59 0.707046C199.926 0.90887 201.4 1.0879 201.623 0.954039C201.76 0.871551 201.921 0.901004 202.003 1.02389C202.109 1.18248 202.19 1.16883 202.325 0.970132C202.424 0.82368 202.506 0.783738 202.508 0.881377C202.51 0.993414 203.641 1.05097 205.573 1.03744C208.628 1.01603 213.847 1.30258 213.847 1.49174C213.847 1.54658 214.485 1.58245 215.264 1.57149C216.6 1.55268 219.676 1.79562 220.222 1.96298C220.423 2.02473 220.427 2.09109 220.241 2.30769C220.055 2.52597 220.06 2.56139 220.267 2.49791C220.407 2.45502 220.751 2.37096 221.031 2.31113C221.346 2.24409 221.501 2.11916 221.436 1.98565C221.378 1.86647 221.426 1.894 221.543 2.0468C221.716 2.27151 221.951 2.29907 222.772 2.1909C223.349 2.11483 223.925 2.12897 224.108 2.22369C224.284 2.31532 224.66 2.40114 224.943 2.41444C225.417 2.43669 225.423 2.44498 225.017 2.51932C224.676 2.58177 224.634 2.63592 224.834 2.75869C225.117 2.93241 224.879 2.95417 222.304 2.99038C221.405 3.00295 220.795 2.93978 220.795 2.83405L220.795 2.83403ZM167.653 1.23742C167.595 1.09152 167.474 1.01637 167.384 1.07039C167.126 1.22529 167.193 1.50267 167.489 1.50267C167.652 1.50267 167.716 1.39854 167.653 1.23742ZM156.988 1.84424C157.176 1.50287 157.165 1.4641 156.906 1.56052C156.648 1.6567 156.637 1.61782 156.823 1.28043L157.039 0.888662L157.22 1.28443C157.429 1.7385 157.807 1.80452 157.961 1.41391C158.019 1.26746 158 1.14764 157.92 1.14764C157.839 1.14764 157.773 1.02684 157.773 0.879179C157.773 0.660918 157.938 0.631993 158.657 0.724532C159.261 0.802277 159.541 0.774853 159.541 0.63798C159.541 0.526666 159.83 0.437582 160.191 0.437582C160.618 0.437582 160.799 0.504823 160.718 0.632809C160.63 0.771598 160.705 0.770423 160.977 0.628727C161.296 0.463105 161.343 0.475117 161.254 0.69977C161.195 0.848469 161.074 0.970141 160.984 0.970141C160.894 0.970141 160.821 1.05002 160.821 1.14765C160.821 1.51768 161.151 1.30382 161.369 0.792617C161.624 0.196435 161.63 0.193158 162.088 0.431312C162.32 0.551452 162.391 0.739036 162.328 1.05998C162.278 1.31158 162.31 1.49415 162.398 1.46567C162.486 1.43722 162.599 1.49197 162.649 1.58741C162.703 1.69002 162.269 1.77319 161.585 1.79101C160.529 1.81853 160.413 1.78458 160.23 1.39563C160.033 0.97625 159.358 0.792341 159.358 1.15812C159.358 1.26154 159.439 1.29731 159.539 1.23767C159.641 1.17645 159.674 1.24443 159.615 1.3935C159.554 1.54792 159.39 1.61302 159.221 1.55006C159.033 1.48005 158.977 1.51321 159.061 1.64484C159.208 1.8759 158.6 2.04651 157.895 1.9722C157.644 1.94574 157.288 1.99507 157.104 2.08184C156.805 2.22322 156.793 2.19855 156.988 1.84425V1.84424ZM161.99 1.17723C162.042 1.09587 161.968 1.02931 161.826 1.02931C161.684 1.02931 161.61 1.09587 161.662 1.17723C161.714 1.25859 161.788 1.32516 161.826 1.32516C161.865 1.32516 161.939 1.25859 161.99 1.17723ZM154.525 1.87788C154.47 1.79134 154.589 1.67893 154.789 1.62805C155.032 1.56642 155.116 1.44112 155.042 1.25284C154.981 1.09735 155.008 0.970127 155.102 0.970127C155.353 0.970127 155.313 1.55 155.043 1.81122C154.771 2.07617 154.66 2.09033 154.525 1.87788ZM155.646 1.38433C155.698 1.25415 155.763 1.14764 155.792 1.14764C155.821 1.14764 155.887 1.25415 155.938 1.38433C155.99 1.51452 155.924 1.62103 155.792 1.62103C155.661 1.62103 155.595 1.51452 155.646 1.38433ZM156.352 0.887014C156.547 0.743672 156.887 0.623848 157.107 0.620739C157.543 0.614469 157.821 0.883778 157.548 1.04773C157.454 1.10389 157.346 1.05809 157.308 0.945777C157.255 0.792419 157.141 0.792123 156.847 0.944172C156.285 1.23621 155.931 1.19506 156.352 0.886518V0.887014ZM153.922 0.862865C153.983 0.803879 154.14 0.797569 154.272 0.848877C154.418 0.905539 154.375 0.947606 154.162 0.956114C153.969 0.963799 153.861 0.921871 153.922 0.862885V0.862865ZM163.563 0.792592C163.329 0.645543 163.336 0.62011 163.609 0.617786C163.785 0.616178 163.929 0.69495 163.929 0.792592C163.929 1.0091 163.908 1.0091 163.563 0.792592ZM162.581 0.522221C162.494 0.301616 162.541 0.286421 162.836 0.439702C163.26 0.659927 163.3 0.792592 162.943 0.792592C162.803 0.792592 162.64 0.670917 162.581 0.522221Z" fill="#959595"/>
</svg>
